<svg width="373" height="17" viewBox="0 0 373 17" fill="none" xmlns="http://www.w3.org/2000/svg">
<path d="M43.3333 15C33.0417 15 31.9583 2 21.6667 2C11.375 2 10.2917 15 0 15" stroke="#41CE7F" stroke-width="4"/>
<path d="M346.667 15C356.958 15 358.042 2 368.333 2C370.139 2 371.662 2.40027 373 3.06034" stroke="#41CE7F" stroke-width="4"/>
<path d="M216.667 15C206.375 15 205.292 2 195 2C184.708 2 183.625 15 173.333 15" stroke="#41CE7F" stroke-width="4"/>
<path d="M346.667 15C336.375 15 335.292 2 325 2C314.708 2 313.625 15 303.333 15" stroke="#41CE7F" stroke-width="4"/>
<path d="M130 15C119.708 15 118.625 2 108.333 2C98.0417 2 96.9584 15 86.6667 15" stroke="#41CE7F" stroke-width="4"/>
<path d="M260 15C249.708 15 248.625 2 238.333 2C228.042 2 226.958 15 216.667 15" stroke="#41CE7F" stroke-width="4"/>
<path d="M86.6666 15C76.3749 15 75.2916 2 64.9999 2C54.7083 2 53.6249 15 43.3333 15" stroke="#41CE7F" stroke-width="4"/>
<path d="M173.333 15C163.042 15 161.958 2 151.667 2C141.375 2 140.292 15 130 15" stroke="#41CE7F" stroke-width="4"/>
<path d="M303.333 15C293.042 15 291.958 2 281.667 2C271.375 2 270.292 15 260 15" stroke="#41CE7F" stroke-width="4"/>
</svg>
