<svg xmlns="http://www.w3.org/2000/svg" width="58" height="82"><g fill="none" fill-rule="evenodd"><path stroke="#4A4A4A" stroke-linecap="round" stroke-linejoin="round" d="M38.913 3.79H3.667v74.42h50.666V20.027z"/><g transform="matrix(0 1 1 0 51.543 75.543)"><ellipse cx="2.667" cy="2.791" fill="#FFF" rx="2.667" ry="2.791"/><ellipse cx="2.667" cy="2.791" stroke="#4A4A4A" stroke-width="1.5" rx="2" ry="2.093"/><ellipse cx="2.667" cy="2.791" stroke="#4A4A4A" rx="2.667" ry="2.791"/></g><path stroke="#3F3F3F" stroke-linecap="round" stroke-linejoin="round" d="M38.522 3.931V20.12h15.514"/><g transform="matrix(0 1 1 0 35.543 17.868)"><ellipse cx="2.667" cy="2.791" fill="#8BD9B9" rx="2.667" ry="2.791"/><ellipse cx="2.667" cy="2.791" stroke="#4A4A4A" stroke-width="1.5" rx="2" ry="2.093"/><ellipse cx="2.667" cy="2.791" stroke="#4A4A4A" rx="2.667" ry="2.791"/></g><g transform="matrix(0 1 1 0 .876 1.124)"><ellipse cx="2.667" cy="2.791" fill="#FECF76" rx="2.667" ry="2.791"/><ellipse cx="2.667" cy="2.791" stroke="#4A4A4A" stroke-width="1.5" rx="2" ry="2.093"/><ellipse cx="2.667" cy="2.791" stroke="#4A4A4A" rx="2.667" ry="2.791"/></g><g transform="matrix(0 1 1 0 .876 75.543)"><ellipse cx="2.667" cy="2.791" fill="#F5565F" rx="2.667" ry="2.791"/><ellipse cx="2.667" cy="2.791" stroke="#4A4A4A" stroke-width="1.5" rx="2" ry="2.093"/><ellipse cx="2.667" cy="2.791" stroke="#4A4A4A" rx="2.667" ry="2.791"/></g><path fill="#4A4A4A" d="M13.576 51.081l.551-2.005 2.874-9.408h.502l2.857 9.408.543 2.005.568-2.005 2.507-9.408h.492l-3.275 12.165h-.51L17.67 41.69l-.426-1.286-.41 1.286-3.04 10.143h-.51L10 39.668h.501l2.523 9.408.552 2.005zm12.164-3.943c0-.864.166-1.64.497-2.327.332-.688.8-1.224 1.404-1.609.604-.384 1.288-.576 2.051-.576.758 0 1.437.187 2.039.56.601.373 1.07.902 1.407 1.587.337.685.509 1.457.514 2.314v.401c0 .87-.164 1.646-.493 2.331a3.8 3.8 0 0 1-1.399 1.605c-.604.384-1.288.576-2.051.576-.763 0-1.447-.19-2.051-.568a3.805 3.805 0 0 1-1.408-1.592c-.334-.682-.504-1.45-.51-2.301v-.401zm.452.35c0 .752.149 1.442.446 2.068.298.627.713 1.116 1.245 1.466.532.351 1.14.527 1.826.527 1.03 0 1.87-.387 2.519-1.161.649-.775.973-1.772.973-2.991v-.26c0-.74-.15-1.425-.451-2.055-.3-.63-.717-1.12-1.249-1.474a3.193 3.193 0 0 0-1.809-.53c-1.03 0-1.871.392-2.523 1.177-.652.785-.977 1.774-.977 2.966v.267zm13.634-4.37l-.584-.05c-.769 0-1.412.25-1.93.749-.518.498-.858 1.196-1.02 2.092v5.924h-.45v-9.04h.45v1.88c.245-.63.613-1.128 1.103-1.496.49-.367 1.106-.551 1.847-.551.261 0 .473.03.635.092l-.05.4zm1.32 4.103c0-1.443.304-2.569.911-3.38.607-.81 1.44-1.215 2.498-1.215.68 0 1.28.153 1.8.46.522.306.943.763 1.266 1.37V39h.452v12.833h-.452v-1.445a3.143 3.143 0 0 1-1.261 1.19c-.535.281-1.142.422-1.821.422-1.048 0-1.875-.415-2.482-1.245-.607-.83-.91-1.969-.91-3.417v-.117zm.468.176c0 1.28.254 2.293.76 3.036.508.744 1.226 1.116 2.156 1.116.747 0 1.384-.166 1.913-.497.53-.332.922-.818 1.178-1.458v-4.236c-.518-1.52-1.542-2.28-3.074-2.28-.925 0-1.645.364-2.16 1.094-.515.73-.773 1.804-.773 3.225z"/></g></svg>