<svg width="24" height="24" xmlns="http://www.w3.org/2000/svg">
  <g fill="none" fill-rule="evenodd">
    <path fill="#FFF" d="M0 0h24v24H0z"/>
    <path d="M8.41333333 11.1933333C9.37333333 13.08 10.92 14.62 12.8066667 15.5866667L14.2733333 14.12c.18-.18.4466667-.24.68-.16.7466667.2466667 1.5533334.38 2.38.38C17.7 14.34 18 14.64 18 15.0066667v2.3266666C18 17.7 17.7 18 17.3333333 18 11.0733333 18 6 12.9266667 6 6.66666667 6 6.3 6.3 6 6.66666667 6H9c.36666667 0 .66666667.3.66666667.66666667C9.66666667 7.5 9.8 8.3 10.0466667 9.04666667c.0733333.23333333.02.49333333-.1666667.68L8.41333333 11.1933333z" fill="#4A4A4A"/>
  </g>
</svg>
