<svg width="49" height="63" viewBox="0 0 49 63" fill="none" xmlns="http://www.w3.org/2000/svg">
<path d="M47.829 24.4091C47.829 29.6801 46.0877 34.5416 43.1483 38.4539C38.0837 45.1951 30.3812 54.7178 24.4145 60.8209C18.4477 54.7178 10.7453 45.1951 5.68061 38.4539C2.74131 34.5416 1 29.6801 1 24.4091C1 11.4808 11.4828 1 24.4145 1C37.3461 1 47.829 11.4808 47.829 24.4091Z" fill="#18191B" stroke="white" stroke-width="2"/>
<path fill-rule="evenodd" clip-rule="evenodd" d="M36.182 26.5961C35.9902 26.4163 35.8246 26.2627 35.5661 26.0364L26.3842 18.039C26.2711 17.94 26.162 17.837 26.0671 17.7218C25.8733 17.4834 25.7178 17.2793 25.7178 16.956C25.7178 16.6448 25.8793 16.3943 26.0691 16.1781H36.2547L33.5912 17.942H36.2547V18.629C36.2547 18.6795 36.2527 18.728 36.2486 18.7765C36.2042 19.31 35.8872 19.7848 35.4409 20.0798L32.7067 21.8094H34.4898C35.6024 21.8094 36.2567 22.6015 36.2567 23.5774V24.6342L37.6702 26.0122V23.3976C37.6702 22.1994 37.3653 21.5548 36.5475 21.0517C37.232 20.4677 37.6702 19.5989 37.6702 18.629V14.7637H19.5689C14.4943 14.7637 10.3647 18.8957 10.3647 23.9734C10.3647 29.0511 14.4943 33.1832 19.5689 33.1832H37.4441C37.7591 32.1143 38.0156 31.0111 37.9994 30.0958C37.9752 28.8612 37.4845 27.8166 36.182 26.5961ZM30.346 17.2837H27.6462L29.2213 18.6011C29.8566 18.4769 30.3227 17.931 30.346 17.2837ZM19.5701 31.7712H28.6269C28.7965 31.5389 28.9116 31.2661 28.9156 31.0034C28.9237 30.6437 28.8066 30.3548 28.4593 30.0295C28.4593 30.0295 21.119 23.5414 18.6736 21.3996C18.5036 21.2495 18.3616 21.1072 18.2303 20.9757L18.2303 20.9757L18.2303 20.9757C18.1619 20.9072 18.0964 20.8416 18.0314 20.7793C16.9187 19.7225 16.6845 18.0818 17.1772 16.5603C14.0493 17.5727 11.7795 20.5146 11.7795 23.9779C11.7795 28.2756 15.275 31.7712 19.5701 31.7712ZM32.5546 31.7675H30.2263C30.3515 31.4968 30.4282 31.2139 30.4282 30.933C30.4282 30.2905 30.2384 29.8702 29.7114 29.2943C29.5639 29.1327 29.4105 28.9791 29.2469 28.8336L19.6126 20.3149C19.4664 20.1869 19.3581 20.0692 19.2617 19.9645C19.2303 19.9304 19.2002 19.8976 19.1704 19.8663C18.2375 18.8904 18.1365 17.4255 18.8574 16.2132C19.0917 16.1909 19.3299 16.1788 19.5702 16.1788H20.7677C20.2911 17.4356 20.5113 18.6116 21.5815 19.6805C21.6139 19.7128 21.6454 19.7448 21.6765 19.7762C21.7674 19.8684 21.8536 19.9557 21.9409 20.0341L31.9569 28.969C32.0033 29.0112 32.0469 29.0551 32.0885 29.097C32.1246 29.1334 32.1593 29.1684 32.1931 29.1994C33.0251 29.9692 33.1119 30.7067 32.5546 31.7675ZM34.1096 31.7675H36.2783C36.45 31.2078 36.5731 30.6905 36.5752 30.1571C36.5752 29.0983 36.0683 28.4962 35.1697 27.6415C35.0576 27.5347 34.9032 27.3997 34.7355 27.253C34.7129 27.2332 34.69 27.2131 34.6669 27.1929L25.485 19.1288C25.3539 19.0141 25.236 18.8939 25.116 18.7714C25.0732 18.7278 25.0302 18.6839 24.9862 18.6399C24.5338 18.1873 24.2673 17.771 24.2673 17.0173C24.2673 16.7345 24.3339 16.4516 24.445 16.1788H22.2823C21.8239 17.0072 21.8865 17.9913 22.6458 18.749C22.7221 18.8282 22.8009 18.905 22.882 18.9793L32.8979 27.9143C32.9702 27.9791 33.0401 28.0446 33.1138 28.1138C33.1597 28.1568 33.2071 28.2012 33.2574 28.2477C34.4831 29.3893 34.6507 30.44 34.1096 31.7675Z" fill="white"/>
</svg>
