<svg xmlns="http://www.w3.org/2000/svg" width="58" height="82" viewBox="0 0 58 82">
    <g fill="none" fill-rule="evenodd">
        <path stroke="#4A4A4A" stroke-linecap="round" stroke-linejoin="round" d="M38.913 3.79H3.667v74.42h50.666V20.027z"/>
        <g transform="matrix(0 1 1 0 51.543 75.543)">
            <ellipse cx="2.667" cy="2.791" fill="#FFF" rx="2.667" ry="2.791"/>
            <ellipse cx="2.667" cy="2.791" stroke="#4A4A4A" stroke-width="1.5" rx="2" ry="2.093"/>
            <ellipse cx="2.667" cy="2.791" stroke="#4A4A4A" rx="2.667" ry="2.791"/>
        </g>
        <path stroke="#3F3F3F" stroke-linecap="round" stroke-linejoin="round" d="M38.522 3.931V20.12h15.514"/>
        <g transform="matrix(0 1 1 0 35.543 17.868)">
            <ellipse cx="2.667" cy="2.791" fill="#8BD9B9" rx="2.667" ry="2.791"/>
            <ellipse cx="2.667" cy="2.791" stroke="#4A4A4A" stroke-width="1.5" rx="2" ry="2.093"/>
            <ellipse cx="2.667" cy="2.791" stroke="#4A4A4A" rx="2.667" ry="2.791"/>
        </g>
        <g transform="matrix(0 1 1 0 .876 1.124)">
            <ellipse cx="2.667" cy="2.791" fill="#FECF76" rx="2.667" ry="2.791"/>
            <ellipse cx="2.667" cy="2.791" stroke="#4A4A4A" stroke-width="1.5" rx="2" ry="2.093"/>
            <ellipse cx="2.667" cy="2.791" stroke="#4A4A4A" rx="2.667" ry="2.791"/>
        </g>
        <g transform="matrix(0 1 1 0 .876 75.543)">
            <ellipse cx="2.667" cy="2.791" fill="#F5565F" rx="2.667" ry="2.791"/>
            <ellipse cx="2.667" cy="2.791" stroke="#4A4A4A" stroke-width="1.5" rx="2" ry="2.093"/>
            <ellipse cx="2.667" cy="2.791" stroke="#4A4A4A" rx="2.667" ry="2.791"/>
        </g>
        <path fill="#4A4A4A" d="M14.47 46.482v5.344H14V39.174h3.954c1.292 0 2.295.326 3.01.977.716.652 1.074 1.557 1.074 2.716 0 1.147-.349 2.033-1.047 2.66-.698.625-1.69.943-2.976.955h-3.546zm0-.47h3.484c1.141 0 2.029-.274 2.663-.825.635-.55.952-1.318.952-2.303 0-1.02-.317-1.814-.952-2.385-.634-.57-1.522-.856-2.663-.856h-3.485v6.37zm17.796 2.781c0-.538-.126-.995-.378-1.368-.252-.374-.649-.704-1.19-.99-.542-.288-1.36-.582-2.455-.883-1.095-.301-1.916-.605-2.464-.912-.547-.307-.949-.664-1.203-1.07-.255-.405-.383-.897-.383-1.476 0-.922.388-1.667 1.165-2.238.776-.57 1.787-.856 3.032-.856.811 0 1.54.158 2.186.474.646.315 1.145.759 1.499 1.33.353.57.53 1.214.53 1.933h-.47c0-.945-.347-1.725-1.042-2.342-.695-.617-1.596-.926-2.703-.926-1.112 0-2.011.248-2.698.743-.686.496-1.03 1.117-1.03 1.864 0 .76.299 1.37.895 1.834.597.463 1.582.873 2.955 1.23 1.373.356 2.378.768 3.015 1.238.811.596 1.217 1.396 1.217 2.398 0 .637-.18 1.2-.539 1.69-.359.49-.869.868-1.53 1.134-.66.267-1.401.4-2.224.4-.915 0-1.738-.152-2.468-.456-.73-.304-1.279-.737-1.646-1.3-.368-.561-.552-1.225-.552-1.99h.469c0 1.038.388 1.843 1.164 2.416.777.574 1.788.86 3.033.86 1.107 0 2.02-.253 2.738-.76s1.077-1.165 1.077-1.977zm2.946 3.033V39.174h3.502c.979 0 1.865.232 2.659.695a4.908 4.908 0 0 1 1.868 1.95c.452.838.684 1.775.695 2.812v1.642c0 1.055-.221 2.005-.664 2.85a4.918 4.918 0 0 1-1.856 1.982c-.793.475-1.68.715-2.659.721h-3.545zm.47-12.183v11.714h3.032c.886 0 1.693-.216 2.42-.647a4.526 4.526 0 0 0 1.708-1.808c.41-.773.62-1.632.625-2.576V44.7c0-.945-.201-1.802-.604-2.573a4.522 4.522 0 0 0-1.686-1.811 4.65 4.65 0 0 0-2.394-.674h-3.102z"/>
    </g>
</svg>
