<svg width="18" height="22" xmlns="http://www.w3.org/2000/svg"><path d="M10.679 17.034h-5.39V22H3.5v-4.966H.513v-1.538H3.5v-2.183H.513V11.79H3.5V.672h7.266c2.246 0 4.001.569 5.266 1.706 1.264 1.138 1.897 2.684 1.897 4.637 0 1.992-.616 3.537-1.846 4.636-1.23 1.099-2.988 1.653-5.273 1.662H5.288v2.183h5.39v1.538zm-5.39-5.244h5.478c1.699 0 3.017-.413 3.955-1.238.937-.825 1.406-1.994 1.406-3.508 0-1.465-.457-2.627-1.37-3.486-.913-.86-2.17-1.309-3.772-1.348H5.288v9.58z" fill="#000" fill-rule="evenodd"/></svg>