<?xml version="1.0" encoding="UTF-8"?>
<svg width="18px" height="22px" viewBox="0 0 18 22" version="1.1" xmlns="http://www.w3.org/2000/svg">
    <!-- Generator: Sketch 52.5 (67469) - http://www.bohemiancoding.com/sketch -->
    <title>₽</title>
    <desc>Created with Sketch.</desc>
    <g id="school" stroke="none" stroke-width="1" fill="none" fill-rule="evenodd">
        <g id="School-—-1280-—-1360-v2" transform="translate(-752.000000, -4402.000000)" fill="#000000">
            <g id="6-block" transform="translate(128.000000, 4229.000000)">
                <g id="Group" transform="translate(312.000000, 138.000000)">
                    <path d="M322.678711,52.0341797 L317.288086,52.0341797 L317.288086,57 L315.500977,57 L315.500977,52.0341797 L312.512695,52.0341797 L312.512695,50.4960938 L315.500977,50.4960938 L315.500977,48.3134766 L312.512695,48.3134766 L312.512695,46.7900391 L315.500977,46.7900391 L315.500977,35.671875 L322.766602,35.671875 C325.012707,35.671875 326.76806,36.240717 328.032715,37.378418 C329.29737,38.516119 329.929688,40.0615137 329.929688,42.0146484 C329.929688,44.0068459 329.314459,45.5522406 328.083984,46.6508789 C326.853509,47.7495172 325.095715,48.3037109 322.810547,48.3134766 L317.288086,48.3134766 L317.288086,50.4960938 L322.678711,50.4960938 L322.678711,52.0341797 Z M317.288086,46.7900391 L322.766602,46.7900391 C324.465829,46.7900391 325.784175,46.3774455 326.72168,45.5522461 C327.659184,44.7270467 328.12793,43.5576248 328.12793,42.0439453 C328.12793,40.5790942 327.671391,39.4169965 326.758301,38.5576172 C325.84521,37.6982379 324.587899,37.2490236 322.986328,37.2099609 L317.288086,37.2099609 L317.288086,46.7900391 Z" id="₽"></path>
                </g>
            </g>
        </g>
    </g>
</svg>
