<svg xmlns="http://www.w3.org/2000/svg" width="58" height="82" viewBox="0 0 58 82">
    <g fill="none" fill-rule="evenodd">
        <path stroke="#4A4A4A" stroke-linecap="round" stroke-linejoin="round" d="M38.913 3.79H3.667v74.42h50.666V20.027z"/>
        <g transform="matrix(0 1 1 0 51.543 75.543)">
            <ellipse cx="2.667" cy="2.791" fill="#FFF" rx="2.667" ry="2.791"/>
            <ellipse cx="2.667" cy="2.791" stroke="#4A4A4A" stroke-width="1.5" rx="2" ry="2.093"/>
            <ellipse cx="2.667" cy="2.791" stroke="#4A4A4A" rx="2.667" ry="2.791"/>
        </g>
        <path stroke="#3F3F3F" stroke-linecap="round" stroke-linejoin="round" d="M38.522 3.931V20.12h15.514"/>
        <g transform="matrix(0 1 1 0 35.543 17.868)">
            <ellipse cx="2.667" cy="2.791" fill="#8BD9B9" rx="2.667" ry="2.791"/>
            <ellipse cx="2.667" cy="2.791" stroke="#4A4A4A" stroke-width="1.5" rx="2" ry="2.093"/>
            <ellipse cx="2.667" cy="2.791" stroke="#4A4A4A" rx="2.667" ry="2.791"/>
        </g>
        <g transform="matrix(0 1 1 0 .876 1.124)">
            <ellipse cx="2.667" cy="2.791" fill="#FECF76" rx="2.667" ry="2.791"/>
            <ellipse cx="2.667" cy="2.791" stroke="#4A4A4A" stroke-width="1.5" rx="2" ry="2.093"/>
            <ellipse cx="2.667" cy="2.791" stroke="#4A4A4A" rx="2.667" ry="2.791"/>
        </g>
        <g transform="matrix(0 1 1 0 .876 75.543)">
            <ellipse cx="2.667" cy="2.791" fill="#F5565F" rx="2.667" ry="2.791"/>
            <ellipse cx="2.667" cy="2.791" stroke="#4A4A4A" stroke-width="1.5" rx="2" ry="2.093"/>
            <ellipse cx="2.667" cy="2.791" stroke="#4A4A4A" rx="2.667" ry="2.791"/>
        </g>
        <path fill="#4A4A4A" d="M16.357 48.629c0-.399-.094-.736-.283-1.013-.189-.276-.486-.52-.892-.732-.406-.212-1.02-.43-1.84-.653-.821-.222-1.437-.447-1.847-.674-.41-.228-.711-.491-.902-.79-.191-.3-.287-.665-.287-1.093 0-.682.291-1.233.873-1.655.582-.422 1.34-.633 2.273-.633.608 0 1.154.116 1.639.35.484.233.858.561 1.123.983.265.422.398.899.398 1.43h-.352c0-.698-.26-1.276-.782-1.732-.521-.456-1.196-.684-2.026-.684-.833 0-1.508.183-2.022.55-.515.365-.772.825-.772 1.378 0 .56.224 1.013.67 1.356.448.342 1.186.646 2.216.91 1.029.263 1.782.568 2.26.915.608.441.912 1.032.912 1.774 0 .471-.135.888-.404 1.25-.27.362-.651.641-1.147.838a4.475 4.475 0 0 1-1.667.296c-.686 0-1.303-.112-1.85-.337-.547-.225-.959-.546-1.234-.961-.276-.416-.414-.906-.414-1.472h.352c0 .767.29 1.363.873 1.787.581.424 1.34.636 2.273.636.83 0 1.513-.187 2.052-.562.538-.375.807-.863.807-1.462zm3.414-1.517l-.013.013-1.023.867v2.88h-.352V41h.352v6.613l.827-.771 3.205-2.924h.502L20.03 46.88l3.44 3.991h-.456l-3.244-3.76zM27.229 51a2.864 2.864 0 0 1-1.567-.453 3.123 3.123 0 0 1-1.117-1.244 3.8 3.8 0 0 1-.404-1.754v-.29c0-.642.13-1.231.391-1.767.26-.535.62-.953 1.075-1.253.456-.3.953-.45 1.492-.45.786 0 1.428.277 1.928.83.5.552.749 1.278.749 2.178v.366h-5.283v.38c0 .565.12 1.089.362 1.57.24.483.573.86.996 1.135.424.274.883.411 1.378.411.473 0 .876-.078 1.208-.234.333-.157.627-.398.883-.723l.247.173c-.525.75-1.304 1.125-2.338 1.125zm-.13-6.864c-.686 0-1.268.252-1.746.755-.478.504-.758 1.145-.84 1.925h4.911v-.083c0-.472-.1-.91-.303-1.315a2.314 2.314 0 0 0-.833-.944 2.17 2.17 0 0 0-1.19-.338zm5.107-2.095v1.877h1.602v.353h-1.602v4.936c0 .493.081.857.244 1.092.163.236.435.354.817.354.191 0 .424-.02.697-.058l.059.328c-.143.051-.389.077-.736.077-.513 0-.88-.14-1.101-.421-.221-.28-.334-.723-.339-1.327v-4.98h-1.302v-.354h1.302V42.04h.359zm5.823 8.612c.638 0 1.165-.167 1.58-.501.414-.335.641-.797.68-1.389h.352c-.035.673-.298 1.214-.788 1.623-.49.41-1.099.614-1.824.614-.882 0-1.582-.315-2.1-.945-.52-.63-.78-1.484-.78-2.564v-.231c0-1.054.26-1.896.78-2.526.518-.63 1.214-.945 2.087-.945.747 0 1.363.22 1.85.662.486.441.745 1.028.775 1.761h-.352c-.03-.625-.253-1.128-.667-1.507-.415-.38-.95-.569-1.606-.569-.786 0-1.402.28-1.847.839-.445.56-.667 1.336-.667 2.33v.225c0 .972.224 1.736.674 2.29.45.556 1.067.833 1.853.833zm4.729-5.116c.23-.54.569-.966 1.016-1.279.447-.312.942-.469 1.485-.469.756 0 1.317.211 1.684.633.367.422.553 1.06.557 1.912v4.537h-.352v-4.55c-.004-.745-.158-1.297-.462-1.655-.304-.357-.786-.536-1.446-.536-.608 0-1.135.213-1.58.64-.445.426-.746.975-.902 1.648v4.453h-.352V41h.352v4.537z"/>
    </g>
</svg>
