<svg xmlns="http://www.w3.org/2000/svg" width="58" height="82"><g fill="none" fill-rule="evenodd"><path stroke="#4A4A4A" stroke-linecap="round" stroke-linejoin="round" d="M38.913 3.79H3.667v74.42h50.666V20.027z"/><g transform="matrix(0 1 1 0 51.543 75.543)"><ellipse cx="2.667" cy="2.791" fill="#FFF" rx="2.667" ry="2.791"/><ellipse cx="2.667" cy="2.791" stroke="#4A4A4A" stroke-width="1.5" rx="2" ry="2.093"/><ellipse cx="2.667" cy="2.791" stroke="#4A4A4A" rx="2.667" ry="2.791"/></g><path stroke="#3F3F3F" stroke-linecap="round" stroke-linejoin="round" d="M38.522 3.931V20.12h15.514"/><g transform="matrix(0 1 1 0 35.543 17.868)"><ellipse cx="2.667" cy="2.791" fill="#8BD9B9" rx="2.667" ry="2.791"/><ellipse cx="2.667" cy="2.791" stroke="#4A4A4A" stroke-width="1.5" rx="2" ry="2.093"/><ellipse cx="2.667" cy="2.791" stroke="#4A4A4A" rx="2.667" ry="2.791"/></g><g transform="matrix(0 1 1 0 .876 1.124)"><ellipse cx="2.667" cy="2.791" fill="#FECF76" rx="2.667" ry="2.791"/><ellipse cx="2.667" cy="2.791" stroke="#4A4A4A" stroke-width="1.5" rx="2" ry="2.093"/><ellipse cx="2.667" cy="2.791" stroke="#4A4A4A" rx="2.667" ry="2.791"/></g><g transform="matrix(0 1 1 0 .876 75.543)"><ellipse cx="2.667" cy="2.791" fill="#F5565F" rx="2.667" ry="2.791"/><ellipse cx="2.667" cy="2.791" stroke="#4A4A4A" stroke-width="1.5" rx="2" ry="2.093"/><ellipse cx="2.667" cy="2.791" stroke="#4A4A4A" rx="2.667" ry="2.791"/></g><path fill="#4A4A4A" d="M18.84 45.005l4.084-5.831h.591l-4.38 6.196 4.545 6.456h-.582l-4.258-6.091-4.275 6.091H14l4.545-6.456-4.38-6.196h.591l4.084 5.83zm7.534 6.352h6.492v.47h-6.97V39.173h.478v12.183zm16.285-2.564c0-.538-.126-.995-.378-1.368-.252-.374-.649-.704-1.19-.99-.542-.288-1.36-.582-2.455-.883-1.095-.301-1.916-.605-2.464-.912-.547-.307-.949-.664-1.203-1.07-.255-.405-.383-.897-.383-1.476 0-.922.388-1.667 1.165-2.238.776-.57 1.787-.856 3.032-.856.811 0 1.54.158 2.186.474a3.54 3.54 0 0 1 1.499 1.33c.353.57.53 1.214.53 1.933h-.47c0-.945-.347-1.725-1.042-2.342-.695-.617-1.596-.926-2.703-.926-1.112 0-2.011.248-2.698.743-.686.496-1.03 1.117-1.03 1.864 0 .76.299 1.37.896 1.834.596.463 1.581.873 2.954 1.23 1.373.356 2.378.768 3.015 1.238.812.596 1.217 1.396 1.217 2.398 0 .637-.18 1.2-.539 1.69-.359.49-.869.868-1.53 1.134-.66.267-1.401.4-2.224.4-.915 0-1.738-.152-2.468-.456-.73-.304-1.279-.737-1.646-1.3-.368-.561-.552-1.225-.552-1.99h.47c0 1.038.387 1.843 1.163 2.416.777.574 1.788.86 3.033.86 1.107 0 2.02-.253 2.738-.76s1.077-1.165 1.077-1.977z"/></g></svg>