<svg width="24" height="34" viewBox="0 0 24 34" fill="none" xmlns="http://www.w3.org/2000/svg">
<path fill-rule="evenodd" clip-rule="evenodd" d="M22.7967 32.7001L23.7246 33.3186C23.7215 33.3166 23.7183 33.3144 23.7151 33.3122C23.549 33.1995 23.2065 32.9669 22.7967 32.7001ZM23.822 33.3836L23.8225 33.3839L23.8209 33.3807L23.822 33.3836ZM23.8219 33.3836L17.4771 23.3838C16.5135 21.9253 15.2962 19.9751 13.9586 17.832C12.3554 15.2634 10.5793 12.4177 8.85971 9.80982C5.70537 5.02605 3.06883 1.05462 2.99758 0.978607C2.7458 0.703077 2.58428 0.665073 1.61518 0.665073C0.793337 0.665073 0.717329 0.674574 0.522558 0.769585C0.408546 0.831341 0.247028 0.959603 0.17102 1.05936L0.0237522 1.24464L0.00950241 10.7742L0 20.299L0.099762 20.5127C0.17102 20.6505 0.27553 20.7693 0.418045 20.8595L0.63657 20.9973H1.45841C2.17574 20.9973 2.30875 20.983 2.46077 20.907C2.66029 20.8025 2.7553 20.7075 2.87881 20.4747C2.96432 20.3132 2.96907 20.0377 2.98333 13.1922C2.99283 9.28251 3.01183 6.08066 3.03083 6.08541C3.04983 6.08541 5.25407 9.32527 7.93336 13.2872L12.8026 20.4937L15.8221 24.3838C17.9507 27.2598 23.7345 33.3035 23.8213 33.3831L23.8219 33.3836ZM17.957 0.655571C17.8904 0.427546 17.7052 0.209023 17.4771 0.0950108C17.3204 0.00950146 17.1969 0 16.4938 0C15.748 0 15.6767 0.00950163 15.4819 0.109262C15.2539 0.232776 15.0876 0.441798 15.0116 0.707827C14.9831 0.817088 14.9641 3.07359 14.9641 7.08777V13.2967L16.4748 15.6054L17.9807 17.9142L17.995 9.37277C18.0045 3.42037 17.995 0.779084 17.957 0.655571Z" fill="#0070F3"/>
</svg>
