<svg width="34" height="31" viewBox="0 0 34 31" fill="none" xmlns="http://www.w3.org/2000/svg">
<path d="M33.3894 14.956C33.3894 17.4776 30.9271 19.8315 27.0452 21.1584C27.8204 25.0609 27.1841 28.2064 25.0589 29.4319C22.8745 30.6918 19.6202 29.8197 16.5314 27.1196C13.5206 29.7107 10.4777 30.7304 8.35433 29.5012C6.17193 28.2379 5.50829 24.8791 6.30487 20.8547C2.2616 19.518 -6.10352e-05 17.5108 -6.10352e-05 14.956C-6.10352e-05 12.4929 2.46671 10.362 6.29634 9.04368C5.43873 4.85303 6.16537 1.7839 8.3786 0.507664C10.5123 -0.722771 13.5906 0.34966 16.6457 3.00843C19.8242 0.186407 22.872 -0.675134 25.0829 0.604645C27.2147 1.83862 27.8229 5.04135 27.0452 9.01599C30.7961 10.3237 33.3894 12.5028 33.3894 14.956Z" fill="white"/>
<path d="M7.10742 10.3528C7.42304 10.2445 7.74133 10.1442 8.062 10.052C8.00883 9.83593 7.95965 9.61888 7.9145 9.40097C7.19193 5.89339 7.66437 3.06769 9.27774 2.13752C10.8246 1.2454 13.3545 2.17558 15.9096 4.39905C16.1613 4.61864 16.4075 4.84457 16.6479 5.0766C16.8088 4.92231 16.9727 4.77102 17.1392 4.6228C19.817 2.24513 22.5011 1.2433 24.1128 2.17623C25.6582 3.07084 26.1159 5.72738 25.4654 9.0515C25.4007 9.38068 25.3276 9.70817 25.2462 10.0336C25.626 10.1415 25.9928 10.2565 26.3437 10.3788C29.4831 11.4733 31.488 13.1887 31.488 14.968C31.488 16.8058 29.3358 18.6491 26.0658 19.7666C25.8006 19.8568 25.5333 19.9404 25.2639 20.0173C25.3514 20.3679 25.4291 20.7209 25.4969 21.0759C26.1171 24.3423 25.6327 26.9359 24.0914 27.825C22.4994 28.7429 19.8275 27.7994 17.2257 25.5251C17.0201 25.3453 16.8136 25.1546 16.6069 24.9548C16.3466 25.206 16.0793 25.4498 15.8054 25.6861C13.2852 27.8547 10.7962 28.7305 9.25622 27.839C7.66568 26.9183 7.14889 24.1321 7.82001 20.7422C7.87119 20.4833 7.9309 20.2189 7.99783 19.9496C7.81017 19.8942 7.62605 19.837 7.44639 19.7774C4.04695 18.6512 1.83529 16.8303 1.83529 14.968C1.83529 13.1823 3.90483 11.4553 7.10742 10.3528Z" fill="#53C1DE"/>
<path d="M7.84462 18.5752C8.00669 18.6288 8.17309 18.6807 8.34265 18.7309C8.71797 17.5429 9.22453 16.2795 9.84421 14.9744C9.25274 13.7001 8.76587 12.453 8.40104 11.2726C8.09776 11.3605 7.80328 11.4531 7.51956 11.5508C4.77548 12.4953 3.10175 13.892 3.10175 14.9681C3.10175 16.1144 4.90947 17.6026 7.84449 18.5752H7.84462ZM9.06245 20.9884C8.76574 22.4873 8.72335 23.8426 8.91994 24.902C9.09657 25.854 9.45169 26.4886 9.89079 26.7428C10.8253 27.2838 12.8238 26.5806 14.9789 24.726C15.226 24.5134 15.475 24.2864 15.7246 24.0462C14.889 23.1323 14.054 22.0699 13.2391 20.8901C11.8055 20.7629 10.4512 20.5549 9.22295 20.2711C9.16258 20.5152 9.10878 20.7544 9.06245 20.9884ZM21.3786 26.6494C22.2916 26.9718 23.0188 26.981 23.4583 26.7276C24.3937 26.1882 24.7824 24.1056 24.2521 21.3123C24.189 20.9822 24.1168 20.6539 24.0356 20.3278C22.821 20.5964 21.4765 20.7897 20.0395 20.9063C19.2192 22.0607 18.36 23.1218 17.4941 24.0511C17.6782 24.2291 17.8665 24.4026 18.0591 24.5713C19.2096 25.5771 20.3625 26.2905 21.3785 26.6494H21.3786ZM25.6559 18.5681C27.1018 18.0739 28.2959 17.4316 29.1144 16.7308C29.8498 16.1009 30.2212 15.4756 30.2212 14.9681C30.2212 13.8885 28.6114 12.5112 25.9265 11.5751C25.5895 11.4581 25.2491 11.351 24.9059 11.254C24.5348 12.4609 24.048 13.7229 23.4606 14.999C24.0556 16.2941 24.5493 17.5761 24.9239 18.7972C25.1697 18.7268 25.4138 18.6504 25.6559 18.5681ZM24.222 8.80833C24.7794 5.96019 24.4093 3.81178 23.4779 3.27268C22.4858 2.69841 20.2923 3.5173 17.9802 5.57017C17.8325 5.7014 17.684 5.8388 17.5353 5.98092C18.3968 6.90598 19.2481 7.95912 20.0613 9.10688C21.4559 9.23615 22.7909 9.44375 24.0182 9.72184C24.0938 9.41905 24.1618 9.11441 24.222 8.8082V8.80833ZM11.4312 11.9667C11.7211 11.466 12.0217 10.9715 12.3329 10.4838C11.3867 10.6032 10.4803 10.762 9.62912 10.9563C9.88463 11.7754 10.2031 12.6318 10.5782 13.5097C10.8522 12.9898 11.1366 12.4753 11.4312 11.9667ZM16.6473 6.88617C16.063 7.5191 15.4779 8.22592 14.9023 8.99271C16.0699 8.93754 17.2394 8.93727 18.407 8.99192C17.8309 8.23222 17.2407 7.52645 16.6473 6.88617ZM21.8969 11.9754C22.1877 12.4799 22.4668 12.9912 22.7339 13.5088C23.1028 12.6339 23.4184 11.7737 23.6761 10.943C22.83 10.7536 21.9278 10.5989 20.9878 10.4814C21.3025 10.9722 21.6056 11.4703 21.8969 11.9754ZM20.9608 19.5452C21.9319 19.4368 22.8478 19.29 23.6936 19.1059C23.4317 18.2605 23.1092 17.3817 22.7324 16.488C22.4643 17.006 22.184 17.5176 21.8917 18.0224C21.5936 18.5374 21.2832 19.0451 20.9608 19.5452ZM16.6123 23.1396C17.2126 22.4917 17.8115 21.7751 18.3964 21.0044C17.8286 21.0267 17.2498 21.038 16.6615 21.038C16.057 21.038 15.4595 21.0245 14.8715 20.9982C15.4489 21.783 16.0319 22.5006 16.6123 23.1396ZM10.5661 16.4425C10.1698 17.3459 9.83568 18.2199 9.57032 19.051C10.4302 19.2472 11.3584 19.4052 12.3364 19.5225C12.023 19.0257 11.7195 18.5226 11.4261 18.0136C11.1278 17.4964 10.8411 16.9725 10.5661 16.4425ZM12.5234 17.3808C12.9726 18.1611 13.4471 18.9266 13.946 19.6761C14.8258 19.7389 15.735 19.7714 16.6615 19.7714C17.5842 19.7714 18.4818 19.7426 19.3462 19.6866C19.8581 18.9389 20.3415 18.172 20.7954 17.3878C21.2472 16.6077 21.6692 15.8107 22.0605 14.9986C21.6702 14.1862 21.2495 13.3888 20.7992 12.608V12.6083C20.3491 11.8274 19.8695 11.0638 19.3614 10.3193C18.4796 10.2527 17.5754 10.2178 16.6613 10.2178C15.7432 10.2178 14.8379 10.2529 13.9562 10.3201C13.4533 11.0635 12.9768 11.8244 12.5275 12.6013C12.0757 13.3803 11.6494 14.1738 11.2492 14.9806C11.6453 15.7955 12.0702 16.5961 12.5233 17.3808H12.5234ZM9.91022 3.23502C8.91731 3.80772 8.53109 6.11701 9.15497 9.14546C9.19586 9.34275 9.24032 9.53928 9.28831 9.73496C10.5185 9.4511 11.8544 9.23982 13.2531 9.10859C14.0679 7.94836 14.9121 6.89338 15.7596 5.98027C15.5376 5.76617 15.3102 5.55762 15.0778 5.35482C12.8885 3.44958 10.8425 2.69736 9.91022 3.23502Z" fill="white"/>
<path d="M16.6615 12.3201C15.199 12.3201 14.0136 13.5056 14.0136 14.9679C14.0136 16.4304 15.199 17.616 16.6615 17.616C18.1238 17.616 19.3093 16.4304 19.3093 14.9679C19.3093 13.5056 18.1238 12.3201 16.6615 12.3201Z" fill="#53C1DE"/>
</svg>
