<svg width="79" height="37" viewBox="0 0 79 37" fill="none" xmlns="http://www.w3.org/2000/svg">
<path d="M40.0891 22.3005L42.9716 12.7111H40.1329V11.1077H45.6148V12.7059L42.7323 22.2671H45.7615V23.9168H40.0891V22.3005Z" fill="#18191B"/>
<path d="M35.3332 19.1021L35.7476 12.6962H35.8865L36.3112 19.1021H35.3332ZM32.6025 23.9148H35.0166L35.2457 20.5125H36.409L36.638 23.9148H39.0521L37.7653 11.1057H33.8894L32.6025 23.9148Z" fill="#18191B"/>
<path d="M49.6169 18.1498V12.6962H50.2655C50.5229 12.6962 50.7262 12.933 50.7262 13.3345V17.5116C50.7262 17.9156 50.5332 18.1498 50.2655 18.1498H49.6169ZM47.1514 23.9174H49.6169V19.5602H51.0273C52.7542 19.5602 53.0296 18.1704 53.0296 17.2722V13.3937C53.0296 12.4981 52.7542 11.1057 51.0273 11.1057H47.1514V23.9174Z" fill="#18191B"/>
<path d="M60.7451 23.9148L59.5509 19.1947C60.1763 18.7186 60.3024 17.8822 60.3024 17.2722V13.3937C60.3024 12.4981 60.0296 11.1057 58.3027 11.1057H54.4268V23.9148H56.8923V19.5628H57.299L58.1045 23.9148H60.7451ZM56.8846 12.6962H57.5332C57.7905 12.6962 57.9913 12.933 57.9913 13.3345V17.5116C57.9913 17.9156 57.7983 18.1498 57.5332 18.1498H56.8846V12.6962Z" fill="#18191B"/>
<path d="M75.6032 11.1077H78.8125V23.9168H76.3418V15.8818H76.2569L74.9855 23.9168H73.014L71.7452 15.8818H71.6552V23.9168H69.187V11.1077H72.3938L73.9972 20.1103L75.6032 11.1077Z" fill="#18191B"/>
<path d="M65.7899 11.0955H63.731C62.0041 11.0955 61.9011 12.4878 61.9011 13.3834V21.6192C61.9011 22.5174 62.0041 23.9072 63.731 23.9072H65.7899C67.5169 23.9072 67.6224 22.5174 67.6224 21.6192V13.3834C67.6224 12.4878 67.5169 11.0955 65.7899 11.0955ZM64.7605 22.3218C64.6903 22.326 64.62 22.3158 64.554 22.2918C64.4879 22.2679 64.4275 22.2306 64.3764 22.1824C64.3252 22.1342 64.2845 22.076 64.2568 22.0114C64.229 21.9469 64.2147 21.8773 64.2148 21.807V13.1544C64.2366 13.0261 64.303 12.9096 64.4024 12.8256C64.5018 12.7416 64.6278 12.6955 64.7579 12.6955C64.888 12.6955 65.014 12.7416 65.1134 12.8256C65.2128 12.9096 65.2792 13.0261 65.3009 13.1544V21.8302C65.3011 21.9005 65.2868 21.97 65.259 22.0346C65.2312 22.0991 65.1905 22.1573 65.1394 22.2056C65.0883 22.2538 65.0279 22.291 64.9618 22.315C64.8957 22.339 64.8255 22.3492 64.7553 22.3449" fill="#18191B"/>
<path d="M28.9401 15.1772H31.2564V13.3937C31.2564 12.4981 31.1509 11.1057 29.424 11.1057H27.365C25.6381 11.1057 25.5352 12.4981 25.5352 13.3937V21.6294C25.5352 22.5276 25.6381 23.92 27.365 23.92H29.424C31.1509 23.92 31.2564 22.5276 31.2564 21.6294V17.5991H28.2838V19.0429H28.9298V21.8224C28.9298 21.9672 28.8723 22.1059 28.77 22.2083C28.6677 22.3106 28.5289 22.3681 28.3842 22.3681C28.2395 22.3681 28.1007 22.3106 27.9984 22.2083C27.8961 22.1059 27.8386 21.9672 27.8386 21.8224V13.1543C27.8603 13.026 27.9267 12.9096 28.0262 12.8256C28.1256 12.7416 28.2515 12.6955 28.3816 12.6955C28.5118 12.6955 28.6377 12.7416 28.7371 12.8256C28.8365 12.9096 28.903 13.026 28.9247 13.1543V15.185L28.9401 15.1772Z" fill="#18191B"/>
<path d="M78.8129 28.1868H25.5381V36.7288H78.8129V28.1868ZM31.3082 35.1357H30.006L28.8452 31.7436C28.907 32.3355 29.0717 33.2183 29.0717 33.8179V35.1357H27.7849V29.5688H29.0872L30.2324 33.069C30.1938 32.4488 30.0214 31.5711 30.0214 30.9586V29.5688H31.3082V35.1357ZM46.516 30.6189H44.7325V31.7127H46.3281V32.7679H44.7325V34.0805H46.516V35.1357H43.3839V29.5688H46.516V30.6189ZM61.5282 30.6189H59.7446V31.7127H61.3429V32.7679H59.7446V35.1357H58.396V29.5688H61.5282V30.6189ZM76.5764 30.6189H75.5855V35.1357H74.3528V30.624H73.2924V29.5688H76.5816L76.5764 30.6189Z" fill="#18191B"/>
<path d="M20.5138 6.62718C19.7417 3.21965 17.7883 0.450391 17.5206 0C17.096 0.635695 15.5389 3.0884 14.7514 5.79332C13.9599 8.50202 13.7244 11.3428 14.059 14.1449C14.3124 15.9797 14.7868 17.7772 15.472 19.4981C16.0166 20.8046 16.7073 22.0453 17.5309 23.1964C18.3802 22.0949 20.3311 18.8212 20.9384 14.5103C21.2782 12.1245 21.291 10.0321 20.5138 6.62718ZM17.5206 22.3497C16.8529 21.0479 16.5003 19.6074 16.4912 18.1443C16.4917 16.6898 16.8506 15.2578 17.5361 13.975C18.1584 15.2134 18.5011 16.5735 18.5398 17.959C18.5787 19.4848 18.2298 20.9955 17.5258 22.3497H17.5206ZM20.295 12.4051C20.2767 13.5777 20.1492 14.746 19.9141 15.8949C19.963 14.2309 19.8196 12.5667 19.4869 10.9355C19.1626 9.3913 18.2438 6.78418 17.5103 5.5797C16.8335 6.72498 15.997 8.97179 15.5595 10.9201C15.122 12.8683 15.1065 15.2335 15.1065 15.9413C14.8403 14.3343 14.7317 12.7051 14.7822 11.077C14.8646 9.58692 15.1018 8.1094 15.49 6.66836C15.9814 4.98622 16.6572 3.36353 17.5052 1.82987C18.3804 3.33295 19.0717 4.93584 19.5641 6.60402C20.0762 8.49707 20.3239 10.4518 20.3002 12.4128" fill="#18191B"/>
<path d="M12.7492 23.9146V27.9449C12.7492 27.9449 12.7492 27.9321 12.7647 27.9269C13.0925 27.5676 13.4898 27.2783 13.9324 27.0766C14.3751 26.8749 14.854 26.765 15.3403 26.7533C15.8266 26.7417 16.3102 26.8287 16.762 27.009C17.2138 27.1893 17.6244 27.4592 17.969 27.8025C18.3137 28.1458 18.5853 28.5553 18.7674 29.0063C18.9495 29.4574 19.0385 29.9406 19.0288 30.427C19.0192 30.9133 18.9111 31.3927 18.7112 31.8361C18.5113 32.2796 18.2237 32.678 17.8657 33.0073L17.8477 33.0253L17.8296 33.0459C16.5595 34.2858 14.8764 35.0133 13.103 35.089C11.3296 35.1646 9.59072 34.5831 8.21958 33.4559C6.84843 32.3287 5.94154 30.7351 5.67274 28.9806C5.40393 27.226 5.79212 25.434 6.76289 23.948C7.02136 23.5639 7.31704 23.2061 7.64566 22.88C8.99951 21.5317 10.8334 20.7763 12.7441 20.7798V11.1724C10.6263 11.178 8.54313 11.71 6.6819 12.7203C4.82066 13.7307 3.23973 15.1878 2.08127 16.9607C0.922813 18.7335 0.223148 20.7665 0.0451945 22.8768C-0.132759 24.9871 0.21658 27.1086 1.0618 29.0504C1.90702 30.9922 3.22161 32.6935 4.88736 34.0013C6.55311 35.3091 8.51779 36.1824 10.6047 36.5426C12.6916 36.9028 14.8354 36.7387 16.8432 36.065C18.8509 35.3913 20.6598 34.2292 22.1071 32.683V23.9146H12.7492Z" fill="#18191B"/>
</svg>
