<svg width="79" height="37" viewBox="0 0 79 37" fill="none" xmlns="http://www.w3.org/2000/svg">
<path fill-rule="evenodd" clip-rule="evenodd" d="M64.707 22.4628C64.7786 22.4649 64.8499 22.4531 64.9169 22.4281C64.9838 22.403 65.0451 22.3653 65.0971 22.3171C65.1491 22.2688 65.1908 22.2109 65.2199 22.1468C65.249 22.0827 65.2649 22.0136 65.2666 21.9434V13.2544V13.2128C65.2413 13.0864 65.1719 12.9725 65.0703 12.8906C64.9687 12.8088 64.8412 12.764 64.7096 12.764C64.578 12.764 64.4505 12.8088 64.349 12.8906C64.2474 12.9725 64.178 13.0864 64.1526 13.2128V21.933V21.9512C64.1547 22.0217 64.171 22.0911 64.2005 22.1554C64.23 22.2197 64.2723 22.2777 64.3248 22.3259C64.3773 22.3742 64.439 22.4118 64.5064 22.4367C64.5738 22.4615 64.6456 22.473 64.7176 22.4706L64.707 22.4628ZM65.7599 11.1717C67.5343 11.1717 67.6457 12.5714 67.6457 13.4751V21.7617C67.6457 22.6654 67.5343 24.0651 65.7599 24.0651H63.6673C61.8982 24.0651 61.7921 22.6654 61.7921 21.7617V13.4673C61.7921 12.5636 61.8982 11.1639 63.6673 11.1639H65.7599V11.1717ZM26.3341 11.1639H31.1612V12.761H28.8617V24.0573H26.3341V11.1639ZM32.8507 11.1639H36.8291L38.1552 24.0573H35.678L35.4446 20.6294H34.2511L34.0123 24.0573H31.5404L32.8507 11.1639ZM35.3438 19.2141L34.8982 12.761H34.7576L34.32 19.2089L35.3438 19.2141ZM41.7702 19.5439V21.972C41.7646 22.026 41.7707 22.0805 41.7881 22.1321C41.8054 22.1836 41.8336 22.231 41.8709 22.2711C41.9082 22.3113 41.9536 22.3434 42.0044 22.3652C42.0551 22.387 42.11 22.3982 42.1654 22.3979C42.2754 22.3925 42.3788 22.3447 42.4528 22.2648C42.5269 22.185 42.5656 22.0797 42.5606 21.972V18.97C42.5606 18.5675 42.489 18.1261 41.5474 18.1261H40.521V16.7082H41.5819C42.3033 16.7082 42.5579 16.5368 42.5579 15.7525V13.1868C42.5604 13.1329 42.5519 13.0789 42.5329 13.0282C42.514 12.9775 42.4849 12.9309 42.4474 12.8913C42.4098 12.8517 42.3647 12.8198 42.3144 12.7974C42.2642 12.775 42.2099 12.7626 42.1548 12.761C42.0996 12.7607 42.045 12.7718 41.9945 12.7935C41.9439 12.8151 41.8986 12.8469 41.8614 12.8868C41.8241 12.9267 41.7958 12.9738 41.7783 13.025C41.7608 13.0762 41.7544 13.1305 41.7596 13.1842V15.2851H39.224V13.4673C39.224 12.5636 39.3354 11.1639 41.1045 11.1639H43.2024C44.9741 11.1639 45.0829 12.5636 45.0829 13.4673V15.5448C45.0829 16.9419 44.1228 17.3262 43.3616 17.2899V17.4223C45.0617 17.3808 45.0829 18.7207 45.0829 19.17V21.7668C45.0829 22.6706 44.9741 24.0703 43.2024 24.0703H41.1045C39.3354 24.0703 39.224 22.6706 39.224 21.7668V19.5543L41.7702 19.5439ZM46.7565 11.1639H52.5914V24.0573H50.2309V12.761H49.0958V24.0573H46.7565V11.1639ZM54.448 11.1639H58.4264C60.1981 11.1639 60.4793 12.5636 60.4793 13.4673V17.3626C60.4793 18.2689 60.1981 19.6712 58.4264 19.6712H56.9809V24.0573H54.4533L54.448 11.1639ZM57.6307 18.2533C57.896 18.2533 58.1028 18.017 58.1028 17.6093V13.4076C58.1028 13.0025 57.9066 12.7635 57.6307 12.7635H56.965V18.2533H57.6307ZM75.7112 11.1639H79V24.0573H76.4618V15.9707H76.3743L75.072 24.0573H73.0483L71.7487 15.9707H71.6612V24.0573H69.1256V11.1639H72.4118L74.0535 20.2243L75.7112 11.1639ZM20.9287 12.4753C20.9519 10.5021 20.6975 8.5351 20.1729 6.62977C19.6629 4.95076 18.9506 3.33714 18.051 1.82299C17.1836 3.36977 16.4926 5.00522 15.9902 6.69989C15.5927 8.15082 15.3492 9.63803 15.2635 11.1379C15.2099 12.7755 15.3218 14.4143 15.5977 16.0304C15.5977 15.3189 15.5977 12.9427 16.0618 10.9821C16.526 9.02148 17.3694 6.75702 18.067 5.60661C18.8229 6.81675 19.7697 9.42918 20.1012 10.9951C20.4419 12.636 20.5887 14.3099 20.5389 15.9837C20.7811 14.8287 20.9125 13.6542 20.9314 12.4753H20.9287ZM18.0829 22.481C18.8086 21.1203 19.1683 19.6009 19.1279 18.0663C19.0855 16.6728 18.7325 15.3052 18.0935 14.0594C17.3852 15.3494 17.0152 16.7913 17.0167 18.2559C17.0267 19.7287 17.3901 21.1787 18.0776 22.4888L18.0829 22.481ZM21.1568 6.66873C21.9525 10.0914 21.9366 12.1974 21.5918 14.5995C20.9659 18.9233 18.9608 22.2291 18.0908 23.3405C17.2406 22.1827 16.5287 20.9332 15.969 19.6167C15.2626 17.8857 14.7737 16.0772 14.5129 14.2308C14.1708 11.4112 14.4135 8.55295 15.2264 5.82734C15.8902 3.76345 16.8483 1.80164 18.0723 0C18.3375 0.451853 20.3506 3.24088 21.1515 6.66873H21.1568ZM22.7906 24.0677V32.897C21.3016 34.4622 19.438 35.6399 17.368 36.3237C15.298 37.0076 13.0867 37.1761 10.9335 36.8142C8.78032 36.4522 6.75305 35.5711 5.03456 34.2503C3.31608 32.9296 1.96043 31.2107 1.08991 29.2489C0.219393 27.287 -0.138606 25.1437 0.0482066 23.0125C0.235019 20.8813 0.960766 18.8292 2.15998 17.0412C3.35919 15.2533 4.99415 13.7857 6.91735 12.771C8.84056 11.7563 10.9915 11.2263 13.1762 11.2288V20.8995C12.2045 20.8979 11.242 21.0837 10.3436 21.4464C9.44529 21.8091 8.62874 22.3416 7.94063 23.0133C7.60202 23.3415 7.29731 23.7017 7.0309 24.0884C6.01448 25.5815 5.60052 27.3909 5.86927 29.1658C6.13802 30.9407 7.07035 32.5547 8.48547 33.6947C9.90059 34.8348 11.6977 35.4198 13.5283 35.3362C15.3589 35.2526 17.0926 34.5064 18.3932 33.2424L18.4171 33.2242L18.4356 33.2086C19.1278 32.5281 19.5155 31.6063 19.5135 30.6459C19.5116 29.6856 19.12 28.7653 18.425 28.0876C17.73 27.4099 16.7886 27.0302 15.8077 27.0322C14.8268 27.0341 13.8869 27.4175 13.1948 28.098C13.1887 28.0963 13.1823 28.0963 13.1762 28.098V24.0573L22.7906 24.0677ZM76.6315 33.3384C76.6315 32.2192 76.1462 31.918 74.8359 31.918H74.6052V29.7574H73.2791V35.3536H74.6052C76.0586 35.3536 76.6262 35.1381 76.6262 33.9097L76.6315 33.3384ZM65.492 29.7548H62.1237V30.8143H63.2005V35.3536H64.4709V30.8039H65.4788L65.492 29.7548ZM55.2225 31.6115C55.2225 30.4689 54.6522 30.1781 53.3155 30.1781V29.7574H52.0185V30.1599C50.6765 30.1599 50.1036 30.4507 50.1036 31.5934V33.3436C50.1036 34.4785 50.7004 34.7849 52.0185 34.7849V35.3536H53.3155V34.8005C54.6416 34.8005 55.2225 34.494 55.2225 33.3592V31.6115ZM43.1202 29.7548H39.9083V35.3536H43.1149V34.2889H41.2875V32.9697H42.9213V31.9076H41.2875V30.8039H43.1149L43.1202 29.7548ZM32.047 29.7548H30.7209V31.9154H30.034V29.7548H28.7078V35.3536H30.034V32.9048H30.7209V35.3536H32.047V29.7548ZM78.992 36.9585H26.3341V28.3421H78.9947L78.992 36.9585ZM51.3953 31.5648C51.3953 31.2376 51.504 31.1545 51.7984 31.1545H52.0132V33.7513H51.7958C51.5014 33.7513 51.3926 33.676 51.3926 33.3462V31.5544L51.3953 31.5648ZM74.9049 32.8866C75.202 32.8866 75.2948 32.9593 75.2948 33.2787V33.9539C75.2948 34.2733 75.202 34.3486 74.9049 34.3486H74.6052V32.8866H74.9049ZM53.5144 31.1441C53.8141 31.1441 53.9202 31.209 53.9202 31.5414V33.341C53.9202 33.6682 53.8141 33.7513 53.5144 33.7513H53.3075V31.1545H53.5144" fill="#18191B"/>
</svg>
