<svg width="36" height="20" viewBox="0 0 36 20" fill="none" xmlns="http://www.w3.org/2000/svg">
<path d="M34 17.9731C33.9714 15.6296 33.4387 13.3849 32.4969 11.3694C31.5587 9.35726 30.2216 7.57031 28.5857 6.11095C27.1556 4.83525 25.4981 3.80715 23.6764 3.09625C21.8547 2.38534 19.8763 1.99818 17.8215 2.00001C15.4753 2.00297 13.2335 2.51049 11.2257 3.42915C9.21787 4.34781 7.44319 5.66378 5.99981 7.28182C4.73806 8.69625 3.72674 10.3406 3.03481 12.1523C2.34288 13.964 1.97685 15.9359 2.00114 17.9882L9.58506 17.9825C9.57573 16.8902 9.76491 15.8641 10.129 14.9157C10.4899 13.9709 11.0221 13.1005 11.687 12.3551C12.4492 11.5007 13.3879 10.8036 14.4374 10.3228C15.4905 9.84536 16.6538 9.57728 17.9033 9.57533C18.9969 9.57794 20.0264 9.77812 20.9801 10.1522C21.93 10.523 22.8074 11.064 23.561 11.7363C24.4249 12.5069 25.1332 13.4521 25.626 14.5056C26.1156 15.5626 26.3968 16.7276 26.4124 17.9756L34 17.9731Z" stroke="#18191B" stroke-width="3"/>
</svg>
