<svg width="46" height="36" viewBox="0 0 46 36" fill="none" xmlns="http://www.w3.org/2000/svg">
<path d="M39.7727 1.38573C39.435 0.948674 38.807 0.868089 38.37 1.20574L31.2478 6.70799C30.8108 7.04564 30.7302 7.67365 31.0678 8.1107C31.4055 8.54776 32.0335 8.62834 32.4705 8.29069L38.8013 3.3998L43.6922 9.73061C44.0299 10.1677 44.6579 10.2482 45.0949 9.9106C45.532 9.57295 45.6126 8.94494 45.2749 8.50789L39.7727 1.38573ZM1 34.5C0.95303 35.4989 0.953655 35.4989 0.954409 35.499C0.954831 35.499 0.955714 35.499 0.956558 35.4991C0.958247 35.4991 0.960448 35.4992 0.963156 35.4993C0.968573 35.4996 0.976022 35.4999 0.985472 35.5003C1.00437 35.501 1.03128 35.502 1.06596 35.503C1.13531 35.5051 1.23574 35.5076 1.36534 35.5093C1.62451 35.5128 2.00048 35.513 2.47781 35.501C3.43217 35.477 4.79354 35.4037 6.43814 35.2073C9.72347 34.815 14.1606 33.9289 18.7472 31.9478C27.9678 27.965 37.7348 19.5691 39.9732 2.12436L37.9895 1.86981C35.8545 18.5083 26.6308 26.3639 17.9541 30.1117C13.592 31.9959 9.35383 32.8449 6.201 33.2214C4.62653 33.4094 3.32811 33.479 2.42746 33.5017C1.97728 33.513 1.62693 33.5126 1.39166 33.5095C1.27404 33.508 1.18523 33.5057 1.12713 33.504C1.09808 33.5031 1.07672 33.5023 1.06328 33.5018C1.05656 33.5015 1.05182 33.5013 1.04909 33.5012C1.04773 33.5011 1.04687 33.5011 1.04651 33.5011C1.04633 33.5011 1.04645 33.5011 1.04636 33.5011C1.0466 33.5011 1.04697 33.5011 1 34.5Z" fill="#0076FF"/>
</svg>
