<svg width="29" height="34" viewBox="0 0 29 34" fill="none" xmlns="http://www.w3.org/2000/svg">
<path d="M23.6325 0.511734C23.3621 0.161496 22.8598 0.0961729 22.5107 0.365834L16.8205 4.76023C16.4713 5.02989 16.4074 5.53242 16.6778 5.88266C16.9482 6.2329 17.4505 6.29822 17.7996 6.02856L22.8576 2.12243L26.7743 7.19576C27.0447 7.546 27.547 7.61132 27.8961 7.34166C28.2453 7.07199 28.3092 6.56946 28.0388 6.21922L23.6325 0.511734ZM0.200195 32.75C0.372967 33.5319 0.373544 33.5318 0.374196 33.5317C0.374511 33.5316 0.375237 33.5314 0.375867 33.5313C0.377129 33.531 0.378685 33.5307 0.380534 33.5303C0.38423 33.5294 0.389096 33.5283 0.395113 33.5269C0.407147 33.5242 0.423789 33.5203 0.444905 33.5152C0.487136 33.505 0.54727 33.49 0.624228 33.4697C0.778131 33.4289 0.9994 33.3666 1.27939 33.278C1.83927 33.1008 2.63462 32.8183 3.59605 32.3923C5.51856 31.5406 8.10902 30.1139 10.8083 27.8076C16.2219 23.1823 22.0191 15.0644 23.7935 1.10317L22.207 0.896832C20.4826 14.4644 14.8799 22.2214 9.76805 26.5889C7.20471 28.7791 4.75117 30.1282 2.94534 30.9283C2.04261 31.3282 1.30271 31.5905 0.793377 31.7517C0.538761 31.8323 0.341937 31.8875 0.211397 31.9221C0.146133 31.9393 0.0974588 31.9514 0.0664364 31.9589C0.0509259 31.9626 0.0398307 31.9652 0.0332836 31.9667C0.0300101 31.9675 0.027874 31.968 0.0268918 31.9682C0.0264007 31.9683 0.0261981 31.9683 0.0262861 31.9683C0.0263298 31.9683 0.026615 31.9682 0.0266364 31.9682C0.0269935 31.9682 0.0274241 31.9681 0.200195 32.75Z" fill="#0076FF"/>
</svg>
