<svg width="504" height="424" viewBox="0 0 504 424" fill="none" xmlns="http://www.w3.org/2000/svg">
<rect width="504" height="424"  fill="transparent"/>
<rect x="134.135" y="210.135" width="192.163" fill="transparent" height="188.961" stroke="#18191B" stroke-width="4"/>
<path fill-rule="evenodd" clip-rule="evenodd" fill="transparent" d="M273 210C328.781 210 374 164.781 374 109C374 53.2192 328.781 8 273 8C217.219 8 172 53.2192 172 109C172 164.781 217.219 210 273 210Z" stroke="#18191B" stroke-width="4"/>
<path d="M32.0275 2.54625C25.0191 9.86722 20.8004 19.4769 20.2499 29.8595C19.0075 53.296 36.775 73.2953 59.9411 74.5234L60.047 72.5262C37.9893 71.3568 21.0629 52.3043 22.2471 29.9654C22.772 20.0648 26.7923 10.9071 33.4722 3.92929L32.0275 2.54625Z" fill="#18191B"/>
<path d="M386 212.184L382.058 209L353 244.816L356.942 248L386 212.184Z" fill="#18191B"/>
<path d="M89.4854 418.442L81.857 400.396L99.8804 392.714L98.7781 389.976L77.9936 398.835L86.7906 419.646L89.4854 418.442Z" fill="#18191B"/>
</svg>
