<svg width="456" height="589" viewBox="0 0 456 589" fill="none" xmlns="http://www.w3.org/2000/svg">
<rect width="456" height="588" fill="white"/>
<path fill-rule="evenodd" clip-rule="evenodd" d="M236 180L354 365H118L236 180Z" stroke="#18191B" stroke-width="4"/>
<rect x="146" y="2" width="180" height="177" stroke="#18191B" stroke-width="4"/>
<path fill-rule="evenodd" clip-rule="evenodd" d="M235.5 586C295.423 586 344 537.423 344 477.5C344 417.577 295.423 369 235.5 369C175.577 369 127 417.577 127 477.5C127 537.423 175.577 586 235.5 586Z" stroke="#18191B" stroke-width="4"/>
<path d="M352.602 391.685C360.283 398.296 370.103 402 380.5 402C403.969 402 423 383.199 423 360H421C421 382.089 402.87 400 380.5 400C370.586 400 361.228 396.47 353.906 390.169L352.602 391.685Z" fill="#18191B"/>
<path d="M304 199.184L300.058 196L271 231.816L274.942 235L304 199.184Z" fill="#18191B"/>
<path d="M105.147 209.236L97.5187 191.19L115.542 183.507L114.44 180.77L93.6553 189.629L102.452 210.439L105.147 209.236Z" fill="#18191B"/>
</svg>
