<svg width="359" height="483" viewBox="0 0 359 483" fill="none" xmlns="http://www.w3.org/2000/svg">
<path fill-rule="evenodd" clip-rule="evenodd" d="M164.98 137.214L260.23 287.057H69.7312L164.98 137.214ZM77.8306 282.609H252.13L164.98 145.507L77.8306 282.609Z" fill="#18191B"/>
<path fill-rule="evenodd" clip-rule="evenodd" d="M89.8192 442.634L89.822 442.637C102.215 454.597 116.871 463.817 132.782 469.834C146.693 475.095 161.558 477.926 176.725 478.005C191.886 478.084 207.284 475.384 222.158 469.653C239.144 463.101 253.952 453.193 265.916 440.973C277.892 428.74 287.072 414.285 293.015 398.568C298.212 384.826 300.957 370.119 300.926 355.091C300.897 341.458 298.562 327.609 293.731 314.108L245.124 332.829C247.51 340.123 248.668 347.48 248.671 354.794C248.688 363.461 247.108 372.056 244.08 380.063C240.611 389.235 235.25 397.691 228.333 404.762L228.327 404.769L228.321 404.775C221.368 411.828 212.887 417.545 202.922 421.392L202.914 421.396L202.906 421.399C194.19 424.724 185.348 426.291 176.563 426.231C167.838 426.185 159.178 424.557 151.101 421.502C141.847 418.003 133.297 412.634 126.127 405.733L126.121 405.727L126.115 405.721C119.953 399.744 114.778 392.648 110.935 384.46L62.3102 403.164C68.9878 418.33 78.4286 431.66 89.8192 442.634ZM58.1535 404.762C65.072 420.545 74.8815 434.42 86.7326 445.838C99.5639 458.221 114.738 467.767 131.208 473.995C145.606 479.44 160.996 482.372 176.702 482.454C192.409 482.535 208.358 479.738 223.759 473.804C241.342 467.022 256.688 456.758 269.095 444.085C281.502 431.412 291.016 416.432 297.177 400.142C302.561 385.902 305.406 370.659 305.374 355.082C305.345 340.911 302.912 326.523 297.884 312.509C297.708 312.018 297.528 311.527 297.346 311.037C297.011 310.139 296.666 309.242 296.31 308.348L239.465 330.242V330.242C239.603 330.591 239.738 330.942 239.869 331.292C242.811 339.11 244.22 346.993 244.222 354.803C244.239 362.926 242.756 370.985 239.919 378.49C236.665 387.093 231.636 395.023 225.153 401.652C218.633 408.266 210.682 413.628 201.32 417.242C193.113 420.373 184.817 421.839 176.589 421.782C168.398 421.739 160.262 420.21 152.674 417.341C143.976 414.052 135.943 409.006 129.212 402.528C122.496 396.013 117.031 388.088 113.319 378.776L56.4363 400.656C56.987 402.039 57.5596 403.408 58.1535 404.762Z" fill="#18191B"/>
<path d="M108.259 2.33691H248.395V139.136H108.259V2.33691Z" stroke="#18191B" stroke-width="4.44876"/>
<path fill-rule="evenodd" clip-rule="evenodd" d="M139.7 292.698C173.736 272.421 217.766 283.576 238.043 317.612C258.32 351.649 247.166 395.679 213.129 415.956C179.093 436.233 135.063 425.079 114.786 391.042C94.5085 357.005 105.663 312.975 139.7 292.698ZM234.221 319.889C215.202 287.963 173.902 277.501 141.976 296.52C110.051 315.54 99.588 356.839 118.608 388.765C137.627 420.691 178.927 431.154 210.852 412.134C242.778 393.114 253.241 351.815 234.221 319.889Z" fill="#18191B"/>
<path d="M346.871 341.4C353.963 332.639 357.751 321.598 357.402 310.04C356.615 283.949 335.075 263.424 309.286 264.203L309.353 266.426C333.908 265.685 354.428 285.238 355.179 310.107C355.512 321.129 351.901 331.65 345.142 340.001L346.871 341.4Z" fill="#18191B"/>
<path d="M239.497 166.034L235.113 162.492L202.795 202.326L207.179 205.868L239.497 166.034Z" fill="#18191B"/>
<path d="M19.4472 111.594L10.963 91.5229L31.0084 82.9788L29.7824 79.9339L6.66613 89.7869L16.4501 112.932L19.4472 111.594Z" fill="#18191B"/>
</svg>
