<svg width="400" height="384" viewBox="0 0 400 384" fill="none" xmlns="http://www.w3.org/2000/svg">
<rect width="400" height="384"/>
<path fill-rule="evenodd" clip-rule="evenodd" d="M91.481 333.346L91.4838 333.349C103.876 345.309 118.533 354.53 134.443 360.546C148.355 365.807 163.22 368.639 178.387 368.718C193.548 368.796 208.946 366.096 223.82 360.366C240.805 353.814 255.614 343.905 267.578 331.685C279.554 319.453 288.734 304.997 294.677 289.281C299.874 275.538 302.618 260.832 302.587 245.803C302.559 232.17 300.224 218.322 295.393 204.821L246.786 223.542C249.172 230.836 250.33 238.193 250.333 245.506C250.35 254.174 248.77 262.769 245.742 270.776C242.273 279.947 236.912 288.403 229.995 295.475L229.989 295.481L229.983 295.487C223.029 302.541 214.549 308.258 204.584 312.105L204.576 312.108L204.567 312.111C195.852 315.436 187.01 317.003 178.224 316.943C169.5 316.897 160.84 315.269 152.762 312.215C143.509 308.715 134.959 303.347 127.789 296.445L127.783 296.439L127.777 296.433C121.615 290.457 116.44 283.361 112.597 275.172L63.972 293.876C70.6497 309.042 80.0905 322.372 91.481 333.346ZM59.8153 295.475C66.7338 311.257 76.5433 325.132 88.3944 336.55C101.226 348.934 116.399 358.479 132.87 364.708C147.268 370.152 162.658 373.085 178.364 373.166C194.071 373.248 210.02 370.45 225.421 364.516C243.004 357.734 258.35 347.47 270.757 334.797C283.164 322.125 292.678 307.145 298.838 290.854C304.223 276.614 307.068 261.371 307.036 245.794C307.007 231.623 304.574 217.236 299.546 203.221C299.37 202.73 299.19 202.24 299.008 201.75C298.673 200.851 298.328 199.955 297.972 199.06L241.127 220.954V220.954C241.265 221.304 241.399 221.654 241.531 222.004C244.473 229.823 245.882 237.705 245.884 245.515C245.9 253.639 244.418 261.698 241.58 269.202C238.327 277.805 233.298 285.736 226.815 292.364C220.294 298.978 212.344 304.34 202.982 307.955C194.775 311.086 186.479 312.551 178.251 312.494C170.06 312.451 161.923 310.923 154.336 308.054C145.638 304.764 137.605 299.718 130.874 293.24C124.158 286.725 118.693 278.801 114.98 269.489L58.0981 291.369C58.6489 292.751 59.2214 294.12 59.8153 295.475Z" fill="#18191B"/>
<path fill-rule="evenodd" clip-rule="evenodd" d="M114.849 23.1553L257.571 46.2866L234.974 185.715L92.2515 162.584L114.849 23.1553ZM118.529 28.2585L97.3547 158.904L231.294 180.612L252.468 49.9664L118.529 28.2585Z" fill="#18191B"/>
<path fill-rule="evenodd" clip-rule="evenodd" d="M141.361 183.411C175.398 163.133 219.428 174.288 239.705 208.324C259.982 242.361 248.827 286.391 214.791 306.668C180.754 326.945 136.724 315.791 116.447 281.754C96.1701 247.718 107.324 203.688 141.361 183.411ZM235.883 210.601C216.863 178.675 175.564 168.213 143.638 187.232C111.712 206.252 101.249 247.551 120.269 279.477C139.289 311.403 180.588 321.866 212.514 302.846C244.44 283.827 254.902 242.527 235.883 210.601Z" fill="#18191B"/>
<path d="M348.533 232.113C355.625 223.351 359.413 212.311 359.064 200.752C358.277 174.662 336.737 154.137 310.947 154.915L311.014 157.138C335.57 156.397 356.09 175.951 356.841 200.819C357.173 211.841 353.563 222.362 346.804 230.713L348.533 232.113Z" fill="#18191B"/>
<path d="M70.6672 218.536L67.1108 222.908L106.834 255.362L110.39 250.99L70.6672 218.536Z" fill="#18191B"/>
<path d="M41.1102 32.3064L32.6259 12.2355L52.6714 3.69141L51.4454 0.646484L28.3291 10.4995L38.1131 33.6451L41.1102 32.3064Z" fill="#18191B"/>
</svg>
