<svg width="20" height="20" viewBox="0 0 20 20" fill="none" xmlns="http://www.w3.org/2000/svg">
<path d="M0.725181 14.671C0.518332 15.0083 0.286024 15.3997 0.0887207 15.7116C0.00382723 15.8551 -0.0213954 16.0261 0.018474 16.1879C0.0583434 16.3498 0.160122 16.4896 0.301935 16.5772L4.43893 19.123C4.51082 19.1674 4.59083 19.197 4.67428 19.2102C4.75774 19.2233 4.84298 19.2197 4.92503 19.1996C5.00708 19.1794 5.0843 19.1432 5.15219 19.0929C5.22007 19.0426 5.27726 18.9793 5.32043 18.9066C5.48591 18.6298 5.69912 18.2702 5.93143 17.8851C7.57032 15.1801 9.21875 15.5111 12.191 16.9304L16.293 18.8812C16.3699 18.9178 16.4534 18.9386 16.5384 18.9423C16.6235 18.9461 16.7085 18.9327 16.7883 18.9031C16.8681 18.8734 16.9412 18.828 17.0032 18.7696C17.0651 18.7111 17.1147 18.6409 17.149 18.5629L19.1189 14.1077C19.1858 13.9548 19.1899 13.7817 19.1304 13.6257C19.0709 13.4698 18.9525 13.3434 18.8007 13.2739C17.9351 12.8666 16.2135 12.0551 14.6637 11.3073C9.08827 8.59914 4.34983 8.77417 0.725181 14.671Z" fill="url(#paint0_linear)"/>
<path d="M19.2747 4.56061C19.4816 4.22329 19.7139 3.83187 19.9112 3.52C19.9961 3.37654 20.0213 3.2055 19.9814 3.04364C19.9416 2.88179 19.8398 2.74203 19.698 2.65441L15.561 0.108572C15.4885 0.0597908 15.4069 0.026435 15.321 0.0105797C15.2351 -0.00527569 15.1469 -0.00329134 15.0618 0.0164092C14.9768 0.0361097 14.8967 0.0731051 14.8265 0.125094C14.7563 0.177082 14.6976 0.242951 14.654 0.318604C14.4885 0.595464 14.2753 0.955065 14.043 1.34012C12.4041 4.04508 10.7557 3.71412 7.78342 2.29481L3.69416 0.353609C3.61727 0.317009 3.53381 0.296213 3.44873 0.292453C3.36365 0.288694 3.27868 0.302046 3.19886 0.331721C3.11903 0.361396 3.04597 0.406789 2.98401 0.465211C2.92205 0.523633 2.87244 0.593897 2.83812 0.67184L0.868278 5.12707C0.801384 5.28001 0.797256 5.45311 0.856781 5.60907C0.916307 5.76502 1.03472 5.89135 1.18651 5.96083C2.0521 6.36816 3.77372 7.17965 5.3235 7.92749C10.9116 10.6325 15.6501 10.4511 19.2747 4.56061Z" fill="url(#paint1_linear)"/>
<defs>
<linearGradient id="paint0_linear" x1="19.0075" y1="20.4373" x2="6.49151" y2="13.2453" gradientUnits="userSpaceOnUse">
<stop offset="0.18" stop-color="#0052CC"/>
<stop offset="1" stop-color="#2684FF"/>
</linearGradient>
<linearGradient id="paint1_linear" x1="-5277.96" y1="15013" x2="-4844.63" y2="15510.3" gradientUnits="userSpaceOnUse">
<stop offset="0.18" stop-color="#0052CC"/>
<stop offset="1" stop-color="#2684FF"/>
</linearGradient>
</defs>
</svg>
