<svg width="19" height="20" viewBox="0 0 19 20" fill="none" xmlns="http://www.w3.org/2000/svg">
<path d="M18.7725 9.2725L10.3194 0.819382L9.5 0L3.13682 6.36318L0.227498 9.2725C0.0818237 9.41836 0 9.61607 0 9.82222C0 10.0284 0.0818237 10.2261 0.227498 10.3719L6.04096 16.1854L9.5 19.6444L15.8632 13.2813L15.9617 13.1827L18.7725 10.3719C18.9182 10.2261 19 10.0284 19 9.82222C19 9.61607 18.9182 9.41836 18.7725 9.2725ZM9.5 12.7264L6.59586 9.82222L9.5 6.91808L12.4041 9.82222L9.5 12.7264Z" fill="#2684FF"/>
<path d="M9.49968 6.91793C8.58629 6.00443 8.07143 4.76664 8.06755 3.47484C8.06366 2.18304 8.57105 0.942173 9.47893 0.0231934L3.12354 6.376L6.58257 9.83504L9.49968 6.91793Z" fill="url(#paint0_linear)"/>
<path d="M12.4119 9.81436L9.5 12.7263C9.95442 13.1804 10.3149 13.7197 10.5608 14.3132C10.8068 14.9067 10.9334 15.5429 10.9334 16.1853C10.9334 16.8278 10.8068 17.4639 10.5608 18.0575C10.3149 18.651 9.95442 19.1902 9.5 19.6444L15.871 13.2734L12.4119 9.81436Z" fill="url(#paint1_linear)"/>
<defs>
<linearGradient id="paint0_linear" x1="8.98108" y1="3.98008" x2="4.92566" y2="8.03551" gradientUnits="userSpaceOnUse">
<stop offset="0.18" stop-color="#0052CC"/>
<stop offset="1" stop-color="#2684FF"/>
</linearGradient>
<linearGradient id="paint1_linear" x1="256.566" y1="602.366" x2="396.632" y2="511.588" gradientUnits="userSpaceOnUse">
<stop offset="0.18" stop-color="#0052CC"/>
<stop offset="1" stop-color="#2684FF"/>
</linearGradient>
</defs>
</svg>
