<svg width="20" height="20" viewBox="0 0 20 20" fill="none" xmlns="http://www.w3.org/2000/svg">
<path d="M4.15993 12.5123C4.15993 13.6571 3.22476 14.5922 2.07997 14.5922C0.935179 14.5922 0 13.6571 0 12.5123C0 11.3675 0.935179 10.4323 2.07997 10.4323H4.15993V12.5123Z" fill="#E01E5A"/>
<path d="M5.20776 12.5119C5.20776 11.3671 6.14294 10.4319 7.28773 10.4319C8.43252 10.4319 9.3677 11.3671 9.3677 12.5119V17.7199C9.3677 18.8647 8.43252 19.7999 7.28773 19.7999C6.14294 19.7999 5.20776 18.8647 5.20776 17.7199V12.5119Z" fill="#E01E5A"/>
<path d="M7.28773 4.16C6.14294 4.16 5.20776 3.22482 5.20776 2.08003C5.20776 0.93524 6.14294 6.10352e-05 7.28773 6.10352e-05C8.43252 6.10352e-05 9.3677 0.93524 9.3677 2.08003V4.16H7.28773Z" fill="#36C5F0"/>
<path d="M7.28795 5.20795C8.43273 5.20795 9.36791 6.14313 9.36791 7.28791C9.36791 8.4327 8.43273 9.36788 7.28795 9.36788H2.07997C0.935179 9.36788 0 8.4327 0 7.28791C0 6.14313 0.935179 5.20795 2.07997 5.20795H7.28795Z" fill="#36C5F0"/>
<path d="M15.6404 7.28798C15.6404 6.14319 16.5756 5.20801 17.7203 5.20801C18.8651 5.20801 19.8003 6.14319 19.8003 7.28798C19.8003 8.43276 18.8651 9.36794 17.7203 9.36794H15.6404V7.28798Z" fill="#2EB67D"/>
<path d="M14.5923 7.28801C14.5923 8.4328 13.6571 9.36797 12.5123 9.36797C11.3676 9.36797 10.4324 8.4328 10.4324 7.28801V2.08003C10.4324 0.93524 11.3676 6.10352e-05 12.5123 6.10352e-05C13.6571 6.10352e-05 14.5923 0.93524 14.5923 2.08003V7.28801Z" fill="#2EB67D"/>
<path d="M12.5126 15.6398C13.6574 15.6398 14.5926 16.575 14.5926 17.7198C14.5926 18.8646 13.6574 19.7997 12.5126 19.7997C11.3678 19.7997 10.4326 18.8646 10.4326 17.7198V15.6398H12.5126Z" fill="#ECB22E"/>
<path d="M12.5123 14.592C11.3676 14.592 10.4324 13.6568 10.4324 12.512C10.4324 11.3672 11.3676 10.432 12.5123 10.432H17.7203C18.8651 10.432 19.8003 11.3672 19.8003 12.512C19.8003 13.6568 18.8651 14.592 17.7203 14.592H12.5123Z" fill="#ECB22E"/>
</svg>
