<svg width="1360" height="296" viewBox="0 0 1360 296" fill="none" xmlns="http://www.w3.org/2000/svg">
<path d="M568 288.304C573.089 283.415 581.481 291.144 586.085 286.461C591.367 281.088 581.913 268.562 588.856 262.319C594.363 257.368 602.964 264.976 608.817 259.606C613.327 255.468 602.279 240.601 611.673 237.412" stroke="#41CE7F" stroke-width="4"/>
<path d="M-123 178C261 261 526 91 831 152C1223.97 230.594 1402 94 1475 2" stroke="#0254D8" stroke-width="3" stroke-linecap="round" stroke-linejoin="round" stroke-dasharray="15 15"/>
<circle cx="697" cy="139" r="18.5" fill="#F45B53" stroke="white" stroke-width="13"/>
<path d="M-127 150C166 215 442 69 769 158C1060.98 237.47 1325 215 1543 87" stroke="#41CE7F" stroke-width="2" stroke-linecap="round" stroke-linejoin="round"/>
<circle cx="697" cy="139" r="14" fill="#F45B53" stroke="white" stroke-width="4"/>
<circle cx="176" cy="199" r="13" fill="#FFC045" stroke="white" stroke-width="10"/>
<circle cx="1208" cy="158" r="21" fill="#41CE7F" stroke="white" stroke-width="10"/>
<path d="M766 238C749.431 238 736 224.569 736 208" stroke="#FFC045" stroke-width="4"/>
</svg>
