<svg width="1920" height="351" viewBox="0 0 1920 351" fill="none" xmlns="http://www.w3.org/2000/svg">
<path d="M842 343.304C847.089 338.415 855.481 346.144 860.085 341.461C865.367 336.088 855.913 323.562 862.856 317.319C868.363 312.368 876.964 319.976 882.817 314.606C887.327 310.468 876.279 295.601 885.673 292.412" stroke="#41CE7F" stroke-width="4"/>
<path d="M-105 234.231C402.995 343.75 753.564 119.435 1157.05 199.924C1676.92 303.629 1912.43 123.394 2009 2" stroke="#0254D8" stroke-width="3" stroke-linecap="round" stroke-linejoin="round" stroke-dasharray="15 15"/>
<circle cx="961" cy="182" r="18.5" fill="#F45B53" stroke="white" stroke-width="13"/>
<path d="M-110 197.281C277.567 283.205 642.647 90.2055 1075.19 207.856C1461.41 312.908 1810.64 283.205 2099 114" stroke="#41CE7F" stroke-width="2" stroke-linecap="round" stroke-linejoin="round"/>
<circle cx="961" cy="182" r="14" fill="#F45B53" stroke="white" stroke-width="4"/>
<circle cx="257" cy="264" r="13" fill="#FFC045" stroke="white" stroke-width="10"/>
<circle cx="1644" cy="212" r="21" fill="#41CE7F" stroke="white" stroke-width="10"/>
<path d="M1040 293C1023.43 293 1010 279.569 1010 263" stroke="#FFC045" stroke-width="4"/>
</svg>
