<svg width="1280" height="296" viewBox="0 0 1280 296" fill="none" xmlns="http://www.w3.org/2000/svg">
<path d="M513 288.304C518.089 283.415 526.481 291.144 531.085 286.461C536.367 281.088 526.913 268.562 533.856 262.319C539.363 257.368 547.964 264.976 553.817 259.606C558.327 255.468 547.279 240.601 556.673 237.412" stroke="#41CE7F" stroke-width="4"/>
<path d="M-178 178C206 261 471 91 776 152C1168.97 230.594 1347 94 1420 2" stroke="#0254D8" stroke-width="3" stroke-linecap="round" stroke-linejoin="round" stroke-dasharray="15 15"/>
<circle cx="642" cy="139" r="18.5" fill="#F45B53" stroke="white" stroke-width="13"/>
<path d="M-182 150C111 215 387 69 714 158C1005.98 237.47 1270 215 1488 87" stroke="#41CE7F" stroke-width="2" stroke-linecap="round" stroke-linejoin="round"/>
<circle cx="642" cy="139" r="14" fill="#F45B53" stroke="white" stroke-width="4"/>
<circle cx="121" cy="199" r="13" fill="#FFC045" stroke="white" stroke-width="10"/>
<circle cx="1153" cy="158" r="21" fill="#41CE7F" stroke="white" stroke-width="10"/>
<path d="M711 238C694.431 238 681 224.569 681 208" stroke="#FFC045" stroke-width="4"/>
</svg>
