<svg width="360" height="145" viewBox="0 0 360 145" fill="none" xmlns="http://www.w3.org/2000/svg">
<path d="M106.946 139.913C109.747 137.222 114.366 141.476 116.9 138.898C119.807 135.941 114.604 129.047 118.425 125.611C121.456 122.886 126.19 127.073 129.411 124.118C131.894 121.84 125.813 113.658 130.983 111.903" stroke="#41CE7F" stroke-width="4"/>
<path d="M-111 67.3427C33.6608 98.1577 133.492 35.0426 248.392 57.6897C396.433 86.8691 463.499 36.1564 491 2" stroke="#0254D8" stroke-width="3" stroke-linecap="round" stroke-linejoin="round" stroke-dasharray="15 15"/>
<circle cx="187.341" cy="52.1338" r="12" fill="#F45B53" stroke="white" stroke-width="14"/>
<circle cx="307.885" cy="65.8892" r="10.5" fill="#41CE7F" stroke="white" stroke-width="6"/>
<path d="M-113 44.0001C-2.64252 68.3916 104.06 18.3953 224.475 60.6429C311 91 423.891 114.533 506 66.5001" stroke="#41CE7F" stroke-width="2" stroke-linecap="round" stroke-linejoin="round"/>
<circle cx="187.341" cy="52.1338" r="7" fill="#F45B53" stroke="white" stroke-width="4"/>
<circle cx="40" cy="72" r="8" fill="#FFC045" stroke="white" stroke-width="8"/>
<path d="M215.922 112.226C206.803 112.226 199.411 104.834 199.411 95.7148" stroke="#FFC045" stroke-width="4"/>
</svg>
