<svg width="1024" height="233" viewBox="0 0 1024 233" fill="none" xmlns="http://www.w3.org/2000/svg">
<path d="M415.012 226.929C419.01 223.088 425.603 229.16 429.22 225.481C433.37 221.26 425.942 211.419 431.397 206.514C435.723 202.624 442.481 208.601 447.079 204.383C450.622 201.132 441.943 189.452 449.323 186.947" stroke="#41CE7F" stroke-width="4"/>
<path d="M-127.857 140.271C173.824 205.478 382.016 71.921 621.632 119.844C930.364 181.59 1070.23 74.2778 1127.58 2" stroke="#0254D8" stroke-width="3" stroke-linecap="round" stroke-linejoin="round" stroke-dasharray="15 15"/>
<circle cx="516.358" cy="109.631" r="16.9275" fill="#F45B53" stroke="white" stroke-width="15"/>
<path d="M-131 118.273C99.1892 169.339 316.023 54.637 572.923 124.558C802.314 186.992 1009.73 169.339 1181 68.7783" stroke="#41CE7F" stroke-width="2" stroke-linecap="round" stroke-linejoin="round"/>
<circle cx="516.358" cy="109.631" r="11.4275" fill="#F45B53" stroke="white" stroke-width="4"/>
<circle cx="107.046" cy="156.769" r="11.285" fill="#FFC045" stroke="white" stroke-width="10"/>
<circle cx="917.814" cy="124.558" r="17.5701" fill="#41CE7F" stroke="white" stroke-width="10"/>
<path d="M570.566 187.408C557.55 187.408 546.998 176.856 546.998 163.839" stroke="#FFC045" stroke-width="4"/>
</svg>
