<svg width="66" height="64" viewBox="0 0 66 64" fill="none" xmlns="http://www.w3.org/2000/svg">
<path fill-rule="evenodd" clip-rule="evenodd" d="M9.23525 46L18.9444 40.7986L17.0555 37.2727L0.764648 46L33 63.2689L65.2353 46L48.9444 37.2727L47.0555 40.7986L56.7646 46L33 58.731L9.23525 46Z" fill="#162929"/>
<path fill-rule="evenodd" clip-rule="evenodd" d="M56.7646 32L46.0555 26.263L47.9444 22.7371L65.2353 32L33 49.2689L0.764648 32L17.0555 23.2728L18.9444 26.7987L9.23525 32L33 44.7311L56.7646 32Z" fill="#0054D7"/>
<path fill-rule="evenodd" clip-rule="evenodd" d="M33 0.731201L65.2352 18.0001L33 35.269L0.764648 18.0001L33 0.731201ZM9.23525 18.0001L33 30.7312L56.7646 18.0001L33 5.26902L9.23525 18.0001Z" fill="#162929"/>
</svg>
