<svg width="64" height="64" viewBox="0 0 64 64" fill="none" xmlns="http://www.w3.org/2000/svg">
<mask id="mask0" mask-type="alpha" maskUnits="userSpaceOnUse" x="0" y="0" width="64" height="64">
<path d="M0 0H64V64H0V0Z" fill="white"/>
</mask>
<g mask="url(#mask0)">
<path fill-rule="evenodd" clip-rule="evenodd" d="M32 18.7312L64.2352 36.0001L32 53.269L-0.235352 36.0001L32 18.7312ZM8.23525 36.0001L32 48.7312L55.7646 36.0001L32 23.269L8.23525 36.0001Z" fill="#162929"/>
<path d="M44 17C44 23.6274 38.6274 29 32 29C25.3726 29 20 23.6274 20 17C20 10.3726 25.3726 5 32 5C38.6274 5 44 10.3726 44 17Z" fill="white"/>
<path fill-rule="evenodd" clip-rule="evenodd" d="M32 25C36.4183 25 40 21.4183 40 17C40 12.5817 36.4183 9 32 9C27.5817 9 24 12.5817 24 17C24 21.4183 27.5817 25 32 25ZM32 29C38.6274 29 44 23.6274 44 17C44 10.3726 38.6274 5 32 5C25.3726 5 20 10.3726 20 17C20 23.6274 25.3726 29 32 29Z" fill="#0054D7"/>
<path d="M39 51C39 54.866 35.866 58 32 58C28.134 58 25 54.866 25 51C25 47.134 28.134 44 32 44C35.866 44 39 47.134 39 51Z" fill="white"/>
<path fill-rule="evenodd" clip-rule="evenodd" d="M32 54C33.6569 54 35 52.6569 35 51C35 49.3431 33.6569 48 32 48C30.3431 48 29 49.3431 29 51C29 52.6569 30.3431 54 32 54ZM32 58C35.866 58 39 54.866 39 51C39 47.134 35.866 44 32 44C28.134 44 25 47.134 25 51C25 54.866 28.134 58 32 58Z" fill="#0054D7"/>
<path d="M64 36C64 39.866 60.866 43 57 43C53.134 43 50 39.866 50 36C50 32.134 53.134 29 57 29C60.866 29 64 32.134 64 36Z" fill="white"/>
<path fill-rule="evenodd" clip-rule="evenodd" d="M57 39C58.6569 39 60 37.6569 60 36C60 34.3431 58.6569 33 57 33C55.3431 33 54 34.3431 54 36C54 37.6569 55.3431 39 57 39ZM57 43C60.866 43 64 39.866 64 36C64 32.134 60.866 29 57 29C53.134 29 50 32.134 50 36C50 39.866 53.134 43 57 43Z" fill="#0054D7"/>
<path d="M14 36C14 39.866 10.866 43 7 43C3.13401 43 0 39.866 0 36C0 32.134 3.13401 29 7 29C10.866 29 14 32.134 14 36Z" fill="white"/>
<path fill-rule="evenodd" clip-rule="evenodd" d="M7 39C8.65685 39 10 37.6569 10 36C10 34.3431 8.65685 33 7 33C5.34315 33 4 34.3431 4 36C4 37.6569 5.34315 39 7 39ZM7 43C10.866 43 14 39.866 14 36C14 32.134 10.866 29 7 29C3.13401 29 0 32.134 0 36C0 39.866 3.13401 43 7 43Z" fill="#0054D7"/>
</g>
</svg>
