<svg width="300" height="30" viewBox="0 0 300 30" fill="none" xmlns="http://www.w3.org/2000/svg">
<g clip-path="url(#clip0)">
<rect width="300" height="30" fill="white"/>
<path d="M292.994 24C295.289 24 297.254 23.5331 298.994 22.7495" stroke="#A180FF" stroke-width="4"/>
<path d="M292.995 24C278.745 24 277.245 6 262.995 6C248.745 6 247.245 24 232.995 24" stroke="#A180FF" stroke-width="4"/>
<path d="M232.995 24C218.745 24 217.245 6 202.995 6C188.745 6 187.245 24 172.995 24" stroke="#A180FF" stroke-width="4"/>
<path d="M172.997 24C158.747 24 157.247 6 142.997 6C128.747 6 127.247 24 112.997 24" stroke="#A180FF" stroke-width="4"/>
<path d="M113 24C98.7502 24 97.2502 6 83.0002 6C68.7502 6 67.2502 24 53.0002 24" stroke="#A180FF" stroke-width="4"/>
<path d="M53.0002 24C38.7502 24 37.2502 6 23.0002 6C8.75024 6 7.25024 24 -6.99976 24" stroke="#A180FF" stroke-width="4"/>
</g>
<defs>
<clipPath id="clip0">
<rect width="300" height="30" fill="white"/>
</clipPath>
</defs>
</svg>
