<svg width="300" height="30" fill="none" xmlns="http://www.w3.org/2000/svg"><g clip-path="url(#clip0)"><path fill="#fff" d="M0 0H300V30H0z"/><path d="M299.994 24c2.295 0 4.26-.467 6-1.25M299.995 24c-14.25 0-15.75-18-30-18s-15.75 18-30 18m0 0c-14.25 0-15.75-18-30-18s-15.75 18-30 18" stroke="#A180FF" stroke-width="4"/><path d="M179.997 24c-14.25 0-15.75-18-30-18s-15.75 18-30 18" stroke="#A180FF" stroke-width="4"/><path d="M120 24c-14.25 0-15.75-18-30-18S74.25 24 60 24m0 0C45.75 24 44.25 6 30 6S14.25 24 0 24" stroke="#A180FF" stroke-width="4"/><path fill="#fff" d="M7 10H306V20H7z"/></g><defs><clipPath id="clip0"><path fill="#fff" d="M0 0H300V30H0z"/></clipPath></defs></svg>