<svg width="479" height="261" viewBox="0 0 479 261" fill="none" xmlns="http://www.w3.org/2000/svg">
<rect x="39.708" y="17" width="418.869" height="242" stroke="black" stroke-width="4"/>
<rect x="39.708" y="17" width="418.869" height="242" stroke="black" stroke-width="4"/>
<rect x="90" y="67" width="139" height="42" stroke="black" stroke-width="4"/>
<path fill-rule="evenodd" clip-rule="evenodd" d="M144.277 95.5561C140.692 98.2015 135.495 99.6083 131.02 99.6083C124.748 99.6083 119.1 97.2898 114.826 93.4305C114.491 93.1271 114.79 92.7134 115.193 92.948C119.804 95.6314 125.507 97.2475 131.396 97.2475C135.37 97.2475 139.737 96.4227 143.756 94.718C144.362 94.4614 144.87 95.1175 144.277 95.5561Z" fill="#18191B"/>
<path fill-rule="evenodd" clip-rule="evenodd" d="M145.768 93.8528C145.309 93.2659 142.737 93.5748 141.582 93.7133C141.232 93.7556 141.177 93.4495 141.493 93.228C143.545 91.7866 146.907 92.2026 147.298 92.6856C147.691 93.172 147.194 96.5433 145.272 98.1518C144.976 98.3991 144.694 98.2672 144.825 97.9408C145.259 96.8599 146.227 94.4408 145.768 93.8528Z" fill="#18191B"/>
<path fill-rule="evenodd" clip-rule="evenodd" d="M141.662 83.0462V81.646C141.664 81.4328 141.824 81.291 142.017 81.2916L148.294 81.291C148.495 81.291 148.656 81.4366 148.656 81.6444V82.8451C148.654 83.0468 148.484 83.3094 148.184 83.7265L144.932 88.369C146.139 88.3409 147.415 88.5217 148.512 89.1377C148.76 89.2768 148.826 89.4828 148.845 89.6845V91.1787C148.845 91.3848 148.62 91.6227 148.383 91.4991C146.451 90.4868 143.887 90.3764 141.751 91.5112C141.533 91.6277 141.305 91.3925 141.305 91.1864V89.7659C141.305 89.5389 141.309 89.1498 141.538 88.8036L145.305 83.3996L142.025 83.399C141.825 83.399 141.664 83.2561 141.662 83.0462Z" fill="#18191B"/>
<path fill-rule="evenodd" clip-rule="evenodd" d="M118.767 91.7937H116.857C116.676 91.7821 116.53 91.6459 116.516 91.4711L116.517 81.6703C116.517 81.4746 116.682 81.318 116.886 81.318L118.664 81.3175C118.85 81.3268 118.999 81.4675 119.011 81.6466V82.9259H119.047C119.511 81.6884 120.384 81.1108 121.56 81.1108C122.754 81.1108 123.503 81.6884 124.038 82.9259C124.501 81.6884 125.553 81.1108 126.676 81.1108C127.478 81.1108 128.351 81.4411 128.886 82.1835C129.492 83.0089 129.368 84.2047 129.368 85.2565L129.366 91.4414C129.366 91.6365 129.202 91.7937 128.998 91.7937H127.091C126.898 91.7816 126.748 91.6299 126.748 91.442L126.747 86.2462C126.747 85.834 126.783 84.8031 126.693 84.4113C126.551 83.7508 126.124 83.565 125.571 83.565C125.108 83.565 124.626 83.8744 124.43 84.369C124.234 84.8647 124.252 85.689 124.252 86.2462V91.4414C124.252 91.6365 124.087 91.7937 123.884 91.7937H121.976C121.785 91.7816 121.633 91.6299 121.633 91.442L121.631 86.2462C121.631 85.1532 121.81 83.5453 120.455 83.5453C119.082 83.5453 119.136 85.112 119.136 86.2462L119.135 91.4414C119.135 91.6365 118.97 91.7937 118.767 91.7937Z" fill="#18191B"/>
<path fill-rule="evenodd" clip-rule="evenodd" d="M154.077 83.1117C152.669 83.1117 152.58 85.029 152.58 86.2253C152.58 87.4216 152.562 89.9791 154.06 89.9791C155.539 89.9791 155.611 87.9168 155.611 86.6589C155.611 85.834 155.574 84.8438 155.325 84.0602C155.111 83.3793 154.683 83.1117 154.077 83.1117ZM154.06 81.1108C156.894 81.1108 158.426 83.5453 158.426 86.6386C158.426 89.628 156.733 92.0003 154.06 92.0003C151.279 92.0003 149.764 89.5664 149.764 86.5352C149.764 83.4826 151.296 81.1108 154.06 81.1108Z" fill="#18191B"/>
<path fill-rule="evenodd" clip-rule="evenodd" d="M162.103 91.7937H160.2C160.009 91.7816 159.857 91.6299 159.857 91.442L159.854 81.6378C159.87 81.4581 160.029 81.318 160.221 81.318L161.992 81.3175C162.159 81.3263 162.297 81.4395 162.332 81.5917V83.0908H162.368C162.903 81.7499 163.651 81.1108 164.97 81.1108C165.825 81.1108 166.663 81.4202 167.198 82.266C167.697 83.0496 167.697 84.369 167.697 85.318V91.4854C167.676 91.6591 167.52 91.7937 167.331 91.7937H165.417C165.24 91.7827 165.098 91.6525 165.077 91.4854V86.1643C165.077 85.0916 165.202 83.5238 163.883 83.5238C163.419 83.5238 162.991 83.8332 162.777 84.3075C162.51 84.9059 162.474 85.5038 162.474 86.1643V91.4414C162.471 91.6365 162.306 91.7937 162.103 91.7937Z" fill="#18191B"/>
<path fill-rule="evenodd" clip-rule="evenodd" d="M138.584 91.7692C138.458 91.8824 138.276 91.8901 138.133 91.8138C137.499 91.2868 137.385 91.0433 137.039 90.541C135.991 91.6088 135.248 91.9292 133.89 91.9292C132.283 91.9292 131.032 90.9367 131.032 88.9529C131.032 87.4027 131.872 86.3487 133.069 85.8321C134.105 85.3771 135.552 85.2947 136.659 85.1705V84.9227C136.659 84.4671 136.695 83.9308 136.427 83.5378C136.195 83.1861 135.748 83.0416 135.355 83.0416C134.627 83.0416 133.98 83.4147 133.821 84.1879C133.787 84.3599 133.662 84.5308 133.489 84.5396L131.638 84.3391C131.482 84.3033 131.308 84.178 131.353 83.9395C131.773 81.7255 133.75 81.0353 135.547 81.0166H135.689C136.609 81.0281 137.784 81.2804 138.499 81.9667C139.428 82.835 139.338 83.9923 139.338 85.2535V88.2281C139.338 89.1233 139.71 89.5156 140.059 89.9976C140.182 90.1718 140.209 90.3778 140.053 90.5053C139.663 90.8323 138.97 91.434 138.589 91.7736L138.584 91.7692ZM136.659 87.1136C136.659 87.8577 136.677 88.4776 136.302 89.1392C135.998 89.6761 135.516 90.0069 134.98 90.0069C134.248 90.0069 133.819 89.4491 133.819 88.6221C133.819 86.9955 135.278 86.6998 136.659 86.6998V87.1136Z" fill="#18191B"/>
<path fill-rule="evenodd" clip-rule="evenodd" d="M113.552 91.7692C113.426 91.8824 113.243 91.8901 113.101 91.8138C112.466 91.2868 112.353 91.0433 112.006 90.541C110.958 91.6088 110.216 91.9292 108.858 91.9292C107.251 91.9292 106 90.9367 106 88.9529C106 87.4027 106.839 86.3487 108.037 85.8321C109.072 85.3771 110.519 85.2947 111.627 85.1705V84.9227C111.627 84.4671 111.663 83.9308 111.395 83.5378C111.162 83.1861 110.716 83.0416 110.323 83.0416C109.594 83.0416 108.947 83.4147 108.788 84.1879C108.755 84.3599 108.629 84.5308 108.456 84.5396L106.606 84.3391C106.449 84.3033 106.275 84.178 106.32 83.9395C106.74 81.7255 108.717 81.0353 110.515 81.0166H110.657C111.577 81.0281 112.752 81.2804 113.467 81.9667C114.396 82.835 114.306 83.9923 114.306 85.2535V88.2281C114.306 89.1233 114.678 89.5156 115.027 89.9976C115.149 90.1718 115.177 90.3778 115.021 90.5053C114.631 90.8323 113.937 91.434 113.557 91.7736L113.552 91.7692ZM111.627 87.1136C111.627 87.8577 111.645 88.4776 111.269 89.1392C110.966 89.6761 110.484 90.0069 109.947 90.0069C109.215 90.0069 108.787 89.4491 108.787 88.6221C108.787 86.9955 110.246 86.6998 111.627 86.6998V87.1136Z" fill="#18191B"/>
<path fill-rule="evenodd" clip-rule="evenodd" d="M193.8 95.3089C193.8 95.0605 193.8 94.8374 193.8 94.589C193.8 94.384 193.9 94.2428 194.114 94.2554C194.513 94.312 195.078 94.3686 195.478 94.2862C196.001 94.1774 196.377 93.8065 196.599 93.2982C196.911 92.5827 197.119 92.0057 197.249 91.627L193.277 81.7861C193.21 81.619 193.19 81.3091 193.524 81.3091H194.912C195.177 81.3091 195.285 81.4772 195.344 81.6421L198.224 89.6355L200.973 81.6421C201.03 81.4783 201.142 81.3091 201.405 81.3091H202.714C203.046 81.3091 203.027 81.6185 202.961 81.7861L199.02 91.9342C198.51 93.285 197.831 95.4364 196.301 95.8101C195.534 96.0106 194.567 95.9381 193.998 95.7002C193.855 95.6282 193.8 95.4358 193.8 95.3089Z" fill="#18191B"/>
<path fill-rule="evenodd" clip-rule="evenodd" d="M191.947 91.1938C191.947 91.3768 191.797 91.5268 191.613 91.5268H190.634C190.423 91.5268 190.278 91.374 190.251 91.1938L190.153 90.5272C189.703 90.908 189.15 91.2427 188.551 91.4757C187.4 91.923 186.072 91.9972 184.946 91.3059C184.133 90.8063 183.701 89.8298 183.701 88.8225C183.701 88.0433 183.941 87.2707 184.473 86.7096C185.184 85.943 186.214 85.5666 187.457 85.5666C188.208 85.5666 189.283 85.6551 190.065 85.9106V84.5692C190.065 83.2053 189.491 82.6151 187.977 82.6151C186.82 82.6151 185.935 82.7898 184.702 83.1728C184.505 83.1794 184.39 83.0294 184.39 82.8464V82.0815C184.39 81.8979 184.546 81.7204 184.716 81.6666C185.596 81.283 186.842 81.044 188.167 81C189.894 81 191.947 81.3896 191.947 84.046V91.1938ZM190.065 89.2352V87.2113C189.408 87.0316 188.321 86.9569 187.9 86.9569C187.235 86.9569 186.507 87.1141 186.126 87.5235C185.842 87.8235 185.714 88.2543 185.714 88.6709C185.714 89.2094 185.9 89.7496 186.335 90.0167C186.841 90.3601 187.625 90.3184 188.362 90.109C189.07 89.9079 189.735 89.5523 190.065 89.2352Z" fill="#18191B"/>
<path fill-rule="evenodd" clip-rule="evenodd" d="M177.509 82.6456C179.682 82.6456 180.274 84.3541 180.274 86.3104C180.286 87.6293 180.044 88.8053 179.361 89.4784C178.85 89.9824 178.279 90.1197 177.419 90.1197C176.654 90.1197 175.648 89.7208 174.896 89.1652V83.5715C175.679 82.9704 176.677 82.6456 177.509 82.6456ZM174.563 95.6606H173.252C173.068 95.6606 172.918 95.5106 172.918 95.3276C172.918 90.772 172.918 86.2159 172.918 81.6603C172.918 81.4773 173.068 81.3273 173.252 81.3273H174.256C174.467 81.3273 174.611 81.48 174.638 81.6603L174.744 82.3763C175.684 81.5416 176.894 81.0063 178.048 81.0063C181.279 81.0063 182.341 83.6683 182.341 86.4362C182.341 89.3977 180.716 91.7771 177.968 91.7771C176.81 91.7771 175.728 91.3501 174.896 90.6083V95.3276C174.896 95.5106 174.746 95.6606 174.563 95.6606Z" fill="#18191B"/>
<rect x="90" y="127" width="139" height="42" stroke="black" stroke-width="4"/>
<path d="M143.156 141.697H138.397C138.24 141.697 138.087 141.753 137.968 141.855C137.848 141.957 137.769 142.099 137.744 142.255L135.819 154.458C135.81 154.515 135.814 154.573 135.83 154.628C135.845 154.683 135.873 154.734 135.91 154.778C135.947 154.821 135.994 154.856 136.046 154.88C136.098 154.904 136.154 154.916 136.212 154.916H138.484C138.641 154.916 138.794 154.86 138.914 154.758C139.033 154.655 139.113 154.513 139.137 154.357L139.656 151.066C139.681 150.91 139.76 150.769 139.879 150.666C139.999 150.564 140.151 150.507 140.309 150.507H141.816C144.95 150.507 146.76 148.99 147.232 145.984C147.445 144.669 147.241 143.635 146.625 142.912C145.949 142.117 144.749 141.697 143.156 141.697ZM143.706 146.154C143.445 147.861 142.14 147.861 140.879 147.861H140.161L140.665 144.672C140.679 144.579 140.727 144.494 140.799 144.433C140.871 144.371 140.962 144.338 141.056 144.338H141.385C142.245 144.338 143.056 144.338 143.474 144.827C143.724 145.12 143.801 145.554 143.706 146.154ZM157.382 146.099H155.103C155.009 146.099 154.917 146.133 154.846 146.194C154.774 146.255 154.726 146.34 154.711 146.434L154.61 147.071L154.451 146.84C153.958 146.124 152.858 145.885 151.76 145.885C149.241 145.885 147.09 147.792 146.671 150.468C146.453 151.802 146.763 153.078 147.52 153.968C148.215 154.787 149.208 155.128 150.391 155.128C152.42 155.128 153.545 153.823 153.545 153.823L153.444 154.456C153.434 154.513 153.438 154.571 153.453 154.626C153.469 154.681 153.496 154.732 153.533 154.776C153.57 154.82 153.617 154.855 153.669 154.879C153.721 154.903 153.777 154.915 153.835 154.916H155.887C156.045 154.916 156.198 154.859 156.317 154.757C156.437 154.654 156.516 154.512 156.541 154.357L157.773 146.557C157.782 146.5 157.778 146.442 157.763 146.387C157.747 146.332 157.72 146.281 157.683 146.238C157.646 146.194 157.6 146.159 157.548 146.135C157.496 146.111 157.439 146.099 157.382 146.099ZM154.205 150.534C153.986 151.836 152.952 152.71 151.634 152.71C150.972 152.71 150.444 152.498 150.104 152.096C149.767 151.696 149.639 151.128 149.746 150.495C149.952 149.204 151.002 148.301 152.3 148.301C152.947 148.301 153.473 148.516 153.82 148.922C154.167 149.332 154.305 149.904 154.205 150.534ZM169.519 146.099H167.229C167.121 146.099 167.015 146.126 166.92 146.176C166.824 146.227 166.743 146.3 166.682 146.389L163.523 151.042L162.184 146.571C162.143 146.434 162.059 146.315 161.945 146.23C161.831 146.145 161.692 146.099 161.55 146.099H159.299C159.236 146.099 159.174 146.114 159.118 146.142C159.061 146.171 159.013 146.213 158.976 146.264C158.939 146.316 158.915 146.375 158.906 146.437C158.897 146.5 158.902 146.564 158.923 146.624L161.445 154.026L159.074 157.374C159.032 157.433 159.007 157.503 159.002 157.576C158.996 157.648 159.011 157.721 159.045 157.786C159.078 157.85 159.129 157.905 159.191 157.942C159.253 157.98 159.325 158 159.397 158H161.685C161.791 158 161.897 157.975 161.991 157.925C162.086 157.876 162.167 157.804 162.228 157.716L169.845 146.722C169.886 146.662 169.911 146.593 169.915 146.52C169.92 146.448 169.904 146.376 169.871 146.312C169.837 146.248 169.787 146.194 169.725 146.156C169.663 146.119 169.592 146.099 169.519 146.099Z" fill="#18191B"/>
<path d="M177.102 141.696H172.343C172.185 141.697 172.033 141.753 171.913 141.855C171.794 141.957 171.714 142.099 171.69 142.255L169.765 154.458C169.756 154.515 169.76 154.572 169.775 154.627C169.791 154.683 169.818 154.734 169.855 154.777C169.892 154.821 169.938 154.856 169.99 154.88C170.042 154.904 170.099 154.916 170.156 154.916H172.599C172.709 154.916 172.815 154.876 172.899 154.805C172.983 154.733 173.038 154.634 173.055 154.525L173.601 151.066C173.626 150.91 173.705 150.768 173.825 150.666C173.944 150.563 174.097 150.507 174.254 150.507H175.76C178.896 150.507 180.704 148.99 181.177 145.984C181.391 144.669 181.186 143.635 180.57 142.911C179.894 142.117 178.695 141.696 177.102 141.696ZM177.651 146.154C177.392 147.861 176.087 147.861 174.825 147.861H174.107L174.612 144.672C174.626 144.579 174.674 144.494 174.745 144.432C174.817 144.371 174.909 144.337 175.003 144.337H175.332C176.191 144.337 177.002 144.337 177.421 144.827C177.671 145.119 177.747 145.554 177.651 146.154ZM191.327 146.099H189.05C188.955 146.098 188.864 146.132 188.792 146.193C188.72 146.255 188.673 146.34 188.659 146.433L188.558 147.071L188.398 146.84C187.904 146.124 186.805 145.884 185.707 145.884C183.188 145.884 181.038 147.792 180.619 150.467C180.402 151.802 180.71 153.078 181.468 153.968C182.163 154.787 183.156 155.127 184.338 155.127C186.367 155.127 187.492 153.823 187.492 153.823L187.391 154.456C187.382 154.513 187.385 154.571 187.401 154.626C187.416 154.681 187.444 154.733 187.481 154.776C187.518 154.82 187.565 154.855 187.617 154.879C187.669 154.903 187.726 154.915 187.783 154.915H189.835C189.993 154.915 190.145 154.859 190.265 154.756C190.385 154.654 190.464 154.512 190.488 154.356L191.721 146.556C191.729 146.5 191.726 146.442 191.71 146.387C191.694 146.332 191.667 146.281 191.629 146.237C191.592 146.194 191.546 146.159 191.493 146.135C191.441 146.111 191.385 146.099 191.327 146.099ZM188.151 150.534C187.932 151.836 186.897 152.71 185.579 152.71C184.919 152.71 184.389 152.498 184.049 152.096C183.712 151.696 183.586 151.128 183.692 150.494C183.898 149.204 184.948 148.301 186.245 148.301C186.893 148.301 187.419 148.516 187.765 148.922C188.114 149.332 188.252 149.904 188.151 150.534ZM194.014 142.031L192.061 154.458C192.052 154.515 192.055 154.572 192.071 154.627C192.086 154.683 192.114 154.734 192.151 154.777C192.188 154.821 192.234 154.856 192.286 154.88C192.338 154.904 192.395 154.916 192.452 154.916H194.416C194.742 154.916 195.019 154.679 195.069 154.357L196.995 142.154C197.004 142.098 197.001 142.04 196.985 141.985C196.97 141.93 196.942 141.879 196.905 141.835C196.868 141.791 196.822 141.756 196.77 141.732C196.718 141.708 196.661 141.696 196.604 141.696H194.405C194.311 141.696 194.22 141.73 194.148 141.792C194.076 141.853 194.029 141.938 194.014 142.031Z" fill="#18191B"/>
<path d="M116.056 157.287L116.42 154.976L115.609 154.957H111.738L114.429 137.899C114.437 137.847 114.463 137.799 114.503 137.765C114.543 137.731 114.594 137.712 114.647 137.712H121.174C123.341 137.712 124.837 138.163 125.617 139.053C125.983 139.471 126.217 139.907 126.329 140.387C126.448 140.891 126.45 141.493 126.334 142.227L126.326 142.281V142.751L126.692 142.959C126.971 143.1 127.222 143.292 127.433 143.524C127.746 143.881 127.949 144.334 128.034 144.872C128.123 145.425 128.093 146.084 127.949 146.829C127.782 147.686 127.512 148.433 127.147 149.044C126.825 149.591 126.393 150.065 125.877 150.436C125.393 150.779 124.817 151.04 124.167 151.207C123.536 151.372 122.817 151.454 122.029 151.454H121.521C121.158 151.454 120.805 151.585 120.528 151.82C120.251 152.057 120.068 152.384 120.01 152.744L119.972 152.952L119.329 157.026L119.3 157.176C119.292 157.223 119.279 157.247 119.259 157.263C119.24 157.278 119.217 157.287 119.192 157.287H116.056Z" fill="#18191B"/>
<path d="M127.039 142.335C127.019 142.46 126.997 142.587 126.972 142.718C126.111 147.138 123.166 148.664 119.405 148.664H117.49C117.03 148.664 116.642 148.998 116.571 149.452L115.59 155.67L115.313 157.433C115.302 157.503 115.306 157.574 115.325 157.643C115.344 157.711 115.378 157.774 115.424 157.828C115.47 157.882 115.527 157.925 115.591 157.954C115.656 157.984 115.726 157.999 115.796 157.999H119.193C119.595 157.999 119.937 157.707 120 157.311L120.033 157.138L120.673 153.08L120.714 152.857C120.777 152.459 121.119 152.167 121.521 152.167H122.029C125.32 152.167 127.896 150.831 128.649 146.964C128.964 145.349 128.801 144.001 127.968 143.052C127.705 142.759 127.39 142.516 127.039 142.335Z" fill="#18191B"/>
<path d="M126.138 141.976C125.863 141.897 125.583 141.835 125.301 141.79C124.742 141.705 124.178 141.663 123.613 141.667H118.496C118.302 141.667 118.113 141.737 117.966 141.863C117.818 141.99 117.72 142.165 117.69 142.358L116.602 149.251L116.57 149.452C116.604 149.232 116.716 149.032 116.884 148.888C117.053 148.743 117.268 148.664 117.49 148.664H119.405C123.166 148.664 126.111 147.137 126.971 142.718C126.997 142.587 127.019 142.46 127.038 142.335C126.811 142.216 126.574 142.116 126.331 142.037C126.267 142.016 126.202 141.995 126.138 141.976Z" fill="#9B9B9B"/>
<path d="M117.69 142.358C117.72 142.165 117.817 141.99 117.965 141.863C118.113 141.737 118.302 141.667 118.497 141.668H123.613C124.219 141.668 124.784 141.708 125.301 141.791C125.65 141.846 125.995 141.928 126.331 142.037C126.585 142.121 126.821 142.22 127.039 142.335C127.295 140.702 127.037 139.59 126.154 138.583C125.18 137.475 123.423 137 121.175 137H114.648C114.188 137 113.797 137.334 113.726 137.788L111.007 155.022C110.994 155.102 110.999 155.183 111.021 155.261C111.043 155.339 111.082 155.412 111.134 155.473C111.187 155.535 111.252 155.584 111.326 155.618C111.399 155.652 111.479 155.67 111.56 155.67H115.59L116.602 149.251L117.69 142.358Z" fill="#18191B"/>
<rect x="90" y="187" width="139" height="42" stroke="black" stroke-width="4"/>
<path fill-rule="evenodd" clip-rule="evenodd" d="M162.298 204.233C163.191 204.233 163.915 203.509 163.915 202.617C163.915 201.724 163.191 201 162.298 201C161.406 201 160.683 201.724 160.683 202.617C160.683 203.509 161.406 204.233 162.298 204.233ZM149.914 205.105C149.841 205.289 149.316 206.772 148.046 208.31V201.736L144.661 202.405V214.32H148.046V210.637C149.026 212.107 149.51 214.32 149.51 214.32H153.563C153.162 212.654 151.408 209.58 151.408 209.58C152.983 207.584 153.674 205.458 153.784 205.105H149.914ZM158.811 204.981C155.779 205.078 154.241 206.438 154.241 209.142V214.32H157.548V210.097C157.548 208.478 157.76 207.785 159.68 207.718V205.028C159.357 204.96 158.811 204.981 158.811 204.981ZM138.986 206.418C138.571 206.39 137.612 206.328 137.612 205.464C137.612 204.422 138.993 204.422 139.512 204.422C140.423 204.422 141.603 204.691 142.446 204.943C142.446 204.943 142.916 205.109 143.316 205.279L143.353 205.289V202.434L143.302 202.418C142.307 202.07 141.151 201.736 139.007 201.736C135.31 201.736 134 203.889 134 205.734C134 206.798 134.456 209.301 138.69 209.59C139.049 209.612 140.001 209.667 140.001 210.559C140.001 211.296 139.221 211.731 137.91 211.731C136.472 211.731 135.078 211.365 134.231 211.017V213.958C135.499 214.29 136.928 214.456 138.603 214.456C142.218 214.456 143.837 212.418 143.837 210.399C143.837 208.109 142.025 206.621 138.986 206.418ZM160.659 214.32H163.939V205.116H160.659V214.32ZM170.115 202.323V214.32H173.396V201.736L170.115 202.323ZM165.328 202.323L168.606 201.736V214.32H165.328V202.323Z" fill="#18191B"/>
<rect x="246" y="187" width="139" height="42" stroke="black" stroke-width="4"/>
<path fill-rule="evenodd" clip-rule="evenodd" d="M337 208.749C337 205.478 335.416 202.897 332.387 202.897C329.346 202.897 327.506 205.478 327.506 208.724C327.506 212.57 329.679 214.512 332.796 214.512C334.317 214.512 335.467 214.167 336.336 213.681V211.126C335.467 211.56 334.47 211.829 333.205 211.829C331.966 211.829 330.867 211.394 330.726 209.886H336.975C336.975 209.72 337 209.056 337 208.749ZM330.688 207.535C330.688 206.091 331.57 205.491 332.375 205.491C333.154 205.491 333.985 206.091 333.985 207.535H330.688Z" fill="#18191B"/>
<path fill-rule="evenodd" clip-rule="evenodd" d="M322.574 202.897C321.322 202.897 320.517 203.485 320.069 203.894L319.903 203.101H317.092V218L320.287 217.323L320.299 213.707C320.759 214.039 321.437 214.512 322.561 214.512C324.848 214.512 326.931 212.672 326.931 208.621C326.918 204.916 324.81 202.897 322.574 202.897ZM321.807 211.701C321.053 211.701 320.606 211.433 320.299 211.1L320.287 206.36C320.619 205.989 321.079 205.734 321.807 205.734C322.97 205.734 323.775 207.037 323.775 208.711C323.775 210.423 322.983 211.701 321.807 211.701Z" fill="#18191B"/>
<path fill-rule="evenodd" clip-rule="evenodd" d="M315.904 201.453V198.859L312.696 199.536V202.143L315.904 201.453Z" fill="#18191B"/>
<path d="M315.904 203.114H312.696V214.294H315.904V203.114Z" fill="#18191B"/>
<path fill-rule="evenodd" clip-rule="evenodd" d="M309.259 204.059L309.055 203.114H306.295V214.294H309.489V206.717C310.243 205.733 311.521 205.912 311.917 206.052V203.114C311.508 202.96 310.013 202.679 309.259 204.059Z" fill="#18191B"/>
<path fill-rule="evenodd" clip-rule="evenodd" d="M302.871 200.341L299.753 201.005L299.74 211.24C299.74 213.131 301.159 214.524 303.05 214.524C304.097 214.524 304.864 214.332 305.286 214.102V211.509C304.877 211.675 302.858 212.262 302.858 210.371V205.835H305.286V203.114H302.858L302.871 200.341Z" fill="#18191B"/>
<path fill-rule="evenodd" clip-rule="evenodd" d="M294.233 206.36C294.233 205.861 294.642 205.67 295.319 205.67C296.29 205.67 297.517 205.964 298.488 206.488V203.485C297.427 203.063 296.379 202.897 295.319 202.897C292.725 202.897 291 204.251 291 206.513C291 210.04 295.856 209.478 295.856 210.998C295.856 211.586 295.344 211.778 294.629 211.778C293.568 211.778 292.214 211.343 291.141 210.755V213.796C292.329 214.307 293.53 214.525 294.629 214.525C297.287 214.525 299.114 213.209 299.114 210.921C299.101 207.114 294.233 207.791 294.233 206.36Z" fill="#18191B"/>
<rect x="402" y="67" width="37" height="42" stroke="black" stroke-width="4"/>
<path d="M432.946 87.5112C432.939 89.1999 431.71 90.4997 430.143 90.4735C428.596 90.4506 427.328 89.1111 427.317 87.4875C427.305 85.7903 428.538 84.5523 430.221 84.5718C431.778 84.5904 432.953 85.8546 432.946 87.5112ZM431.247 91.4772C431.599 91.3969 432.56 91.0333 432.56 91.0333C432.56 91.0333 432.225 91.8823 432.011 92.3795C429.86 97.4796 424.555 100.558 419.033 99.9159C413.658 99.2901 409.226 95.1076 408.258 89.7488C406.952 82.5211 412.049 75.8481 419.434 75.1167C425.021 74.5628 430.156 77.9986 432.098 82.8881C432.209 83.168 432.287 83.4623 432.44 83.9418C431.06 83.3794 429.864 83.1705 428.634 83.6525C426.541 84.472 425.509 86.6656 426.194 88.8422C426.831 90.8675 429.011 91.9889 431.247 91.4772ZM413.695 90.3483C413.695 90.3483 414.264 89.8223 414.434 89.6811C415.247 89.0063 416.096 88.3721 416.802 87.5797C417.866 86.3857 417.72 84.647 416.502 83.8521C415.259 83.0411 413.367 83.343 412.432 84.5083C412.341 84.6225 412.031 85.0555 412.031 85.0555L412.959 85.6508C412.959 85.6508 413.147 85.4377 413.252 85.2982C413.472 85.0056 413.783 84.7756 414.13 84.6622C414.752 84.4584 415.382 84.4635 415.848 84.9946C416.332 85.5476 416.275 86.1785 415.908 86.789C415.694 87.145 415.417 87.4444 415.096 87.7133C414.17 88.4921 413.258 89.2667 412.336 90.0515C412.191 90.175 411.437 90.761 411.437 90.761L411.431 91.4138H417.495L417.49 90.3483L416.903 90.3509L413.695 90.3483ZM420.174 86.269C420.616 85.1502 421.58 84.5532 422.853 84.5667C423.421 84.5726 423.901 84.7975 424.385 85.0495C424.51 85.1155 424.831 85.2889 424.831 85.2889L425.51 84.3392L425.011 84.0077C423.514 83.0454 421.434 83.1849 420.017 84.3282C418.783 85.3235 418.27 87.3218 418.835 88.9226C419.431 90.6054 420.84 91.6142 422.84 91.6126C423.544 91.6548 424.324 91.4214 425.031 90.9242C425.168 90.827 425.33 90.7356 425.372 90.6468L424.72 89.6938L424.063 90.1166C422.936 90.6815 421.802 90.5673 420.966 89.808C419.986 88.9175 419.674 87.5298 420.174 86.269Z" fill="#18191B"/>
<rect x="246" y="127" width="139" height="42" stroke="black" stroke-width="4"/>
<path d="M295.148 135.353C295.25 137.672 297.253 146.518 297.253 146.518C297.989 148.309 298.623 146.518 298.623 146.518C301.046 139.25 296.094 135.039 296.094 135.039C294.83 134.3 295.148 135.353 295.148 135.353ZM323.9 134.09C323.9 134.09 326.325 135.775 323.9 136.091C323.9 136.091 314.842 137.144 308.102 143.465C308.102 143.465 297.989 152.31 294.199 162C294.199 162 292.935 162 293.358 160.105C293.778 158.209 296.305 149.888 307.574 139.673C307.574 139.673 318.425 129.772 323.9 134.09Z" fill="#18191B"/>
<path d="M277.818 148.112C278.218 148.196 278.577 148.238 279.105 148.238C281.171 148.238 282.563 146.909 282.563 145.221C282.563 143.703 281.487 143.155 280.097 143.155C279.483 143.155 279.02 143.197 278.725 143.281L277.818 148.112ZM276.657 141.53C277.522 141.319 278.809 141.193 280.075 141.193C281.404 141.193 282.796 141.466 283.724 142.205C284.547 142.838 285.032 143.765 285.032 145.032C285.032 146.719 284.23 148.091 283.217 148.892C282.079 149.799 280.453 150.242 278.766 150.242C278.259 150.242 277.818 150.178 277.437 150.137L276.404 155.516H274L276.657 141.53Z" fill="#18191B"/>
<path d="M291.548 147.014C291.296 146.95 290.98 146.909 290.537 146.909C288.28 146.909 286.507 149.462 286.507 151.804C286.507 152.878 286.908 153.765 287.985 153.765C289.144 153.765 290.537 152.331 291.022 149.715L291.548 147.014ZM290.557 155.516C290.557 154.903 290.641 154.082 290.727 153.215H290.684C289.672 155.094 288.3 155.748 286.993 155.748C285.158 155.748 283.954 154.313 283.954 152.246C283.954 148.745 286.401 145.01 291.19 145.01C292.308 145.01 293.51 145.221 294.312 145.474L293.237 150.832C292.94 152.351 292.772 154.292 292.815 155.516H290.557Z" fill="#18191B"/>
<path d="M308.273 151.444C308.273 152.856 309.011 153.85 310.277 153.85C312.112 153.85 313.336 151.318 313.336 149.272C313.336 148.216 312.85 146.908 311.375 146.908C309.413 146.908 308.273 149.525 308.273 151.444ZM315.867 149.252C315.867 152.752 313.441 155.747 309.94 155.747C307.344 155.747 305.743 153.954 305.743 151.507C305.743 148.027 308.168 145.01 311.67 145.01C314.433 145.01 315.867 146.993 315.867 149.252Z" fill="#18191B"/>
<path d="M316.33 155.516L317.66 148.428C317.912 147.204 318.06 146.128 318.187 145.243H320.382L320.149 147.078H320.191C321.139 145.706 322.448 145.01 323.882 145.01C325.358 145.01 326.498 145.897 326.498 147.838C326.498 148.301 326.415 149.018 326.309 149.525L325.189 155.516H322.721L323.817 149.715C323.882 149.335 323.945 148.892 323.945 148.491C323.945 147.626 323.629 147.014 322.659 147.014C321.541 147.014 320.106 148.363 319.663 150.77L318.777 155.516H316.33Z" fill="#18191B"/>
<path d="M333.034 146.845C331.493 146.845 330.482 148.216 330.187 149.462C332.717 149.482 334.343 149.145 334.343 147.901C334.343 147.247 333.815 146.845 333.034 146.845ZM335.375 154.924C334.362 155.451 332.993 155.747 331.747 155.747C328.902 155.747 327.53 153.997 327.53 151.486C327.53 148.385 329.807 145.01 333.351 145.01C335.375 145.01 336.663 146.17 336.663 147.901C336.663 150.537 333.9 151.38 329.935 151.296C329.891 151.655 329.976 152.35 330.208 152.752C330.61 153.449 331.346 153.807 332.317 153.807C333.479 153.807 334.405 153.511 335.146 153.132L335.375 154.924Z" fill="#18191B"/>
<path d="M342.588 146.845C341.049 146.845 340.035 148.216 339.74 149.462C342.271 149.482 343.896 149.145 343.896 147.901C343.896 147.247 343.369 146.845 342.588 146.845ZM344.929 154.924C343.918 155.451 342.546 155.747 341.303 155.747C338.455 155.747 337.083 153.997 337.083 151.486C337.083 148.385 339.36 145.01 342.904 145.01C344.929 145.01 346.218 146.17 346.218 147.901C346.218 150.537 343.454 151.38 339.488 151.296C339.445 151.655 339.53 152.35 339.762 152.752C340.163 153.449 340.901 153.807 341.871 153.807C343.032 153.807 343.959 153.511 344.7 153.132L344.929 154.924Z" fill="#18191B"/>
<path d="M346.364 155.516L347.566 149.187C347.84 147.732 347.987 146.15 348.091 145.243H350.223C350.159 145.939 350.097 146.656 349.991 147.395H350.053C350.752 146.023 351.868 145.01 353.261 145.01C353.452 145.01 353.641 145.032 353.81 145.032L353.324 147.437C353.198 147.415 353.029 147.415 352.86 147.415C351.108 147.415 349.991 149.187 349.591 151.381L348.81 155.516H346.364Z" fill="#18191B"/>
<path d="M355.678 146.183H355.857C356.042 146.183 356.164 146.08 356.164 145.924C356.164 145.75 356.036 145.673 355.851 145.673C355.766 145.673 355.706 145.679 355.678 145.686V146.183ZM355.501 145.563C355.591 145.547 355.719 145.535 355.838 145.535C356.025 145.535 356.149 145.573 356.231 145.647C356.298 145.707 356.338 145.8 356.338 145.907C356.338 146.084 356.226 146.203 356.083 146.251V146.258C356.187 146.293 356.248 146.391 356.283 146.532C356.326 146.72 356.359 146.852 356.387 146.905H356.205C356.183 146.864 356.153 146.749 356.118 146.58C356.077 146.392 356.001 146.323 355.842 146.316H355.678V146.905H355.501V145.563Z" fill="#18191B"/>
<path d="M355.904 145.01C355.234 145.01 354.689 145.555 354.689 146.226C354.689 146.896 355.234 147.442 355.904 147.442C356.575 147.442 357.12 146.896 357.12 146.226C357.12 145.555 356.575 145.01 355.904 145.01ZM355.904 145.198C356.471 145.198 356.931 145.657 356.931 146.226C356.931 146.794 356.471 147.255 355.904 147.255C355.336 147.255 354.876 146.794 354.876 146.226C354.876 145.657 355.336 145.198 355.904 145.198Z" fill="#18191B"/>
<path d="M260.853 93.4741H263.616C265.749 93.4741 266.815 92.7712 266.815 91.4142C266.815 90.0815 265.676 89.3544 263.446 89.3544H260.853V93.4741ZM260.853 83.5381V87.3672H263.277C265.094 87.3672 266.039 86.6885 266.039 85.4527C266.039 84.1923 265.07 83.5381 263.252 83.5381H260.853ZM257 95.5342V93.4741H258.624V83.5381H257V81.478H263.495C266.475 81.478 268.293 82.8594 268.293 85.2587C268.293 86.8339 267.372 87.8034 266.209 88.2637C267.881 88.7243 269.069 89.9118 269.069 91.5354C269.069 94.1042 267.081 95.5342 263.834 95.5342H257Z" fill="#18191B"/>
<path d="M280.846 88.2153C280.604 87.3914 279.998 86.9065 279.198 86.9065C277.333 86.9065 275.563 88.2879 275.563 90.8083V93.4741H279.15V95.5342H271.153V93.4741H273.431V87.2701H271.637V85.2101H275.539V86.9549C276.194 85.7433 277.526 84.871 279.295 84.871C281.283 84.871 282.518 86.01 282.882 87.6336L280.846 88.2153Z" fill="#18191B"/>
<path d="M291.753 91.3661C291.074 91.1237 290.056 90.9299 289.111 90.9299C287.754 90.9299 286.445 91.3661 286.445 92.6021C286.445 93.5228 287.269 93.9593 288.408 93.9593C289.983 93.9593 291.753 93.1109 291.753 91.657V91.3661ZM291.753 89.5244V88.9428C291.753 87.4886 290.589 86.8827 289.329 86.8827C288.142 86.8827 287.124 87.3676 286.3 88.1186L284.894 86.5921C285.864 85.6953 287.245 84.8714 289.329 84.8714C291.922 84.8714 293.934 86.2528 293.934 88.8699V93.4744H295.436V95.5345H291.753V94.4439C291.195 95.3406 289.693 95.8735 288.214 95.8735C286.082 95.8735 284.24 94.7832 284.24 92.6263C284.24 90.0818 286.736 89.1124 289.014 89.1124C290.129 89.1124 291.05 89.3305 291.753 89.5244Z" fill="#18191B"/>
<path d="M304.404 83.1505H302.005V80.0001H304.404V83.1505ZM308.378 93.4741V95.5342H297.958V93.4741H302.271V87.2702H298.975V85.2102H304.404V93.4741H308.378Z" fill="#18191B"/>
<path d="M310.948 93.4741H312.523V87.2701H311.044V85.2101H314.631V86.543C315.261 85.5252 316.57 84.871 318.169 84.871C320.472 84.871 322.119 86.325 322.119 88.6757V93.4741H323.695V95.5342H318.339V93.4741H319.987V89.2572C319.987 87.464 318.896 86.9549 317.903 86.9549C316.279 86.9549 314.656 88.1669 314.656 90.0327V93.4741H316.303V95.5342H310.948V93.4741Z" fill="#18191B"/>
<path d="M326.627 87.2705H323.938V85.2105H326.627V81.4785H328.76V85.2105H333.776V87.2705H328.76V91.6083C328.76 93.208 329.875 93.8622 331.159 93.8622C332.371 93.8622 333.389 93.1838 334.14 92.4325L335.57 93.9106C334.625 94.9286 333.171 95.8735 331.159 95.8735C328.566 95.8735 326.627 94.4439 326.627 91.6812V87.2705Z" fill="#18191B"/>
<path d="M347.203 88.2153C346.96 87.3914 346.355 86.9065 345.555 86.9065C343.689 86.9065 341.92 88.2879 341.92 90.8083V93.4741H345.507V95.5342H337.509V93.4741H339.787V87.2701H337.994V85.2101H341.896V86.9549C342.55 85.7433 343.883 84.871 345.652 84.871C347.639 84.871 348.875 86.01 349.239 87.6336L347.203 88.2153Z" fill="#18191B"/>
<path d="M352.946 89.3063H359.295C358.98 87.828 357.672 86.8343 356.218 86.8343C354.569 86.8343 353.309 87.8522 352.946 89.3063ZM361.549 93.9593C360.483 95.0738 358.593 95.8735 356.484 95.8735C353.019 95.8735 350.595 93.5471 350.595 90.3725C350.595 87.1979 352.946 84.8714 356.218 84.8714C359.465 84.8714 361.743 87.3676 361.743 90.7602V91.1237H352.849C353.212 92.8445 354.642 93.8864 356.508 93.8864C358.059 93.8864 359.392 93.2564 360.119 92.4567L361.549 93.9593Z" fill="#18191B"/>
<path d="M366.203 89.3063H372.552C372.237 87.828 370.928 86.8343 369.474 86.8343C367.827 86.8343 366.566 87.8522 366.203 89.3063ZM374.806 93.9593C373.739 95.0738 371.849 95.8735 369.741 95.8735C366.275 95.8735 363.852 93.5471 363.852 90.3725C363.852 87.1979 366.203 84.8714 369.474 84.8714C372.722 84.8714 375 87.3676 375 90.7602V91.1237H366.106C366.469 92.8445 367.899 93.8864 369.765 93.8864C371.316 93.8864 372.649 93.2564 373.376 92.4567L374.806 93.9593Z" fill="#18191B"/>
<rect x="246" y="67" width="139" height="42" stroke="black" stroke-width="4"/>
<rect x="39.708" y="17" width="32.8102" height="242" stroke="black" stroke-width="4"/>
<rect x="39.708" y="17" width="418.869" height="31.9124" fill="black" stroke="black" stroke-width="4"/>
<rect x="47" y="24" width="18" height="18" fill="white"/>
<path d="M5.99951 248.091L71.0908 183" stroke="#3B96FF" stroke-width="8"/>
<circle cx="395.071" cy="14.0709" r="10.0709" stroke="#3B96FF" stroke-width="8"/>
<path d="M381.569 228.586L400.33 209.825L419.092 228.586L437.853 209.825L456.614 228.586L475.375 209.825" stroke="#D976FF" stroke-width="8"/>
<g style="mix-blend-mode:lighten">
<rect width="475" height="261" fill="url(#paint0_linear)"/>
</g>
<g style="mix-blend-mode:lighten">
<path d="M0 2.14502H475V261H0V2.14502Z" fill="url(#paint1_linear)"/>
</g>
<defs>
<linearGradient id="paint0_linear" x1="138.63" y1="23.0061" x2="313.499" y2="322.684" gradientUnits="userSpaceOnUse">
<stop stop-color="#0076FF" stop-opacity="0"/>
<stop offset="0.444533" stop-color="#0076FF"/>
<stop offset="1" stop-color="#0076FF" stop-opacity="0.4"/>
</linearGradient>
<linearGradient id="paint1_linear" x1="437.879" y1="230.252" x2="356.64" y2="99.2572" gradientUnits="userSpaceOnUse">
<stop stop-color="#D976FF"/>
<stop offset="0.211217" stop-color="#BD76FF" stop-opacity="0.870665"/>
<stop offset="1" stop-color="#0076FF" stop-opacity="0"/>
</linearGradient>
</defs>
</svg>
