<svg width="492" height="261" viewBox="0 0 492 261" fill="none" xmlns="http://www.w3.org/2000/svg">
<rect width="492" height="261" fill="#F5F6FA"/>
<mask id="mask0" mask-type="alpha" maskUnits="userSpaceOnUse" x="0" y="0" width="492" height="261">
<rect width="492" height="261" fill="#F5F6FA"/>
</mask>
<g mask="url(#mask0)">
<rect x="55.708" y="17" width="418.869" height="242" stroke="black" stroke-width="4"/>
<rect x="55.708" y="17" width="418.869" height="242" stroke="black" stroke-width="4"/>
<rect x="106" y="67" width="139" height="42" stroke="black" stroke-width="4"/>
<path fill-rule="evenodd" clip-rule="evenodd" d="M160.277 95.5561C156.692 98.2015 151.495 99.6083 147.02 99.6083C140.748 99.6083 135.1 97.2898 130.826 93.4305C130.491 93.1271 130.79 92.7134 131.193 92.948C135.804 95.6314 141.507 97.2475 147.396 97.2475C151.37 97.2475 155.737 96.4227 159.756 94.718C160.362 94.4614 160.87 95.1175 160.277 95.5561Z" fill="#18191B"/>
<path fill-rule="evenodd" clip-rule="evenodd" d="M161.768 93.8528C161.309 93.2659 158.737 93.5748 157.582 93.7133C157.232 93.7556 157.177 93.4495 157.493 93.228C159.545 91.7866 162.907 92.2026 163.298 92.6856C163.691 93.172 163.194 96.5433 161.272 98.1518C160.976 98.3991 160.694 98.2672 160.825 97.9408C161.259 96.8599 162.227 94.4408 161.768 93.8528Z" fill="#18191B"/>
<path fill-rule="evenodd" clip-rule="evenodd" d="M157.662 83.0462V81.646C157.664 81.4328 157.824 81.291 158.017 81.2916L164.294 81.291C164.495 81.291 164.656 81.4366 164.656 81.6444V82.8451C164.654 83.0468 164.484 83.3094 164.184 83.7265L160.932 88.369C162.139 88.3409 163.415 88.5217 164.512 89.1377C164.76 89.2768 164.826 89.4828 164.845 89.6845V91.1787C164.845 91.3848 164.62 91.6227 164.383 91.4991C162.451 90.4868 159.887 90.3764 157.751 91.5112C157.533 91.6277 157.305 91.3925 157.305 91.1864V89.7659C157.305 89.5389 157.309 89.1498 157.538 88.8036L161.305 83.3996L158.025 83.399C157.825 83.399 157.664 83.2561 157.662 83.0462Z" fill="#18191B"/>
<path fill-rule="evenodd" clip-rule="evenodd" d="M134.767 91.7937H132.857C132.676 91.7821 132.53 91.6459 132.516 91.4711L132.517 81.6703C132.517 81.4746 132.682 81.318 132.886 81.318L134.664 81.3175C134.85 81.3268 134.999 81.4675 135.011 81.6466V82.9259H135.047C135.511 81.6884 136.384 81.1108 137.56 81.1108C138.754 81.1108 139.503 81.6884 140.038 82.9259C140.501 81.6884 141.553 81.1108 142.676 81.1108C143.478 81.1108 144.351 81.4411 144.886 82.1835C145.492 83.0089 145.368 84.2047 145.368 85.2565L145.366 91.4414C145.366 91.6365 145.202 91.7937 144.998 91.7937H143.091C142.898 91.7816 142.748 91.6299 142.748 91.442L142.747 86.2462C142.747 85.834 142.783 84.8031 142.693 84.4113C142.551 83.7508 142.124 83.565 141.571 83.565C141.108 83.565 140.626 83.8744 140.43 84.369C140.234 84.8647 140.252 85.689 140.252 86.2462V91.4414C140.252 91.6365 140.087 91.7937 139.884 91.7937H137.976C137.785 91.7816 137.633 91.6299 137.633 91.442L137.631 86.2462C137.631 85.1532 137.81 83.5453 136.455 83.5453C135.082 83.5453 135.136 85.112 135.136 86.2462L135.135 91.4414C135.135 91.6365 134.97 91.7937 134.767 91.7937Z" fill="#18191B"/>
<path fill-rule="evenodd" clip-rule="evenodd" d="M170.077 83.1117C168.669 83.1117 168.58 85.029 168.58 86.2253C168.58 87.4216 168.562 89.9791 170.06 89.9791C171.539 89.9791 171.611 87.9168 171.611 86.6589C171.611 85.834 171.574 84.8438 171.325 84.0602C171.111 83.3793 170.683 83.1117 170.077 83.1117ZM170.06 81.1108C172.894 81.1108 174.426 83.5453 174.426 86.6386C174.426 89.628 172.733 92.0003 170.06 92.0003C167.279 92.0003 165.764 89.5664 165.764 86.5352C165.764 83.4826 167.296 81.1108 170.06 81.1108Z" fill="#18191B"/>
<path fill-rule="evenodd" clip-rule="evenodd" d="M178.103 91.7937H176.2C176.009 91.7816 175.857 91.6299 175.857 91.442L175.854 81.6378C175.87 81.4581 176.029 81.318 176.221 81.318L177.992 81.3175C178.159 81.3263 178.297 81.4395 178.332 81.5917V83.0908H178.368C178.903 81.7499 179.651 81.1108 180.97 81.1108C181.825 81.1108 182.663 81.4202 183.198 82.266C183.697 83.0496 183.697 84.369 183.697 85.318V91.4854C183.676 91.6591 183.52 91.7937 183.331 91.7937H181.417C181.24 91.7827 181.098 91.6525 181.077 91.4854V86.1643C181.077 85.0916 181.202 83.5238 179.883 83.5238C179.419 83.5238 178.991 83.8332 178.777 84.3075C178.51 84.9059 178.474 85.5038 178.474 86.1643V91.4414C178.471 91.6365 178.306 91.7937 178.103 91.7937Z" fill="#18191B"/>
<path fill-rule="evenodd" clip-rule="evenodd" d="M154.584 91.7692C154.458 91.8824 154.276 91.8901 154.133 91.8138C153.499 91.2868 153.385 91.0433 153.039 90.541C151.991 91.6088 151.248 91.9292 149.89 91.9292C148.283 91.9292 147.032 90.9367 147.032 88.9529C147.032 87.4027 147.872 86.3487 149.069 85.8321C150.105 85.3771 151.552 85.2947 152.659 85.1705V84.9227C152.659 84.4671 152.695 83.9308 152.427 83.5378C152.195 83.1861 151.748 83.0416 151.355 83.0416C150.627 83.0416 149.98 83.4147 149.821 84.1879C149.787 84.3599 149.662 84.5308 149.489 84.5396L147.638 84.3391C147.482 84.3033 147.308 84.178 147.353 83.9395C147.773 81.7255 149.75 81.0353 151.547 81.0166H151.689C152.609 81.0281 153.784 81.2804 154.499 81.9667C155.428 82.835 155.338 83.9923 155.338 85.2535V88.2281C155.338 89.1233 155.71 89.5156 156.059 89.9976C156.182 90.1718 156.209 90.3778 156.053 90.5053C155.663 90.8323 154.97 91.434 154.589 91.7736L154.584 91.7692ZM152.659 87.1136C152.659 87.8577 152.677 88.4776 152.302 89.1392C151.998 89.6761 151.516 90.0069 150.98 90.0069C150.248 90.0069 149.819 89.4491 149.819 88.6221C149.819 86.9955 151.278 86.6998 152.659 86.6998V87.1136Z" fill="#18191B"/>
<path fill-rule="evenodd" clip-rule="evenodd" d="M129.552 91.7692C129.426 91.8824 129.243 91.8901 129.101 91.8138C128.466 91.2868 128.353 91.0433 128.006 90.541C126.958 91.6088 126.216 91.9292 124.858 91.9292C123.251 91.9292 122 90.9367 122 88.9529C122 87.4027 122.839 86.3487 124.037 85.8321C125.072 85.3771 126.519 85.2947 127.627 85.1705V84.9227C127.627 84.4671 127.663 83.9308 127.395 83.5378C127.162 83.1861 126.716 83.0416 126.323 83.0416C125.594 83.0416 124.947 83.4147 124.788 84.1879C124.755 84.3599 124.629 84.5308 124.456 84.5396L122.606 84.3391C122.449 84.3033 122.275 84.178 122.32 83.9395C122.74 81.7255 124.717 81.0353 126.515 81.0166H126.657C127.577 81.0281 128.752 81.2804 129.467 81.9667C130.396 82.835 130.306 83.9923 130.306 85.2535V88.2281C130.306 89.1233 130.678 89.5156 131.027 89.9976C131.149 90.1718 131.177 90.3778 131.021 90.5053C130.631 90.8323 129.937 91.434 129.557 91.7736L129.552 91.7692ZM127.627 87.1136C127.627 87.8577 127.645 88.4776 127.269 89.1392C126.966 89.6761 126.484 90.0069 125.947 90.0069C125.215 90.0069 124.787 89.4491 124.787 88.6221C124.787 86.9955 126.246 86.6998 127.627 86.6998V87.1136Z" fill="#18191B"/>
<path fill-rule="evenodd" clip-rule="evenodd" d="M209.8 95.3089C209.8 95.0605 209.8 94.8374 209.8 94.589C209.8 94.384 209.9 94.2428 210.114 94.2554C210.513 94.312 211.078 94.3686 211.478 94.2862C212.001 94.1774 212.377 93.8065 212.599 93.2982C212.911 92.5827 213.119 92.0057 213.249 91.627L209.277 81.7861C209.21 81.619 209.19 81.3091 209.524 81.3091H210.912C211.177 81.3091 211.285 81.4772 211.344 81.6421L214.224 89.6355L216.973 81.6421C217.03 81.4783 217.142 81.3091 217.405 81.3091H218.714C219.046 81.3091 219.027 81.6185 218.961 81.7861L215.02 91.9342C214.51 93.285 213.831 95.4364 212.301 95.8101C211.534 96.0106 210.567 95.9381 209.998 95.7002C209.855 95.6282 209.8 95.4358 209.8 95.3089Z" fill="#18191B"/>
<path fill-rule="evenodd" clip-rule="evenodd" d="M207.947 91.1938C207.947 91.3768 207.797 91.5268 207.613 91.5268H206.634C206.423 91.5268 206.278 91.374 206.251 91.1938L206.153 90.5272C205.703 90.908 205.15 91.2427 204.551 91.4757C203.4 91.923 202.072 91.9972 200.946 91.3059C200.133 90.8063 199.701 89.8298 199.701 88.8225C199.701 88.0433 199.941 87.2707 200.473 86.7096C201.184 85.943 202.214 85.5666 203.457 85.5666C204.208 85.5666 205.283 85.6551 206.065 85.9106V84.5692C206.065 83.2053 205.491 82.6151 203.977 82.6151C202.82 82.6151 201.935 82.7898 200.702 83.1728C200.505 83.1794 200.39 83.0294 200.39 82.8464V82.0815C200.39 81.8979 200.546 81.7204 200.716 81.6666C201.596 81.283 202.842 81.044 204.167 81C205.894 81 207.947 81.3896 207.947 84.046V91.1938ZM206.065 89.2352V87.2113C205.408 87.0316 204.321 86.9569 203.9 86.9569C203.235 86.9569 202.507 87.1141 202.126 87.5235C201.842 87.8235 201.714 88.2543 201.714 88.6709C201.714 89.2094 201.9 89.7496 202.335 90.0167C202.841 90.3601 203.625 90.3184 204.362 90.109C205.07 89.9079 205.735 89.5523 206.065 89.2352Z" fill="#18191B"/>
<path fill-rule="evenodd" clip-rule="evenodd" d="M193.509 82.6456C195.682 82.6456 196.274 84.3541 196.274 86.3104C196.286 87.6293 196.044 88.8053 195.361 89.4784C194.85 89.9824 194.279 90.1197 193.419 90.1197C192.654 90.1197 191.648 89.7208 190.896 89.1652V83.5715C191.679 82.9704 192.677 82.6456 193.509 82.6456ZM190.563 95.6606H189.252C189.068 95.6606 188.918 95.5106 188.918 95.3276C188.918 90.772 188.918 86.2159 188.918 81.6603C188.918 81.4773 189.068 81.3273 189.252 81.3273H190.256C190.467 81.3273 190.611 81.48 190.638 81.6603L190.744 82.3763C191.684 81.5416 192.894 81.0063 194.048 81.0063C197.279 81.0063 198.341 83.6683 198.341 86.4362C198.341 89.3977 196.716 91.7771 193.968 91.7771C192.81 91.7771 191.728 91.3501 190.896 90.6083V95.3276C190.896 95.5106 190.746 95.6606 190.563 95.6606Z" fill="#18191B"/>
<rect x="106" y="127" width="139" height="42" stroke="black" stroke-width="4"/>
<path d="M159.156 141.697H154.397C154.24 141.697 154.087 141.753 153.968 141.855C153.848 141.957 153.769 142.099 153.744 142.255L151.819 154.458C151.81 154.515 151.814 154.573 151.83 154.628C151.845 154.683 151.873 154.734 151.91 154.778C151.947 154.821 151.994 154.856 152.046 154.88C152.098 154.904 152.154 154.916 152.212 154.916H154.484C154.641 154.916 154.794 154.86 154.914 154.758C155.033 154.655 155.113 154.513 155.137 154.357L155.656 151.066C155.681 150.91 155.76 150.769 155.879 150.666C155.999 150.564 156.151 150.507 156.309 150.507H157.816C160.95 150.507 162.76 148.99 163.232 145.984C163.445 144.669 163.241 143.635 162.625 142.912C161.949 142.117 160.749 141.697 159.156 141.697ZM159.706 146.154C159.445 147.861 158.14 147.861 156.879 147.861H156.161L156.665 144.672C156.679 144.579 156.727 144.494 156.799 144.433C156.871 144.371 156.962 144.338 157.056 144.338H157.385C158.245 144.338 159.056 144.338 159.474 144.827C159.724 145.12 159.801 145.554 159.706 146.154ZM173.382 146.099H171.103C171.009 146.099 170.917 146.133 170.846 146.194C170.774 146.255 170.726 146.34 170.711 146.434L170.61 147.071L170.451 146.84C169.958 146.124 168.858 145.885 167.76 145.885C165.241 145.885 163.09 147.792 162.671 150.468C162.453 151.802 162.763 153.078 163.52 153.968C164.215 154.787 165.208 155.128 166.391 155.128C168.42 155.128 169.545 153.823 169.545 153.823L169.444 154.456C169.434 154.513 169.438 154.571 169.453 154.626C169.469 154.681 169.496 154.732 169.533 154.776C169.57 154.82 169.617 154.855 169.669 154.879C169.721 154.903 169.777 154.915 169.835 154.916H171.887C172.045 154.916 172.198 154.859 172.317 154.757C172.437 154.654 172.516 154.512 172.541 154.357L173.773 146.557C173.782 146.5 173.778 146.442 173.763 146.387C173.747 146.332 173.72 146.281 173.683 146.238C173.646 146.194 173.6 146.159 173.548 146.135C173.496 146.111 173.439 146.099 173.382 146.099ZM170.205 150.534C169.986 151.836 168.952 152.71 167.634 152.71C166.972 152.71 166.444 152.498 166.104 152.096C165.767 151.696 165.639 151.128 165.746 150.495C165.952 149.204 167.002 148.301 168.3 148.301C168.947 148.301 169.473 148.516 169.82 148.922C170.167 149.332 170.305 149.904 170.205 150.534ZM185.519 146.099H183.229C183.121 146.099 183.015 146.126 182.92 146.176C182.824 146.227 182.743 146.3 182.682 146.389L179.523 151.042L178.184 146.571C178.143 146.434 178.059 146.315 177.945 146.23C177.831 146.145 177.692 146.099 177.55 146.099H175.299C175.236 146.099 175.174 146.114 175.118 146.142C175.061 146.171 175.013 146.213 174.976 146.264C174.939 146.316 174.915 146.375 174.906 146.437C174.897 146.5 174.902 146.564 174.923 146.624L177.445 154.026L175.074 157.374C175.032 157.433 175.007 157.503 175.002 157.576C174.996 157.648 175.011 157.721 175.045 157.786C175.078 157.85 175.129 157.905 175.191 157.942C175.253 157.98 175.325 158 175.397 158H177.685C177.791 158 177.897 157.975 177.991 157.925C178.086 157.876 178.167 157.804 178.228 157.716L185.845 146.722C185.886 146.662 185.911 146.593 185.915 146.52C185.92 146.448 185.904 146.376 185.871 146.312C185.837 146.248 185.787 146.194 185.725 146.156C185.663 146.119 185.592 146.099 185.519 146.099Z" fill="#18191B"/>
<path d="M193.102 141.696H188.343C188.185 141.697 188.033 141.753 187.913 141.855C187.794 141.957 187.714 142.099 187.69 142.255L185.765 154.458C185.756 154.515 185.76 154.572 185.775 154.627C185.791 154.683 185.818 154.734 185.855 154.777C185.892 154.821 185.938 154.856 185.99 154.88C186.042 154.904 186.099 154.916 186.156 154.916H188.599C188.709 154.916 188.815 154.876 188.899 154.805C188.983 154.733 189.038 154.634 189.055 154.525L189.601 151.066C189.626 150.91 189.705 150.768 189.825 150.666C189.944 150.563 190.097 150.507 190.254 150.507H191.76C194.896 150.507 196.704 148.99 197.177 145.984C197.391 144.669 197.186 143.635 196.57 142.911C195.894 142.117 194.695 141.696 193.102 141.696ZM193.651 146.154C193.392 147.861 192.087 147.861 190.825 147.861H190.107L190.612 144.672C190.626 144.579 190.674 144.494 190.745 144.432C190.817 144.371 190.909 144.337 191.003 144.337H191.332C192.191 144.337 193.002 144.337 193.421 144.827C193.671 145.119 193.747 145.554 193.651 146.154ZM207.327 146.099H205.05C204.955 146.098 204.864 146.132 204.792 146.193C204.72 146.255 204.673 146.34 204.659 146.433L204.558 147.071L204.398 146.84C203.904 146.124 202.805 145.884 201.707 145.884C199.188 145.884 197.038 147.792 196.619 150.467C196.402 151.802 196.71 153.078 197.468 153.968C198.163 154.787 199.156 155.127 200.338 155.127C202.367 155.127 203.492 153.823 203.492 153.823L203.391 154.456C203.382 154.513 203.385 154.571 203.401 154.626C203.416 154.681 203.444 154.733 203.481 154.776C203.518 154.82 203.565 154.855 203.617 154.879C203.669 154.903 203.726 154.915 203.783 154.915H205.835C205.993 154.915 206.145 154.859 206.265 154.756C206.385 154.654 206.464 154.512 206.488 154.356L207.721 146.556C207.729 146.5 207.726 146.442 207.71 146.387C207.694 146.332 207.667 146.281 207.629 146.237C207.592 146.194 207.546 146.159 207.493 146.135C207.441 146.111 207.385 146.099 207.327 146.099ZM204.151 150.534C203.932 151.836 202.897 152.71 201.579 152.71C200.919 152.71 200.389 152.498 200.049 152.096C199.712 151.696 199.586 151.128 199.692 150.494C199.898 149.204 200.948 148.301 202.245 148.301C202.893 148.301 203.419 148.516 203.765 148.922C204.114 149.332 204.252 149.904 204.151 150.534ZM210.014 142.031L208.061 154.458C208.052 154.515 208.055 154.572 208.071 154.627C208.086 154.683 208.114 154.734 208.151 154.777C208.188 154.821 208.234 154.856 208.286 154.88C208.338 154.904 208.395 154.916 208.452 154.916H210.416C210.742 154.916 211.019 154.679 211.069 154.357L212.995 142.154C213.004 142.098 213.001 142.04 212.985 141.985C212.97 141.93 212.942 141.879 212.905 141.835C212.868 141.791 212.822 141.756 212.77 141.732C212.718 141.708 212.661 141.696 212.604 141.696H210.405C210.311 141.696 210.22 141.73 210.148 141.792C210.076 141.853 210.029 141.938 210.014 142.031Z" fill="#18191B"/>
<path d="M132.056 157.287L132.42 154.976L131.609 154.957H127.738L130.429 137.899C130.437 137.847 130.463 137.799 130.503 137.765C130.543 137.731 130.594 137.712 130.647 137.712H137.174C139.341 137.712 140.837 138.163 141.617 139.053C141.983 139.471 142.217 139.907 142.329 140.387C142.448 140.891 142.45 141.493 142.334 142.227L142.326 142.281V142.751L142.692 142.959C142.971 143.1 143.222 143.292 143.433 143.524C143.746 143.881 143.949 144.334 144.034 144.872C144.123 145.425 144.093 146.084 143.949 146.829C143.782 147.686 143.512 148.433 143.147 149.044C142.825 149.591 142.393 150.065 141.877 150.436C141.393 150.779 140.817 151.04 140.167 151.207C139.536 151.372 138.817 151.454 138.029 151.454H137.521C137.158 151.454 136.805 151.585 136.528 151.82C136.251 152.057 136.068 152.384 136.01 152.744L135.972 152.952L135.329 157.026L135.3 157.176C135.292 157.223 135.279 157.247 135.259 157.263C135.24 157.278 135.217 157.287 135.192 157.287H132.056Z" fill="#18191B"/>
<path d="M143.039 142.335C143.019 142.46 142.997 142.587 142.972 142.718C142.111 147.138 139.166 148.664 135.405 148.664H133.49C133.03 148.664 132.642 148.998 132.571 149.452L131.59 155.67L131.313 157.433C131.302 157.503 131.306 157.574 131.325 157.643C131.344 157.711 131.378 157.774 131.424 157.828C131.47 157.882 131.527 157.925 131.591 157.954C131.656 157.984 131.726 157.999 131.796 157.999H135.193C135.595 157.999 135.937 157.707 136 157.311L136.033 157.138L136.673 153.08L136.714 152.857C136.777 152.459 137.119 152.167 137.521 152.167H138.029C141.32 152.167 143.896 150.831 144.649 146.964C144.964 145.349 144.801 144.001 143.968 143.052C143.705 142.759 143.39 142.516 143.039 142.335Z" fill="#18191B"/>
<path d="M142.138 141.976C141.863 141.897 141.583 141.835 141.301 141.79C140.742 141.705 140.178 141.663 139.613 141.667H134.496C134.302 141.667 134.113 141.737 133.966 141.863C133.818 141.99 133.72 142.165 133.69 142.358L132.602 149.251L132.57 149.452C132.604 149.232 132.716 149.032 132.884 148.888C133.053 148.743 133.268 148.664 133.49 148.664H135.405C139.166 148.664 142.111 147.137 142.971 142.718C142.997 142.587 143.019 142.46 143.038 142.335C142.811 142.216 142.574 142.116 142.331 142.037C142.267 142.016 142.202 141.995 142.138 141.976Z" fill="#9B9B9B"/>
<path d="M133.69 142.358C133.72 142.165 133.817 141.99 133.965 141.863C134.113 141.737 134.302 141.667 134.497 141.668H139.613C140.219 141.668 140.784 141.708 141.301 141.791C141.65 141.846 141.995 141.928 142.331 142.037C142.585 142.121 142.821 142.22 143.039 142.335C143.295 140.702 143.037 139.59 142.154 138.583C141.18 137.475 139.423 137 137.175 137H130.648C130.188 137 129.797 137.334 129.726 137.788L127.007 155.022C126.994 155.102 126.999 155.183 127.021 155.261C127.043 155.339 127.082 155.412 127.134 155.473C127.187 155.535 127.252 155.584 127.326 155.618C127.399 155.652 127.479 155.67 127.56 155.67H131.59L132.602 149.251L133.69 142.358Z" fill="#18191B"/>
<rect x="106" y="187" width="139" height="42" stroke="black" stroke-width="4"/>
<path fill-rule="evenodd" clip-rule="evenodd" d="M178.298 204.233C179.191 204.233 179.915 203.509 179.915 202.617C179.915 201.724 179.191 201 178.298 201C177.406 201 176.683 201.724 176.683 202.617C176.683 203.509 177.406 204.233 178.298 204.233ZM165.914 205.105C165.841 205.289 165.316 206.772 164.046 208.31V201.736L160.661 202.405V214.32H164.046V210.637C165.026 212.107 165.51 214.32 165.51 214.32H169.563C169.162 212.654 167.408 209.58 167.408 209.58C168.983 207.584 169.674 205.458 169.784 205.105H165.914ZM174.811 204.981C171.779 205.078 170.241 206.438 170.241 209.142V214.32H173.548V210.097C173.548 208.478 173.76 207.785 175.68 207.718V205.028C175.357 204.96 174.811 204.981 174.811 204.981ZM154.986 206.418C154.571 206.39 153.612 206.328 153.612 205.464C153.612 204.422 154.993 204.422 155.512 204.422C156.423 204.422 157.603 204.691 158.446 204.943C158.446 204.943 158.916 205.109 159.316 205.279L159.353 205.289V202.434L159.302 202.418C158.307 202.07 157.151 201.736 155.007 201.736C151.31 201.736 150 203.889 150 205.734C150 206.798 150.456 209.301 154.69 209.59C155.049 209.612 156.001 209.667 156.001 210.559C156.001 211.296 155.221 211.731 153.91 211.731C152.472 211.731 151.078 211.365 150.231 211.017V213.958C151.499 214.29 152.928 214.456 154.603 214.456C158.218 214.456 159.837 212.418 159.837 210.399C159.837 208.109 158.025 206.621 154.986 206.418ZM176.659 214.32H179.939V205.116H176.659V214.32ZM186.115 202.323V214.32H189.396V201.736L186.115 202.323ZM181.328 202.323L184.606 201.736V214.32H181.328V202.323Z" fill="#18191B"/>
<rect x="262" y="187" width="139" height="42" stroke="black" stroke-width="4"/>
<path fill-rule="evenodd" clip-rule="evenodd" d="M353 208.749C353 205.478 351.416 202.897 348.387 202.897C345.346 202.897 343.506 205.478 343.506 208.724C343.506 212.57 345.679 214.512 348.796 214.512C350.317 214.512 351.467 214.167 352.336 213.681V211.126C351.467 211.56 350.47 211.829 349.205 211.829C347.966 211.829 346.867 211.394 346.726 209.886H352.975C352.975 209.72 353 209.056 353 208.749ZM346.688 207.535C346.688 206.091 347.57 205.491 348.375 205.491C349.154 205.491 349.985 206.091 349.985 207.535H346.688Z" fill="#18191B"/>
<path fill-rule="evenodd" clip-rule="evenodd" d="M338.574 202.897C337.322 202.897 336.517 203.485 336.069 203.894L335.903 203.101H333.092V218L336.287 217.323L336.299 213.707C336.759 214.039 337.437 214.512 338.561 214.512C340.848 214.512 342.931 212.672 342.931 208.621C342.918 204.916 340.81 202.897 338.574 202.897ZM337.807 211.701C337.053 211.701 336.606 211.433 336.299 211.1L336.287 206.36C336.619 205.989 337.079 205.734 337.807 205.734C338.97 205.734 339.775 207.037 339.775 208.711C339.775 210.423 338.983 211.701 337.807 211.701Z" fill="#18191B"/>
<path fill-rule="evenodd" clip-rule="evenodd" d="M331.904 201.453V198.859L328.696 199.536V202.143L331.904 201.453Z" fill="#18191B"/>
<path d="M331.904 203.114H328.696V214.294H331.904V203.114Z" fill="#18191B"/>
<path fill-rule="evenodd" clip-rule="evenodd" d="M325.259 204.059L325.055 203.114H322.295V214.294H325.489V206.717C326.243 205.733 327.521 205.912 327.917 206.052V203.114C327.508 202.96 326.013 202.679 325.259 204.059Z" fill="#18191B"/>
<path fill-rule="evenodd" clip-rule="evenodd" d="M318.871 200.341L315.753 201.005L315.74 211.24C315.74 213.131 317.159 214.524 319.05 214.524C320.097 214.524 320.864 214.332 321.286 214.102V211.509C320.877 211.675 318.858 212.262 318.858 210.371V205.835H321.286V203.114H318.858L318.871 200.341Z" fill="#18191B"/>
<path fill-rule="evenodd" clip-rule="evenodd" d="M310.233 206.36C310.233 205.861 310.642 205.67 311.319 205.67C312.29 205.67 313.517 205.964 314.488 206.488V203.485C313.427 203.063 312.379 202.897 311.319 202.897C308.725 202.897 307 204.251 307 206.513C307 210.04 311.856 209.478 311.856 210.998C311.856 211.586 311.344 211.778 310.629 211.778C309.568 211.778 308.214 211.343 307.141 210.755V213.796C308.329 214.307 309.53 214.525 310.629 214.525C313.287 214.525 315.114 213.209 315.114 210.921C315.101 207.114 310.233 207.791 310.233 206.36Z" fill="#18191B"/>
<rect x="418" y="67" width="37" height="42" stroke="black" stroke-width="4"/>
<path d="M448.946 87.5112C448.939 89.1999 447.71 90.4997 446.143 90.4735C444.596 90.4506 443.328 89.1111 443.317 87.4875C443.305 85.7903 444.538 84.5523 446.221 84.5718C447.778 84.5904 448.953 85.8546 448.946 87.5112ZM447.247 91.4772C447.599 91.3969 448.56 91.0333 448.56 91.0333C448.56 91.0333 448.225 91.8823 448.011 92.3795C445.86 97.4796 440.555 100.558 435.033 99.9159C429.658 99.2901 425.226 95.1076 424.258 89.7488C422.952 82.5211 428.049 75.8481 435.434 75.1167C441.021 74.5628 446.156 77.9986 448.098 82.8881C448.209 83.168 448.287 83.4623 448.44 83.9418C447.06 83.3794 445.864 83.1705 444.634 83.6525C442.541 84.472 441.509 86.6656 442.194 88.8422C442.831 90.8675 445.011 91.9889 447.247 91.4772ZM429.695 90.3483C429.695 90.3483 430.264 89.8223 430.434 89.6811C431.247 89.0063 432.096 88.3721 432.802 87.5797C433.866 86.3857 433.72 84.647 432.502 83.8521C431.259 83.0411 429.367 83.343 428.432 84.5083C428.341 84.6225 428.031 85.0555 428.031 85.0555L428.959 85.6508C428.959 85.6508 429.147 85.4377 429.252 85.2982C429.472 85.0056 429.783 84.7756 430.13 84.6622C430.752 84.4584 431.382 84.4635 431.848 84.9946C432.332 85.5476 432.275 86.1785 431.908 86.789C431.694 87.145 431.417 87.4444 431.096 87.7133C430.17 88.4921 429.258 89.2667 428.336 90.0515C428.191 90.175 427.437 90.761 427.437 90.761L427.431 91.4138H433.495L433.49 90.3483L432.903 90.3509L429.695 90.3483ZM436.174 86.269C436.616 85.1502 437.58 84.5532 438.853 84.5667C439.421 84.5726 439.901 84.7975 440.385 85.0495C440.51 85.1155 440.831 85.2889 440.831 85.2889L441.51 84.3392L441.011 84.0077C439.514 83.0454 437.434 83.1849 436.017 84.3282C434.783 85.3235 434.27 87.3218 434.835 88.9226C435.431 90.6054 436.84 91.6142 438.84 91.6126C439.544 91.6548 440.324 91.4214 441.031 90.9242C441.168 90.827 441.33 90.7356 441.372 90.6468L440.72 89.6938L440.063 90.1166C438.936 90.6815 437.802 90.5673 436.966 89.808C435.986 88.9175 435.674 87.5298 436.174 86.269Z" fill="#18191B"/>
<rect x="262" y="127" width="139" height="42" stroke="black" stroke-width="4"/>
<path d="M311.148 135.353C311.25 137.672 313.253 146.518 313.253 146.518C313.989 148.309 314.623 146.518 314.623 146.518C317.046 139.25 312.094 135.039 312.094 135.039C310.83 134.3 311.148 135.353 311.148 135.353ZM339.9 134.09C339.9 134.09 342.325 135.775 339.9 136.091C339.9 136.091 330.842 137.144 324.102 143.465C324.102 143.465 313.989 152.31 310.199 162C310.199 162 308.935 162 309.358 160.105C309.778 158.209 312.305 149.888 323.574 139.673C323.574 139.673 334.425 129.772 339.9 134.09Z" fill="#18191B"/>
<path d="M293.818 148.112C294.218 148.196 294.577 148.238 295.105 148.238C297.171 148.238 298.563 146.909 298.563 145.221C298.563 143.703 297.487 143.155 296.097 143.155C295.483 143.155 295.02 143.197 294.725 143.281L293.818 148.112ZM292.657 141.53C293.522 141.319 294.809 141.193 296.075 141.193C297.404 141.193 298.796 141.466 299.724 142.205C300.547 142.838 301.032 143.765 301.032 145.032C301.032 146.719 300.23 148.091 299.217 148.892C298.079 149.799 296.453 150.242 294.766 150.242C294.259 150.242 293.818 150.178 293.437 150.137L292.404 155.516H290L292.657 141.53Z" fill="#18191B"/>
<path d="M307.548 147.014C307.296 146.95 306.98 146.909 306.537 146.909C304.28 146.909 302.507 149.462 302.507 151.804C302.507 152.878 302.908 153.765 303.985 153.765C305.144 153.765 306.537 152.331 307.022 149.715L307.548 147.014ZM306.557 155.516C306.557 154.903 306.641 154.082 306.727 153.215H306.684C305.672 155.094 304.3 155.748 302.993 155.748C301.158 155.748 299.954 154.313 299.954 152.246C299.954 148.745 302.401 145.01 307.19 145.01C308.308 145.01 309.51 145.221 310.312 145.474L309.237 150.832C308.94 152.351 308.772 154.292 308.815 155.516H306.557Z" fill="#18191B"/>
<path d="M324.273 151.444C324.273 152.856 325.011 153.85 326.277 153.85C328.112 153.85 329.336 151.318 329.336 149.272C329.336 148.216 328.85 146.908 327.375 146.908C325.413 146.908 324.273 149.525 324.273 151.444ZM331.867 149.252C331.867 152.752 329.441 155.747 325.94 155.747C323.344 155.747 321.743 153.954 321.743 151.507C321.743 148.027 324.168 145.01 327.67 145.01C330.433 145.01 331.867 146.993 331.867 149.252Z" fill="#18191B"/>
<path d="M332.33 155.516L333.66 148.428C333.912 147.204 334.06 146.128 334.187 145.243H336.382L336.149 147.078H336.191C337.139 145.706 338.448 145.01 339.882 145.01C341.358 145.01 342.498 145.897 342.498 147.838C342.498 148.301 342.415 149.018 342.309 149.525L341.189 155.516H338.721L339.817 149.715C339.882 149.335 339.945 148.892 339.945 148.491C339.945 147.626 339.629 147.014 338.659 147.014C337.541 147.014 336.106 148.363 335.663 150.77L334.777 155.516H332.33Z" fill="#18191B"/>
<path d="M349.034 146.845C347.493 146.845 346.482 148.216 346.187 149.462C348.717 149.482 350.343 149.145 350.343 147.901C350.343 147.247 349.815 146.845 349.034 146.845ZM351.375 154.924C350.362 155.451 348.993 155.747 347.747 155.747C344.902 155.747 343.53 153.997 343.53 151.486C343.53 148.385 345.807 145.01 349.351 145.01C351.375 145.01 352.663 146.17 352.663 147.901C352.663 150.537 349.9 151.38 345.935 151.296C345.891 151.655 345.976 152.35 346.208 152.752C346.61 153.449 347.346 153.807 348.317 153.807C349.479 153.807 350.405 153.511 351.146 153.132L351.375 154.924Z" fill="#18191B"/>
<path d="M358.588 146.845C357.049 146.845 356.035 148.216 355.74 149.462C358.271 149.482 359.896 149.145 359.896 147.901C359.896 147.247 359.369 146.845 358.588 146.845ZM360.929 154.924C359.918 155.451 358.546 155.747 357.303 155.747C354.455 155.747 353.083 153.997 353.083 151.486C353.083 148.385 355.36 145.01 358.904 145.01C360.929 145.01 362.218 146.17 362.218 147.901C362.218 150.537 359.454 151.38 355.488 151.296C355.445 151.655 355.53 152.35 355.762 152.752C356.163 153.449 356.901 153.807 357.871 153.807C359.032 153.807 359.959 153.511 360.7 153.132L360.929 154.924Z" fill="#18191B"/>
<path d="M362.364 155.516L363.566 149.187C363.84 147.732 363.987 146.15 364.091 145.243H366.223C366.159 145.939 366.097 146.656 365.991 147.395H366.053C366.752 146.023 367.868 145.01 369.261 145.01C369.452 145.01 369.641 145.032 369.81 145.032L369.324 147.437C369.198 147.415 369.029 147.415 368.86 147.415C367.108 147.415 365.991 149.187 365.591 151.381L364.81 155.516H362.364Z" fill="#18191B"/>
<path d="M371.678 146.183H371.857C372.042 146.183 372.164 146.08 372.164 145.924C372.164 145.75 372.036 145.673 371.851 145.673C371.766 145.673 371.706 145.679 371.678 145.686V146.183ZM371.501 145.563C371.591 145.547 371.719 145.535 371.838 145.535C372.025 145.535 372.149 145.573 372.231 145.647C372.298 145.707 372.338 145.8 372.338 145.907C372.338 146.084 372.226 146.203 372.083 146.251V146.258C372.187 146.293 372.248 146.391 372.283 146.532C372.326 146.72 372.359 146.852 372.387 146.905H372.205C372.183 146.864 372.153 146.749 372.118 146.58C372.077 146.392 372.001 146.323 371.842 146.316H371.678V146.905H371.501V145.563Z" fill="#18191B"/>
<path d="M371.904 145.01C371.234 145.01 370.689 145.555 370.689 146.226C370.689 146.896 371.234 147.442 371.904 147.442C372.575 147.442 373.12 146.896 373.12 146.226C373.12 145.555 372.575 145.01 371.904 145.01ZM371.904 145.198C372.471 145.198 372.931 145.657 372.931 146.226C372.931 146.794 372.471 147.255 371.904 147.255C371.336 147.255 370.876 146.794 370.876 146.226C370.876 145.657 371.336 145.198 371.904 145.198Z" fill="#18191B"/>
<path d="M276.853 93.4741H279.616C281.749 93.4741 282.815 92.7712 282.815 91.4142C282.815 90.0815 281.676 89.3544 279.446 89.3544H276.853V93.4741ZM276.853 83.5381V87.3672H279.277C281.094 87.3672 282.039 86.6885 282.039 85.4527C282.039 84.1923 281.07 83.5381 279.252 83.5381H276.853ZM273 95.5342V93.4741H274.624V83.5381H273V81.478H279.495C282.475 81.478 284.293 82.8594 284.293 85.2587C284.293 86.8339 283.372 87.8034 282.209 88.2637C283.881 88.7243 285.069 89.9118 285.069 91.5354C285.069 94.1042 283.081 95.5342 279.834 95.5342H273Z" fill="#18191B"/>
<path d="M296.846 88.2153C296.604 87.3914 295.998 86.9065 295.198 86.9065C293.333 86.9065 291.563 88.2879 291.563 90.8083V93.4741H295.15V95.5342H287.153V93.4741H289.431V87.2701H287.637V85.2101H291.539V86.9549C292.194 85.7433 293.526 84.871 295.295 84.871C297.283 84.871 298.518 86.01 298.882 87.6336L296.846 88.2153Z" fill="#18191B"/>
<path d="M307.753 91.3661C307.074 91.1237 306.056 90.9299 305.111 90.9299C303.754 90.9299 302.445 91.3661 302.445 92.6021C302.445 93.5228 303.269 93.9593 304.408 93.9593C305.983 93.9593 307.753 93.1109 307.753 91.657V91.3661ZM307.753 89.5244V88.9428C307.753 87.4886 306.589 86.8827 305.329 86.8827C304.142 86.8827 303.124 87.3676 302.3 88.1186L300.894 86.5921C301.864 85.6953 303.245 84.8714 305.329 84.8714C307.922 84.8714 309.934 86.2528 309.934 88.8699V93.4744H311.436V95.5345H307.753V94.4439C307.195 95.3406 305.693 95.8735 304.214 95.8735C302.082 95.8735 300.24 94.7832 300.24 92.6263C300.24 90.0818 302.736 89.1124 305.014 89.1124C306.129 89.1124 307.05 89.3305 307.753 89.5244Z" fill="#18191B"/>
<path d="M320.404 83.1505H318.005V80.0001H320.404V83.1505ZM324.378 93.4741V95.5342H313.958V93.4741H318.271V87.2702H314.975V85.2102H320.404V93.4741H324.378Z" fill="#18191B"/>
<path d="M326.948 93.4741H328.523V87.2701H327.044V85.2101H330.631V86.543C331.261 85.5252 332.57 84.871 334.169 84.871C336.472 84.871 338.119 86.325 338.119 88.6757V93.4741H339.695V95.5342H334.339V93.4741H335.987V89.2572C335.987 87.464 334.896 86.9549 333.903 86.9549C332.279 86.9549 330.656 88.1669 330.656 90.0327V93.4741H332.303V95.5342H326.948V93.4741Z" fill="#18191B"/>
<path d="M342.627 87.2705H339.938V85.2105H342.627V81.4785H344.76V85.2105H349.776V87.2705H344.76V91.6083C344.76 93.208 345.875 93.8622 347.159 93.8622C348.371 93.8622 349.389 93.1838 350.14 92.4325L351.57 93.9106C350.625 94.9286 349.171 95.8735 347.159 95.8735C344.566 95.8735 342.627 94.4439 342.627 91.6812V87.2705Z" fill="#18191B"/>
<path d="M363.203 88.2153C362.96 87.3914 362.355 86.9065 361.555 86.9065C359.689 86.9065 357.92 88.2879 357.92 90.8083V93.4741H361.507V95.5342H353.509V93.4741H355.787V87.2701H353.994V85.2101H357.896V86.9549C358.55 85.7433 359.883 84.871 361.652 84.871C363.639 84.871 364.875 86.01 365.239 87.6336L363.203 88.2153Z" fill="#18191B"/>
<path d="M368.946 89.3063H375.295C374.98 87.828 373.672 86.8343 372.218 86.8343C370.569 86.8343 369.309 87.8522 368.946 89.3063ZM377.549 93.9593C376.483 95.0738 374.593 95.8735 372.484 95.8735C369.019 95.8735 366.595 93.5471 366.595 90.3725C366.595 87.1979 368.946 84.8714 372.218 84.8714C375.465 84.8714 377.743 87.3676 377.743 90.7602V91.1237H368.849C369.212 92.8445 370.642 93.8864 372.508 93.8864C374.059 93.8864 375.392 93.2564 376.119 92.4567L377.549 93.9593Z" fill="#18191B"/>
<path d="M382.203 89.3063H388.552C388.237 87.828 386.928 86.8343 385.474 86.8343C383.827 86.8343 382.566 87.8522 382.203 89.3063ZM390.806 93.9593C389.739 95.0738 387.849 95.8735 385.741 95.8735C382.275 95.8735 379.852 93.5471 379.852 90.3725C379.852 87.1979 382.203 84.8714 385.474 84.8714C388.722 84.8714 391 87.3676 391 90.7602V91.1237H382.106C382.469 92.8445 383.899 93.8864 385.765 93.8864C387.316 93.8864 388.649 93.2564 389.376 92.4567L390.806 93.9593Z" fill="#18191B"/>
<rect x="262" y="67" width="139" height="42" stroke="black" stroke-width="4"/>
<rect x="55.708" y="17" width="32.8102" height="242" stroke="black" stroke-width="4"/>
<rect x="55.708" y="17" width="418.869" height="31.9124" fill="black" stroke="black" stroke-width="4"/>
<rect x="63" y="24" width="18" height="18" fill="white"/>
<path d="M21.9995 248.091L87.0908 183" stroke="#3B96FF" stroke-width="8"/>
<circle cx="411.071" cy="14.0709" r="10.0709" stroke="#3B96FF" stroke-width="8"/>
<path d="M397.569 228.586L416.33 209.825L435.092 228.586L453.853 209.825L472.614 228.586L491.375 209.825" stroke="#D976FF" stroke-width="8"/>
<g style="mix-blend-mode:lighten">
<rect x="16" width="475" height="261" fill="url(#paint0_linear)"/>
</g>
<g style="mix-blend-mode:lighten">
<path d="M16 2.14502H491V261H16V2.14502Z" fill="url(#paint1_linear)"/>
</g>
</g>
<defs>
<linearGradient id="paint0_linear" x1="154.63" y1="23.0061" x2="329.499" y2="322.684" gradientUnits="userSpaceOnUse">
<stop stop-color="#0076FF" stop-opacity="0"/>
<stop offset="0.444533" stop-color="#0076FF"/>
<stop offset="1" stop-color="#0076FF" stop-opacity="0.4"/>
</linearGradient>
<linearGradient id="paint1_linear" x1="453.879" y1="230.252" x2="372.64" y2="99.2572" gradientUnits="userSpaceOnUse">
<stop stop-color="#D976FF"/>
<stop offset="0.211217" stop-color="#BD76FF" stop-opacity="0.870665"/>
<stop offset="1" stop-color="#0076FF" stop-opacity="0"/>
</linearGradient>
</defs>
</svg>
