<svg width="189" height="93" fill="none" xmlns="http://www.w3.org/2000/svg"><path d="M8.023 83.637c0-.586-.222-1.04-.668-1.36-.437-.328-1.207-.609-2.308-.843-1.094-.235-1.965-.516-2.613-.844-.641-.328-1.118-.719-1.43-1.172-.305-.453-.457-.992-.457-1.617 0-1.04.437-1.918 1.312-2.637.883-.719 2.008-1.078 3.375-1.078 1.438 0 2.602.371 3.493 1.113.898.742 1.347 1.692 1.347 2.848h-2.18c0-.594-.253-1.106-.761-1.535-.5-.43-1.133-.645-1.899-.645-.789 0-1.406.172-1.851.516-.446.344-.668.793-.668 1.348 0 .523.207.917.62 1.183.415.266 1.161.52 2.24.762 1.085.242 1.964.531 2.636.867.672.336 1.168.742 1.488 1.219.328.469.492 1.043.492 1.722 0 1.133-.453 2.043-1.359 2.73-.906.68-2.082 1.02-3.527 1.02-1.016 0-1.914-.18-2.696-.539-.78-.36-1.394-.86-1.84-1.5a3.679 3.679 0 0 1-.656-2.097h2.168c.04.726.328 1.304.867 1.734.547.422 1.266.633 2.157.633.82 0 1.476-.164 1.968-.492.5-.336.75-.782.75-1.336zM23.727 80.8c0 1.93-.442 3.484-1.325 4.664-.883 1.18-2.078 1.77-3.586 1.77-1.539 0-2.75-.489-3.632-1.466v6.106h-2.168V74.32h1.98l.106 1.407c.882-1.094 2.109-1.641 3.68-1.641 1.523 0 2.726.574 3.609 1.723.89 1.148 1.336 2.746 1.336 4.793v.199zm-2.168-.246c0-1.43-.305-2.559-.915-3.387-.609-.828-1.445-1.242-2.507-1.242-1.313 0-2.297.582-2.953 1.746v6.059c.648 1.156 1.64 1.734 2.976 1.734 1.04 0 1.863-.41 2.473-1.23.617-.829.926-2.055.926-3.68zm10.195 6.68c-1.719 0-3.117-.563-4.195-1.688-1.079-1.133-1.618-2.645-1.618-4.535v-.399c0-1.257.239-2.379.715-3.363.485-.992 1.157-1.766 2.016-2.32a5.07 5.07 0 0 1 2.812-.844c1.649 0 2.93.543 3.844 1.629.914 1.086 1.371 2.64 1.371 4.664v.902h-8.59c.032 1.25.395 2.262 1.09 3.035.703.766 1.594 1.149 2.672 1.149.766 0 1.414-.156 1.945-.469a4.887 4.887 0 0 0 1.395-1.242l1.324 1.031c-1.062 1.633-2.656 2.45-4.781 2.45zm-.27-11.368c-.875 0-1.609.32-2.203.961-.593.633-.96 1.524-1.101 2.672h6.351v-.164c-.062-1.102-.36-1.953-.89-2.555-.532-.61-1.25-.914-2.157-.914zm12.82 9.598c.774 0 1.45-.234 2.028-.703.578-.469.898-1.055.961-1.758h2.05c-.038.727-.288 1.418-.75 2.074-.46.656-1.077 1.18-1.85 1.57a5.29 5.29 0 0 1-2.438.586c-1.727 0-3.102-.574-4.125-1.722-1.016-1.156-1.524-2.735-1.524-4.735v-.363c0-1.234.227-2.332.68-3.293.453-.96 1.102-1.707 1.945-2.238.852-.531 1.856-.797 3.012-.797 1.422 0 2.602.426 3.539 1.277.945.852 1.45 1.957 1.512 3.317h-2.051c-.063-.82-.375-1.493-.938-2.016-.554-.531-1.242-.797-2.062-.797-1.102 0-1.957.399-2.566 1.195-.602.79-.903 1.934-.903 3.434v.41c0 1.461.301 2.586.903 3.375.601.79 1.46 1.184 2.578 1.184zM54.138 87h-2.168V74.32h2.168V87zm-2.344-16.043c0-.351.105-.648.316-.89.22-.243.54-.364.961-.364.422 0 .742.121.961.363.219.243.328.54.328.891 0 .352-.109.645-.328.879-.218.234-.539.352-.96.352-.423 0-.743-.118-.962-.352-.21-.234-.316-.527-.316-.879zM65.445 87c-.125-.25-.226-.695-.304-1.336-1.008 1.047-2.211 1.57-3.61 1.57-1.25 0-2.277-.351-3.082-1.054-.797-.711-1.195-1.61-1.195-2.696 0-1.32.5-2.343 1.5-3.07 1.008-.734 2.422-1.102 4.242-1.102h2.11v-.996c0-.757-.227-1.359-.68-1.804-.453-.453-1.121-.68-2.004-.68-.774 0-1.422.195-1.945.586-.524.39-.786.863-.786 1.418h-2.18c0-.633.223-1.242.669-1.828.453-.594 1.062-1.063 1.828-1.406.773-.344 1.62-.516 2.543-.516 1.46 0 2.605.367 3.433 1.102.829.726 1.258 1.73 1.29 3.011v5.836c0 1.164.148 2.09.445 2.778V87h-2.274zm-3.597-1.652a3.81 3.81 0 0 0 1.933-.528c.61-.351 1.051-.808 1.325-1.37v-2.602h-1.7c-2.656 0-3.984.777-3.984 2.332 0 .68.226 1.21.68 1.593.453.383 1.035.575 1.746.575zM73.028 87h-2.169V69h2.168v18zm5.835 0h-2.168V74.32h2.168V87zM76.52 70.957c0-.351.106-.648.317-.89.219-.243.539-.364.96-.364.423 0 .743.121.962.363.219.243.328.54.328.891 0 .352-.11.645-.328.879-.219.234-.54.352-.961.352-.422 0-.742-.118-.961-.352-.211-.234-.317-.527-.317-.879zm13.208 12.68c0-.586-.223-1.04-.668-1.36-.438-.328-1.207-.609-2.309-.843-1.094-.235-1.965-.516-2.613-.844-.64-.328-1.118-.719-1.43-1.172-.305-.453-.457-.992-.457-1.617 0-1.04.438-1.918 1.313-2.637.882-.719 2.007-1.078 3.374-1.078 1.438 0 2.602.371 3.493 1.113.898.742 1.347 1.692 1.347 2.848h-2.18c0-.594-.253-1.106-.761-1.535-.5-.43-1.133-.645-1.898-.645-.79 0-1.407.172-1.852.516-.445.344-.668.793-.668 1.348 0 .523.207.917.621 1.183.414.266 1.16.52 2.238.762 1.086.242 1.965.531 2.637.867.672.336 1.168.742 1.488 1.219.329.469.492 1.043.492 1.722 0 1.133-.453 2.043-1.359 2.73-.906.68-2.082 1.02-3.527 1.02-1.016 0-1.914-.18-2.695-.539-.782-.36-1.395-.86-1.84-1.5a3.679 3.679 0 0 1-.657-2.097h2.168c.04.726.329 1.304.868 1.734.546.422 1.265.633 2.156.633.82 0 1.476-.164 1.969-.492.5-.336.75-.782.75-1.336zM97.66 71.25v3.07h2.367v1.676H97.66v7.863c0 .508.106.891.317 1.149.21.25.57.375 1.078.375.25 0 .593-.047 1.031-.14V87a6.288 6.288 0 0 1-1.664.234c-.969 0-1.7-.293-2.191-.878-.493-.587-.739-1.418-.739-2.497v-7.863h-2.308V74.32h2.308v-3.07h2.168zm12.293 12.387c0-.586-.223-1.04-.668-1.36-.437-.328-1.207-.609-2.308-.843-1.094-.235-1.965-.516-2.614-.844-.64-.328-1.117-.719-1.429-1.172-.305-.453-.457-.992-.457-1.617 0-1.04.437-1.918 1.312-2.637.883-.719 2.008-1.078 3.375-1.078 1.438 0 2.602.371 3.492 1.113.899.742 1.348 1.692 1.348 2.848h-2.18c0-.594-.254-1.106-.762-1.535-.5-.43-1.132-.645-1.898-.645-.789 0-1.406.172-1.852.516a1.623 1.623 0 0 0-.667 1.348c0 .523.207.917.621 1.183.414.266 1.16.52 2.238.762 1.086.242 1.965.531 2.637.867.671.336 1.168.742 1.488 1.219.328.469.492 1.043.492 1.722 0 1.133-.453 2.043-1.359 2.73-.907.68-2.082 1.02-3.528 1.02-1.015 0-1.914-.18-2.695-.539-.781-.36-1.394-.86-1.84-1.5a3.682 3.682 0 0 1-.656-2.097h2.168c.039.726.328 1.304.867 1.734.547.422 1.266.633 2.156.633.821 0 1.477-.164 1.969-.492.5-.336.75-.782.75-1.336zM2.781 43.062l7.031-.874V8.093l-7.156.125V4.375L15.97 1.5v40.688l7 .874V47H2.78v-3.938zM50.97 10.5l-.594-3.531H36.781L35.313 19.75A13.223 13.223 0 0 1 38.468 18c1.187-.48 2.552-.74 4.093-.781 4.188-.042 7.48 1.323 9.876 4.093 2.416 2.771 3.624 6.5 3.624 11.188 0 4.563-1.229 8.23-3.687 11-2.438 2.77-6 4.156-10.688 4.156-3.854 0-7.062-1.052-9.624-3.156-2.542-2.104-3.76-5.198-3.657-9.281l.063-.188h5.562c0 2.459.709 4.375 2.125 5.75 1.438 1.375 3.282 2.063 5.532 2.063 2.604 0 4.624-.917 6.062-2.75 1.438-1.834 2.156-4.344 2.156-7.532 0-2.937-.729-5.333-2.187-7.187-1.438-1.875-3.438-2.813-6-2.813-2.417 0-4.177.365-5.282 1.094-1.083.73-1.874 1.844-2.374 3.344l-5.126-.531L31.563 1.5h24.032v9h-4.625zm40.968 19.156c0 5.813-1.291 10.271-3.874 13.375-2.584 3.084-6.115 4.625-10.594 4.625-4.459 0-7.99-1.552-10.594-4.656-2.604-3.104-3.906-7.552-3.906-13.344V18.875c0-5.792 1.291-10.24 3.875-13.344C69.427 2.406 72.948.844 77.406.844c4.48 0 8.021 1.562 10.625 4.687 2.604 3.104 3.906 7.552 3.906 13.344v10.781zm-6.156-12.093c0-3.938-.719-6.896-2.156-8.875-1.417-2-3.49-3-6.219-3-2.687 0-4.74 1-6.156 3-1.417 1.979-2.125 4.937-2.125 8.874v13.344c0 3.938.719 6.917 2.156 8.938 1.438 2 3.5 3 6.188 3 2.729 0 4.791-1 6.187-3 1.417-2 2.125-4.98 2.125-8.938V17.563zm30.875 4.968h12.5v5.563h-12.5v14.343H110.5V28.095H97.969V22.53H110.5V9.313h6.156V22.53z" fill="#18191B"/></svg>