<svg width="64" height="65" viewBox="0 0 64 65" fill="none" xmlns="http://www.w3.org/2000/svg">
<path fill-rule="evenodd" clip-rule="evenodd" d="M27.116 18.5352C25.1722 19.9976 23.92 22.3204 23.92 24.9377C23.92 29.359 27.4976 32.9377 31.9041 32.9377C36.3105 32.9377 39.8881 29.359 39.8881 24.9377C39.8881 22.3204 38.6359 19.9976 36.6921 18.5352L39.0969 15.3387C42.0031 17.5252 43.8881 21.0118 43.8881 24.9377C43.8881 31.5621 38.5257 36.9377 31.9041 36.9377C25.2825 36.9377 19.92 31.5621 19.92 24.9377C19.92 21.0118 21.8051 17.5252 24.7113 15.3387L27.116 18.5352Z" fill="black"/>
<path fill-rule="evenodd" clip-rule="evenodd" d="M14.4 21.3995C14.0967 22.6773 13.936 24.0102 13.936 25.3822C13.936 35.0387 21.941 42.9377 31.9041 42.9377C41.8671 42.9377 49.8721 35.0387 49.8721 25.3822C49.8721 24.0102 49.7114 22.6773 49.4082 21.3995L53.3001 20.476C53.6746 22.0538 53.8721 23.6966 53.8721 25.3822C53.8721 37.3261 43.9971 46.9377 31.9041 46.9377C19.811 46.9377 9.93604 37.3261 9.93604 25.3822C9.93604 23.6966 10.1336 22.0538 10.508 20.476L14.4 21.3995Z" fill="black"/>
<path fill-rule="evenodd" clip-rule="evenodd" d="M31.9041 18.3745C19.6089 18.3745 10.58 22.6547 3.35832 29.7966L0.545654 26.9525C8.49162 19.0943 18.5218 14.3745 31.9041 14.3745C45.3158 14.3745 54.9127 19.1147 63.3123 26.9084L60.5916 29.8406C52.825 22.6343 44.1699 18.3745 31.9041 18.3745Z" fill="#0254D8"/>
</svg>
