<svg viewBox="0 0 64 64" fill="none" xmlns="http://www.w3.org/2000/svg">
<path fill-rule="evenodd" clip-rule="evenodd" d="M32 19.3745C24.8203 19.3745 19 25.1948 19 32.3745C19 39.5542 24.8203 45.3745 32 45.3745C39.1797 45.3745 45 39.5542 45 32.3745H49C49 41.7634 41.3888 49.3745 32 49.3745C22.6112 49.3745 15 41.7634 15 32.3745C15 22.9857 22.6112 15.3745 32 15.3745C37.5623 15.3745 42.5008 18.048 45.599 22.1717L42.401 24.5744C40.0258 21.413 36.2513 19.3745 32 19.3745Z" fill="#0254D8"/>
<path fill-rule="evenodd" clip-rule="evenodd" d="M32 9.37451C19.2975 9.37451 9 19.672 9 32.3745C9 45.0771 19.2975 55.3745 32 55.3745C41.0682 55.3745 48.9146 50.1267 52.6608 42.4934L56.2516 44.2557C51.859 53.2061 42.6517 59.3745 32 59.3745C17.0883 59.3745 5 47.2862 5 32.3745C5 17.4628 17.0883 5.37451 32 5.37451C46.9117 5.37451 59 17.4628 59 32.3745V34.3745H32.3484L35.5185 38.0729L32.4815 40.6761L25.3658 32.3745L32.4815 24.0729L35.5185 26.6761L32.3484 30.3745H54.9142C53.9007 18.6084 44.0287 9.37451 32 9.37451Z" fill="black"/>
</svg>
