<svg width="64" height="65" viewBox="0 0 64 65" fill="none" xmlns="http://www.w3.org/2000/svg">
<path d="M15.5783 18.3745L18.3001 21.3057L5.87845 32.8401L18.2997 44.3741C18.2998 44.3742 18.3001 44.3745 16.9392 45.8401C15.5783 47.3057 15.5783 47.3057 15.5782 47.3056L15.5631 47.2916L15.5498 47.2792L0 32.8401L15.5783 18.3745Z" fill="#18191B"/>
<path fill-rule="evenodd" clip-rule="evenodd" d="M48.6772 47.3745L46 44.4433L58.218 32.9089L46.0025 21.3769C46.002 21.3764 46.0013 21.3758 46.0004 21.3749C46.0004 21.3748 46 21.3745 47.3386 19.9089C48.6772 18.4433 48.6772 18.4434 48.6773 18.4434L64 32.9089L48.6772 47.3745Z" fill="#18191B"/>
<path fill-rule="evenodd" clip-rule="evenodd" d="M20 52.3745L41 11.3745L44.5602 13.198L23.5602 54.198L20 52.3745Z" fill="#0076FF"/>
</svg>
