<svg width="64" height="64" viewBox="0 0 64 64" fill="none" xmlns="http://www.w3.org/2000/svg">
<path fill-rule="evenodd" clip-rule="evenodd" d="M36 4C28.8203 4 23 9.8203 23 17C23 17.8165 23.075 18.6137 23.2181 19.3856L19.285 20.1144C19.0977 19.1033 19 18.0621 19 17C19 7.61116 26.6112 0 36 0C45.3888 0 53 7.61116 53 17C53 23.0577 49.8301 28.3736 45.0681 31.3818L42.9319 28C46.5825 25.6939 49 21.6285 49 17C49 9.8203 43.1797 4 36 4Z" fill="black"/>
<path fill-rule="evenodd" clip-rule="evenodd" d="M45 19.75C40.0294 19.75 36 23.7794 36 28.75C36 32.4057 38.1798 35.5567 41.319 36.9658L42.5 37.4959V43.75H38.5V40.0104C34.6171 37.7643 32 33.5646 32 28.75C32 21.5703 37.8203 15.75 45 15.75V19.75ZM54 28.75C54 27.8093 53.8564 26.906 53.5912 26.0586L57.4088 24.8642C57.7934 26.0937 58 27.3996 58 28.75C58 33.5646 55.3829 37.7643 51.5 40.0104V59.6667L45 64L38.5 59.6667V56.5963H42.5V57.5259L45 59.1926L47.5 57.5259V37.4959L48.681 36.9658C51.8202 35.5567 54 32.4057 54 28.75ZM42.5 47.75V53.5H38.5V47.75H42.5Z" fill="black"/>
<path fill-rule="evenodd" clip-rule="evenodd" d="M28.7502 24.1986C27.6829 24.6367 26.6811 25.2896 25.8094 26.1613C23.2244 28.7463 22.5377 32.5157 23.7611 35.7319L24.2213 36.9418L19.799 41.3641L16.9706 38.5357L19.6149 35.8913C18.4575 31.5575 19.5766 26.7373 22.981 23.3329C24.2337 22.0801 25.6827 21.1339 27.2312 20.4982L28.7502 24.1986ZM28.9668 40.9375C29.951 41.3119 30.9893 41.5078 32.0313 41.5241L31.9687 45.5236C30.9053 45.507 29.8429 45.3605 28.8072 45.0838L13.7388 60.1522L6.07851 58.6201L4.54645 50.9598L6.71752 48.7887L9.54595 51.6171L8.8886 52.2745L9.47786 55.2208L12.4241 55.81L27.7568 40.4773L28.9668 40.9375ZM16.9706 44.1925L12.3744 48.7887L9.54595 45.9603L14.1421 41.3641L16.9706 44.1925Z" fill="#0254D8"/>
</svg>
