<svg width="64" height="64" viewBox="0 0 64 64" fill="none" xmlns="http://www.w3.org/2000/svg">
<path fill-rule="evenodd" clip-rule="evenodd" d="M0 18.893L53.1538 18.893L64 42.393H54.3742V56.893H42.8742C39.9361 56.893 36.871 56.3678 34.4774 54.8236C31.9553 53.1964 30.3742 50.5558 30.3742 46.893H34.3742C34.3742 49.2302 35.2931 50.5896 36.6459 51.4624C38.1274 52.4182 40.3123 52.893 42.8742 52.893H50.3742V38.393H57.7484L50.5945 22.893L4.04283 22.893C4.22721 27.0543 4.98938 29.9078 5.98902 32.1373C6.98061 34.3488 8.2194 36.0051 9.61811 37.8751C9.88101 38.2266 10.1496 38.5857 10.4232 38.9574C12.1371 41.2857 13.8964 43.9353 15.0933 47.874C16.2819 51.7854 16.8805 56.8444 16.4971 64H12.5C12.8667 57.1556 12.2806 52.3757 11.2661 49.037C10.2599 45.7257 8.80041 43.5003 7.20183 41.3287C6.96202 41.0029 6.71541 40.6741 6.4647 40.3398C5.06031 38.4675 3.52718 36.4235 2.33911 33.7738C0.913248 30.5937 0 26.6176 0 20.893V18.893Z" fill="black"/>
<path d="M40.6667 4L47 11.5L28 34L9 11.5L14.1818 4H23.3939H32.0303H40.6667Z" fill="white"/>
<path fill-rule="evenodd" clip-rule="evenodd" d="M13.1327 0H41.5955L49.6177 9.5L28 35.0999L6.48505 9.62164L13.1327 0ZM15.231 4L12.8128 7.5H17.6691L19.8186 4H15.231ZM24.5127 4L22.3632 7.5H33.3994L30.9812 4H24.5127ZM35.8431 4L38.2613 7.5H42.6934L39.7379 4H35.8431ZM42.6934 11.5H38.5544L34.6589 21.0146L42.6934 11.5ZM28 26.7216L34.2321 11.5H21.7679L28 26.7216ZM17.4456 11.5L21.3412 21.0146L13.3066 11.5H17.4456Z" fill="#0254D8"/>
</svg>
