<svg width="48" height="48" viewBox="0 0 48 48" fill="none" xmlns="http://www.w3.org/2000/svg">
<path fill-rule="evenodd" clip-rule="evenodd" d="M24.75 3C20.1733 3 16.8959 5.3134 15.7506 8.27918L15.2255 9.63907L13.8512 9.15299C13.2976 8.9572 12.7005 8.85 12.075 8.85C9.13408 8.85 6.75 11.2341 6.75 14.175C6.75 17.1159 9.13408 19.5 12.075 19.5V22.5C7.47723 22.5 3.75 18.7728 3.75 14.175C3.75 9.57723 7.47723 5.85 12.075 5.85C12.5675 5.85 13.0508 5.89293 13.5212 5.97542C15.5217 2.33383 19.7195 0 24.75 0C31.8225 0 37.125 6.23262 37.125 12.375C37.125 12.9262 36.9686 13.4242 36.661 13.8435C36.3889 14.2145 36.0513 14.4433 35.888 14.5537C35.6752 14.6975 35.6148 14.7476 35.6126 14.7451C35.6104 14.7426 35.6643 14.6893 35.6847 14.6245L32.8226 13.7255C33.1168 12.7887 33.8314 12.31 34.121 12.1244C33.9767 7.57799 29.9322 3 24.75 3Z" fill="#162929"/>
<path fill-rule="evenodd" clip-rule="evenodd" d="M33 31.5H3V45H33V31.5ZM0 28.5V48H36V28.5H0Z" fill="#162929"/>
<path d="M16.5 34.1613L16.5 42.3387L13.5 42.3387L13.5 34.1613L16.5 34.1613Z" fill="#0054D7"/>
<path d="M28.5 34.1613L28.5 42.3387L25.5 42.3387L25.5 34.1613L28.5 34.1613Z" fill="#0054D7"/>
<path d="M10.5 34.1613L10.5 42.3387L7.5 42.3387L7.5 34.1613L10.5 34.1613Z" fill="#0054D7"/>
<path d="M22.5 34.1613L22.5 42.3387L19.5 42.3387L19.5 34.1613L22.5 34.1613Z" fill="#0054D7"/>
<path fill-rule="evenodd" clip-rule="evenodd" d="M45 15H15V28.5H45V15ZM12 12V31.5H48V12H12Z" fill="#162929"/>
<path d="M28.5 17.6613L28.5 25.8387L25.5 25.8387L25.5 17.6613L28.5 17.6613Z" fill="#0054D7"/>
<path d="M40.5 17.6613L40.5 25.8387L37.5 25.8387L37.5 17.6613L40.5 17.6613Z" fill="#0054D7"/>
<path d="M22.5 17.6613L22.5 25.8387L19.5 25.8387L19.5 17.6613L22.5 17.6613Z" fill="#0054D7"/>
<path d="M34.5 17.6613L34.5 25.8387L31.5 25.8387L31.5 17.6613L34.5 17.6613Z" fill="#0054D7"/>
</svg>
