<svg width="48" height="48" viewBox="0 0 48 48" fill="none" xmlns="http://www.w3.org/2000/svg">
<path fill-rule="evenodd" clip-rule="evenodd" d="M18 25.5H3.75V44.25H18V25.5ZM0.75 22.5V47.25H21V22.5H0.75Z" fill="#162929"/>
<path d="M3.75 25.5H18V44.25H3.75V25.5Z" fill="white"/>
<path d="M6.75 28.5H15V34.5H6.75V28.5Z" fill="#0054D7"/>
<path d="M6.75 37.5H15V40.5H6.75V37.5Z" fill="#0054D7"/>
<path fill-rule="evenodd" clip-rule="evenodd" d="M31.5 3.75H17.25V22.5H31.5V3.75ZM14.25 0.75V25.5H34.5V0.75H14.25Z" fill="#162929"/>
<path d="M17.25 3.75H31.5V22.5H17.25V3.75Z" fill="white"/>
<path d="M20.25 6.75H28.5V12.75H20.25V6.75Z" fill="#0054D7"/>
<path d="M20.25 15.75H28.5V18.75H20.25V15.75Z" fill="#0054D7"/>
<path fill-rule="evenodd" clip-rule="evenodd" d="M45 25.5H30.75V44.25H45V25.5ZM27.75 22.5V47.25H48V22.5H27.75Z" fill="#162929"/>
<path d="M30.75 25.5H45V44.25H30.75V25.5Z" fill="white"/>
<path d="M33.75 28.5H42V34.5H33.75V28.5Z" fill="#0054D7"/>
<path d="M33.75 37.5H42V40.5H33.75V37.5Z" fill="#0054D7"/>
</svg>
