<svg width="44" height="48" viewBox="0 0 44 48" fill="none" xmlns="http://www.w3.org/2000/svg">
<path fill-rule="evenodd" clip-rule="evenodd" d="M5.56749 29.1146C3.9476 31.0053 3.1437 33.4598 3.33153 35.9374C3.51934 38.4148 4.68325 40.7125 6.56622 42.3258C8.44918 43.939 10.8982 44.7368 13.3751 44.5424C15.8522 44.3481 18.1544 43.1773 19.7743 41.2866C21.4099 39.3775 22.3128 36.7612 22.3254 33.3741L25.3253 33.3852C25.3108 37.3081 24.2544 40.6684 22.0524 43.2385C19.9165 45.7314 16.8799 47.2767 13.6098 47.5333C10.3395 47.7899 7.10345 46.7366 4.61433 44.604C2.12521 42.4713 0.588084 39.4352 0.340111 36.1642C0.0921524 32.8934 1.1534 29.6557 3.2893 27.1627C5.8051 24.2264 9.03576 22.9619 12.4972 22.5027C14.5276 22.2333 16.5774 22.2268 18.6247 22.3252C20.1881 22.4004 23.3004 23.4137 23.3004 23.4137L23.0558 24.9038C23.0558 24.9038 20.0453 25.4081 18.6247 25.3382C16.5889 25.2379 14.6727 25.2404 12.8917 25.4766C9.925 25.8702 7.46672 26.8979 5.56749 29.1146Z" fill="#162929"/>
<path fill-rule="evenodd" clip-rule="evenodd" d="M8.87469 46.4293H0.695305V43.4294H5.87469V38.25H8.87469V46.4293Z" fill="#162929"/>
<path fill-rule="evenodd" clip-rule="evenodd" d="M23.3003 22.6638C27.1812 22.9812 30.1526 23.1066 32.7029 22.5542C35.1632 22.0214 37.2919 20.8406 39.4136 18.3642C40.1283 17.5299 40.9945 15.4661 40.991 12.9979C40.9876 10.6084 40.1683 7.99881 37.751 5.92778C35.3153 3.84094 32.662 3.39021 30.3102 3.77589C27.9017 4.17087 25.8521 5.43941 24.7645 6.7089C23.2592 8.46587 22.1845 10.8959 22.0353 14.2895L19.0382 14.1577C19.2144 10.1507 20.5092 7.06462 22.4863 4.75701C24.0539 2.9274 26.7492 1.3198 29.8247 0.815431C32.957 0.301752 36.5269 0.928438 39.7029 3.64959C42.8974 6.38657 43.9866 9.89055 43.991 12.9937C43.9953 16.0181 42.9684 18.826 41.6918 20.3161C39.1668 23.2631 36.4716 24.8076 33.3379 25.4863C30.2943 26.1454 26.9016 25.9684 23.0558 25.6538C21.8678 25.5564 20.7398 25.4545 19.6727 25.3493C15.8252 24.375 19.6727 23.25 23.3003 22.6638Z" fill="#0054D7"/>
<path fill-rule="evenodd" clip-rule="evenodd" d="M19.0382 14.1577C19.2144 10.1507 20.5092 7.06462 22.4863 4.75701C24.0539 2.9274 26.7492 1.3198 29.8247 0.815431C32.957 0.301752 36.5269 0.928438 39.7029 3.64959C42.8974 6.38657 43.9866 9.89055 43.991 12.9937C43.9953 16.0181 42.9684 18.826 41.6918 20.3161C39.1668 23.2631 36.4716 24.8076 33.3379 25.4863C30.2943 26.1454 26.9016 25.9684 23.0558 25.6538C20.3879 25.4351 15.7084 22.1286 20.1246 22.4203C21.1775 22.4898 22.2391 22.5769 23.2949 22.6634L23.3003 22.6638C27.1812 22.9812 30.1526 23.1066 32.7029 22.5542C35.1632 22.0214 37.2919 20.8406 39.4136 18.3642C40.1283 17.5299 40.9945 15.4661 40.991 12.9979C40.9876 10.6084 40.1683 7.99881 37.751 5.92778C35.3153 3.84094 32.662 3.39021 30.3102 3.77589C27.9017 4.17087 25.8521 5.43941 24.7645 6.7089C23.2592 8.46587 22.1845 10.8959 22.0353 14.2895L19.0382 14.1577Z" fill="#0054D7"/>
<path fill-rule="evenodd" clip-rule="evenodd" d="M15.5215 24.069L21.3273 18.3075L23.4405 20.437L19.7641 24.0853L23.4124 27.7617L21.283 29.8748L15.5215 24.069Z" fill="#0054D7"/>
<path fill-rule="evenodd" clip-rule="evenodd" d="M42.3298 8.94588H34.1504V5.94588H39.3298V0.766496H42.3298V8.94588Z" fill="#0054D7"/>
</svg>
