<svg width="1280" height="153" viewBox="0 0 1280 153" fill="none" xmlns="http://www.w3.org/2000/svg">
<g opacity="0.2">
<path d="M1240.29 31.4132C1232.67 35.2345 1229.59 44.5359 1233.41 52.1474C1237.23 59.7589 1246.54 62.8425 1254.15 59.0211C1261.76 55.1998 1264.84 45.8984 1261.02 38.2869C1257.2 30.6754 1247.9 27.5918 1240.29 31.4132ZM1238.42 51.2047C1237.73 51.5529 1236.89 51.2726 1236.54 50.5789C1236.19 49.8851 1236.47 49.0394 1237.16 48.6912C1237.86 48.3429 1238.7 48.6232 1239.05 49.317C1239.4 50.0107 1239.12 50.8564 1238.42 51.2047ZM1244.53 56.4824C1243.84 56.8306 1242.99 56.5503 1242.64 55.8566C1242.29 55.1628 1242.57 54.3171 1243.27 53.9689C1243.96 53.6206 1244.81 53.9009 1245.16 54.5947C1245.5 55.2884 1245.22 56.1341 1244.53 56.4824ZM1237.84 43.1564C1237.15 43.5046 1236.3 43.2243 1235.95 42.5306C1235.6 41.8369 1235.88 40.9911 1236.58 40.6429C1237.27 40.2946 1238.12 40.575 1238.47 41.2687C1238.81 41.9624 1238.53 42.8081 1237.84 43.1564ZM1246.51 50.5178C1245.81 50.866 1244.97 50.5857 1244.62 49.892C1244.27 49.1982 1244.55 48.3525 1245.25 48.0042C1245.94 47.656 1246.78 47.9363 1247.13 48.63C1247.48 49.3238 1247.2 50.1696 1246.51 50.5178ZM1243.8 45.1333C1243.11 45.4815 1242.26 45.2012 1241.92 44.5075C1241.57 43.8138 1241.85 42.968 1242.54 42.6198C1243.24 42.2715 1244.08 42.5519 1244.43 43.2456C1244.78 43.9393 1244.5 44.7851 1243.8 45.1333ZM1252.58 55.8968C1251.88 56.2451 1251.04 55.9647 1250.69 55.271C1250.34 54.5773 1250.62 53.7315 1251.32 53.3833C1252.01 53.0351 1252.86 53.3154 1253.2 54.0091C1253.55 54.7028 1253.27 55.5486 1252.58 55.8968ZM1243.12 37.051C1242.42 37.3992 1241.58 37.1189 1241.23 36.4252C1240.88 35.7315 1241.16 34.8857 1241.85 34.5375C1242.55 34.1893 1243.39 34.4695 1243.74 35.1633C1244.09 35.857 1243.81 36.7028 1243.12 37.051ZM1251.89 47.8145C1251.2 48.1627 1250.35 47.8824 1250 47.1887C1249.66 46.495 1249.94 45.6492 1250.63 45.301C1251.32 44.9527 1252.17 45.2331 1252.52 45.9268C1252.87 46.6205 1252.59 47.4663 1251.89 47.8145ZM1249.19 42.43C1248.49 42.7783 1247.65 42.498 1247.3 41.8042C1246.95 41.1105 1247.23 40.2648 1247.93 39.9165C1248.62 39.5683 1249.47 39.8486 1249.81 40.5423C1250.16 41.2361 1249.88 42.0818 1249.19 42.43ZM1257.86 49.7921C1257.16 50.1403 1256.32 49.86 1255.97 49.1663C1255.62 48.4725 1255.9 47.6268 1256.59 47.2786C1257.29 46.9303 1258.13 47.2106 1258.48 47.9044C1258.83 48.5981 1258.55 49.4439 1257.86 49.7921ZM1251.17 36.4661C1250.47 36.8143 1249.63 36.534 1249.28 35.8403C1248.93 35.1466 1249.21 34.3008 1249.9 33.9526C1250.6 33.6043 1251.44 33.8847 1251.79 34.5784C1252.14 35.2721 1251.86 36.1179 1251.17 36.4661ZM1257.27 41.7431C1256.58 42.0914 1255.73 41.8111 1255.38 41.1173C1255.03 40.4236 1255.31 39.5779 1256.01 39.2296C1256.7 38.8814 1257.55 39.1617 1257.9 39.8554C1258.24 40.5492 1257.96 41.3949 1257.27 41.7431Z" fill="black"/>
<path d="M1231.73 30.1173L1231.83 30.0337L1234.07 32.5511C1234.71 31.8805 1235.41 31.2545 1236.17 30.681L1233.93 28.1642L1234.02 28.0806C1234.6 27.5644 1234.65 26.6756 1234.14 26.0953C1233.62 25.515 1232.73 25.463 1232.15 25.9793L1229.86 28.016C1229.28 28.5322 1229.23 29.421 1229.75 30.0013C1230.24 30.5582 1231.13 30.6537 1231.73 30.1173Z" fill="black"/>
<path d="M1226.26 39.8826L1226.3 39.7632L1229.5 40.8263C1229.73 39.9153 1230.03 39.0226 1230.39 38.1567L1227.18 37.0937L1227.22 36.9743C1227.47 36.2371 1227.07 35.4414 1226.33 35.197C1225.59 34.9525 1224.8 35.352 1224.55 36.0893L1223.59 38.9976C1223.34 39.7348 1223.74 40.5305 1224.48 40.7749C1225.22 41.0195 1226.01 40.6197 1226.26 39.8826Z" fill="black"/>
<path d="M1225.3 52.738C1226.04 52.5867 1226.56 51.8637 1226.4 51.0766L1226.37 50.9534L1229.67 50.2727C1229.41 49.3616 1229.22 48.4409 1229.1 47.5181L1225.8 48.199L1225.78 48.0758C1225.62 47.3152 1224.88 46.8258 1224.12 46.9827C1223.36 47.1397 1222.87 47.8835 1223.02 48.6441L1223.64 51.6449C1223.8 52.4055 1224.54 52.8949 1225.3 52.738Z" fill="black"/>
<path d="M1232.03 60.6074L1234.55 58.3678C1233.88 57.7232 1233.25 57.0223 1232.68 56.2671L1230.16 58.5063L1230.08 58.4123C1229.55 57.8118 1228.65 57.7983 1228.1 58.2964C1227.51 58.8126 1227.46 59.7015 1227.98 60.2817L1230.02 62.5709C1230.53 63.1511 1231.42 63.2033 1232 62.6868C1232.58 62.1705 1232.63 61.2817 1232.12 60.7014L1232.03 60.6074Z" fill="black"/>
<path d="M1240.16 62.0454L1239.09 65.2521L1238.97 65.2125C1238.24 64.9681 1237.44 65.3675 1237.2 66.1048C1236.95 66.842 1237.35 67.6377 1238.09 67.8821L1241 68.8462C1241.73 69.0907 1242.53 68.6911 1242.77 67.9539C1243.02 67.2167 1242.62 66.421 1241.88 66.1766L1241.76 66.137L1242.83 62.9304C1241.92 62.7038 1241.02 62.4079 1240.16 62.0454Z" fill="black"/>
<path d="M1253.08 66.0357L1252.95 66.0612L1252.27 62.762C1251.36 63.025 1250.44 63.2132 1249.52 63.3296L1250.2 66.6295L1250.08 66.6549C1249.29 66.818 1248.83 67.5865 1248.98 68.3163C1249.14 69.0769 1249.88 69.5663 1250.64 69.4093L1253.65 68.7902C1254.41 68.6333 1254.9 67.8893 1254.74 67.1288C1254.58 66.3681 1253.84 65.8788 1253.08 66.0357Z" fill="black"/>
<path d="M1262.7 60.3166L1262.61 60.4002L1260.37 57.8828C1259.72 58.5534 1259.02 59.1794 1258.27 59.7529L1260.51 62.2697L1260.41 62.3532C1259.83 62.8695 1259.78 63.7583 1260.3 64.3386C1260.81 64.9187 1261.7 64.9708 1262.28 64.4544L1264.57 62.4178C1265.15 61.9016 1265.2 61.0127 1264.69 60.4325C1264.19 59.8757 1263.3 59.7802 1262.7 60.3166Z" fill="black"/>
<path d="M1268.18 50.5514L1268.14 50.6708L1264.93 49.6078C1264.7 50.5187 1264.41 51.4115 1264.05 52.2774L1267.25 53.3404L1267.21 53.4598C1266.97 54.197 1267.37 54.9927 1268.1 55.2371C1268.84 55.4815 1269.64 55.082 1269.88 54.3448L1270.85 51.4365C1271.09 50.6993 1270.69 49.9036 1269.95 49.6592C1269.22 49.4146 1268.42 49.8144 1268.18 50.5514Z" fill="black"/>
<path d="M1269.13 37.6954C1268.4 37.8467 1267.87 38.5697 1268.04 39.3568L1268.06 39.48L1264.76 40.1607C1265.03 41.0717 1265.21 41.9925 1265.33 42.9153L1268.63 42.2344L1268.66 42.3576C1268.81 43.1182 1269.56 43.6076 1270.32 43.4506C1271.08 43.2937 1271.57 42.5499 1271.41 41.7893L1270.79 38.7885C1270.63 38.0279 1269.89 37.5385 1269.13 37.6954Z" fill="black"/>
<path d="M1262.4 29.8262L1259.88 32.066C1260.55 32.7106 1261.18 33.4115 1261.75 34.1666L1264.27 31.9275L1264.35 32.0215C1264.89 32.6219 1265.78 32.6354 1266.34 32.1373C1266.92 31.6211 1266.97 30.7322 1266.45 30.152L1264.42 27.8628C1263.9 27.2826 1263.01 27.2304 1262.43 27.747C1261.85 28.2632 1261.8 29.152 1262.32 29.7323L1262.4 29.8262Z" fill="black"/>
<path d="M1254.28 28.3887L1255.34 25.182L1255.46 25.2216C1256.2 25.466 1256.99 25.0666 1257.24 24.3293C1257.48 23.5921 1257.08 22.7964 1256.34 22.552L1253.44 21.5878C1252.7 21.3434 1251.9 21.7429 1251.66 22.4801C1251.41 23.2173 1251.81 24.013 1252.55 24.2574L1252.67 24.297L1251.61 27.5037C1252.52 27.7302 1253.41 28.0262 1254.28 28.3887Z" fill="black"/>
<path d="M1241.36 24.3981L1241.48 24.3726L1242.16 27.6718C1243.07 27.4088 1243.99 27.2206 1244.91 27.1042L1244.23 23.8043L1244.36 23.7789C1245.15 23.6158 1245.6 22.8473 1245.45 22.1175C1245.29 21.3569 1244.55 20.8675 1243.79 21.0245L1240.79 21.6436C1240.03 21.8006 1239.54 22.5445 1239.7 23.305C1239.85 24.0657 1240.6 24.555 1241.36 24.3981Z" fill="black"/>
</g>
<g opacity="0.2">
<path d="M834.894 45.3507C830.676 41.5494 824.152 41.8883 820.351 46.106C816.549 50.3238 816.888 56.8477 821.106 60.649C825.324 64.4503 831.848 64.1114 835.649 59.8937C839.45 55.676 839.111 49.152 834.894 45.3507ZM822.151 48.9904C821.766 48.6439 821.735 48.0507 822.082 47.6663C822.428 47.2819 823.022 47.2511 823.406 47.5975C823.79 47.9439 823.821 48.5372 823.475 48.9216C823.128 49.306 822.535 49.3368 822.151 48.9904ZM820.352 54.061C819.968 53.7146 819.937 53.1214 820.284 52.737C820.63 52.3526 821.223 52.3218 821.608 52.6682C821.992 53.0146 822.023 53.6078 821.676 53.9923C821.33 54.3767 820.737 54.4074 820.352 54.061ZM827.007 46.6767C826.623 46.3303 826.592 45.7371 826.939 45.3527C827.285 44.9683 827.878 44.9375 828.263 45.2839C828.647 45.6303 828.678 46.2235 828.331 46.608C827.985 46.9924 827.392 47.0231 827.007 46.6767ZM824.536 53.8436C824.151 53.4972 824.121 52.9039 824.467 52.5195C824.814 52.1351 825.407 52.1043 825.791 52.4508C826.175 52.7972 826.206 53.3904 825.86 53.7748C825.513 54.1592 824.92 54.1899 824.536 53.8436ZM827.225 50.8599C826.841 50.5135 826.81 49.9203 827.156 49.5359C827.503 49.1514 828.096 49.1207 828.48 49.4671C828.865 49.8135 828.895 50.4067 828.549 50.7911C828.202 51.1755 827.609 51.2063 827.225 50.8599ZM822.666 58.9178C822.282 58.5713 822.251 57.9781 822.598 57.5937C822.944 57.2093 823.537 57.1785 823.922 57.5249C824.306 57.8713 824.337 58.4646 823.99 58.849C823.644 59.2334 823.051 59.2641 822.666 58.9178ZM832.078 48.4748C831.694 48.1283 831.663 47.5351 832.009 47.1507C832.356 46.7663 832.949 46.7355 833.333 47.082C833.718 47.4283 833.749 48.0216 833.402 48.406C833.056 48.7904 832.462 48.8211 832.078 48.4748ZM827.519 56.5326C827.135 56.1862 827.104 55.593 827.451 55.2086C827.797 54.8242 828.39 54.7934 828.775 55.1398C829.159 55.4862 829.19 56.0794 828.844 56.4639C828.497 56.8483 827.904 56.879 827.519 56.5326ZM830.209 53.5489C829.824 53.2025 829.793 52.6093 830.14 52.2249C830.486 51.8405 831.079 51.8097 831.464 52.1561C831.848 52.5026 831.879 53.0958 831.533 53.4802C831.186 53.8646 830.593 53.8954 830.209 53.5489ZM827.737 60.7162C827.352 60.3697 827.321 59.7765 827.668 59.3921C828.014 59.0077 828.607 58.9769 828.992 59.3234C829.376 59.6698 829.407 60.263 829.061 60.6474C828.714 61.0318 828.121 61.0625 827.737 60.7162ZM834.392 53.3319C834.007 52.9855 833.977 52.3922 834.323 52.0078C834.669 51.6234 835.263 51.5926 835.647 51.9391C836.031 52.2855 836.062 52.8787 835.716 53.2631C835.369 53.6475 834.776 53.6782 834.392 53.3319ZM832.594 58.4022C832.209 58.0557 832.178 57.4625 832.525 57.0781C832.871 56.6937 833.465 56.6629 833.849 57.0094C834.233 57.3558 834.264 57.949 833.918 58.3334C833.571 58.7178 832.978 58.7485 832.594 58.4022Z" fill="black"/>
<path d="M833.626 39.7241L833.7 39.7622L832.68 41.7632C833.252 42.001 833.811 42.2847 834.35 42.6147L835.371 40.6141L835.445 40.6523C835.907 40.8875 836.471 40.7044 836.706 40.2431C836.942 39.782 836.759 39.2173 836.297 38.982L834.478 38.0538C834.017 37.8186 833.452 38.0017 833.217 38.463C832.991 38.9055 833.147 39.4796 833.626 39.7241Z" fill="black"/>
<path d="M826.234 38.69L826.318 38.6856L826.435 40.9348C827.055 40.8547 827.681 40.8222 828.307 40.8376L828.19 38.5884L828.274 38.5841C828.791 38.5572 829.188 38.1163 829.162 37.5992C829.135 37.0822 828.694 36.6847 828.177 36.7116L826.137 36.8175C825.62 36.8444 825.222 37.2853 825.249 37.8024C825.276 38.3195 825.717 38.7169 826.234 38.69Z" fill="black"/>
<path d="M818.019 41.2135C818.291 41.6326 818.866 41.7813 819.316 41.4898L819.386 41.4441L820.608 43.3282C821.111 42.9441 821.637 42.6041 822.182 42.3082L820.959 40.4236L821.029 40.378C821.464 40.0962 821.588 39.5156 821.306 39.0813C821.024 38.6467 820.443 38.5232 820.009 38.805L818.295 39.9168C817.861 40.1986 817.737 40.7791 818.019 41.2135Z" fill="black"/>
<path d="M814.762 47.2996L816.763 48.3204C817.001 47.7477 817.285 47.189 817.615 46.6499L815.614 45.6294L815.652 45.5547C815.896 45.0774 815.688 44.5205 815.243 44.2936C814.782 44.0583 814.217 44.2415 813.982 44.7027L813.054 46.5223C812.819 46.9836 813.002 47.5481 813.463 47.7834C813.924 48.0187 814.489 47.8355 814.724 47.3743L814.762 47.2996Z" fill="black"/>
<path d="M815.838 52.693L813.588 52.8098L813.584 52.726C813.557 52.2091 813.116 51.8115 812.599 51.8384C812.082 51.8653 811.685 52.3062 811.712 52.8233L811.818 54.8632C811.844 55.3802 812.285 55.7776 812.802 55.7508C813.319 55.7239 813.717 55.283 813.69 54.7659L813.686 54.6821L815.935 54.5654C815.855 53.9447 815.822 53.3186 815.838 52.693Z" fill="black"/>
<path d="M816.49 61.6843L816.444 61.614L818.329 60.3917C817.944 59.8897 817.604 59.3634 817.309 58.8185L815.424 60.041L815.378 59.9707C815.086 59.5193 814.498 59.424 814.082 59.6944C813.647 59.9762 813.524 60.5567 813.805 60.9911L814.917 62.7047C815.199 63.1392 815.78 63.2628 816.214 62.981C816.648 62.6992 816.772 62.1187 816.49 61.6843Z" fill="black"/>
<path d="M822.374 66.2756L822.3 66.2375L823.32 64.2365C822.748 63.9987 822.189 63.715 821.65 63.385L820.629 65.3856L820.555 65.3474C820.093 65.1121 819.529 65.2953 819.294 65.7566C819.058 66.2177 819.241 66.7824 819.703 67.0177L821.522 67.9459C821.983 68.1811 822.548 67.9979 822.783 67.5367C823.009 67.0942 822.853 66.5201 822.374 66.2756Z" fill="black"/>
<path d="M829.766 67.31L829.682 67.3143L829.565 65.0652C828.945 65.1452 828.319 65.1778 827.693 65.1624L827.81 67.4116L827.726 67.4159C827.209 67.4428 826.811 67.8837 826.838 68.4008C826.865 68.9178 827.306 69.3152 827.823 69.2884L829.863 69.1824C830.38 69.1556 830.778 68.7146 830.751 68.1976C830.724 67.6804 830.283 67.2831 829.766 67.31Z" fill="black"/>
<path d="M837.981 64.7863C837.709 64.3671 837.134 64.2184 836.684 64.51L836.614 64.5556L835.392 62.6716C834.89 63.0557 834.364 63.3957 833.819 63.6916L835.041 65.576L834.971 65.6217C834.536 65.9035 834.413 66.484 834.695 66.9184C834.976 67.353 835.557 67.4765 835.991 67.1947L837.705 66.083C838.139 65.8012 838.263 65.2206 837.981 64.7863Z" fill="black"/>
<path d="M841.238 58.7001L839.237 57.6794C838.999 58.252 838.715 58.8107 838.385 59.3499L840.386 60.3704L840.348 60.4451C840.104 60.9224 840.312 61.4793 840.757 61.7061C841.218 61.9414 841.783 61.7583 842.018 61.297L842.946 59.4774C843.181 59.0162 842.999 58.4517 842.537 58.2163C842.076 57.981 841.511 58.1642 841.276 58.6255L841.238 58.7001Z" fill="black"/>
<path d="M840.162 53.307L842.412 53.1902L842.416 53.274C842.443 53.7909 842.884 54.1885 843.401 54.1616C843.918 54.1347 844.315 53.6938 844.288 53.1767L844.182 51.1368C844.156 50.6198 843.715 50.2223 843.198 50.2492C842.68 50.2761 842.283 50.717 842.31 51.234L842.314 51.3178L840.065 51.4346C840.145 52.0553 840.178 52.6814 840.162 53.307Z" fill="black"/>
<path d="M839.51 44.3154L839.556 44.3857L837.672 45.608C838.056 46.1101 838.396 46.6363 838.691 47.1813L840.576 45.9587L840.622 46.0291C840.914 46.4804 841.502 46.5757 841.918 46.3053C842.353 46.0235 842.476 45.443 842.195 45.0086L841.083 43.295C840.801 42.8605 840.22 42.7369 839.786 43.0187C839.352 43.3005 839.228 43.881 839.51 44.3154Z" fill="black"/>
</g>
<g opacity="0.2">
<path d="M577.332 16.941C575.091 14.9216 571.625 15.1016 569.606 17.3423C567.587 19.583 567.767 23.0489 570.007 25.0683C572.248 27.0877 575.714 26.9077 577.733 24.667C579.753 22.4263 579.573 18.9605 577.332 16.941ZM570.562 18.8746C570.358 18.6906 570.342 18.3754 570.526 18.1712C570.71 17.967 571.025 17.9507 571.229 18.1347C571.433 18.3187 571.45 18.6339 571.266 18.8381C571.082 19.0423 570.767 19.0586 570.562 18.8746ZM569.607 21.5684C569.403 21.3844 569.386 21.0692 569.57 20.865C569.754 20.6608 570.07 20.6444 570.274 20.8285C570.478 21.0125 570.494 21.3277 570.31 21.5319C570.126 21.7361 569.811 21.7524 569.607 21.5684ZM573.142 17.6455C572.938 17.4615 572.922 17.1463 573.106 16.9421C573.29 16.7379 573.605 16.7215 573.809 16.9056C574.014 17.0896 574.03 17.4047 573.846 17.609C573.662 17.8132 573.347 17.8295 573.142 17.6455ZM571.829 21.4529C571.625 21.2688 571.609 20.9537 571.793 20.7495C571.977 20.5453 572.292 20.5289 572.496 20.713C572.701 20.897 572.717 21.2121 572.533 21.4164C572.349 21.6206 572.034 21.6369 571.829 21.4529ZM573.258 19.8678C573.054 19.6838 573.037 19.3686 573.221 19.1644C573.406 18.9602 573.721 18.9438 573.925 19.1279C574.129 19.3119 574.145 19.6271 573.961 19.8313C573.777 20.0355 573.462 20.0518 573.258 19.8678ZM570.836 24.1485C570.632 23.9645 570.616 23.6494 570.8 23.4451C570.984 23.2409 571.299 23.2246 571.503 23.4086C571.707 23.5926 571.724 23.9078 571.54 24.112C571.356 24.3162 571.04 24.3326 570.836 24.1485ZM575.836 18.6007C575.632 18.4167 575.616 18.1015 575.8 17.8973C575.984 17.6931 576.299 17.6767 576.503 17.8608C576.707 18.0448 576.724 18.36 576.54 18.5642C576.356 18.7684 576.04 18.7847 575.836 18.6007ZM573.415 22.8814C573.21 22.6974 573.194 22.3823 573.378 22.178C573.562 21.9738 573.877 21.9575 574.081 22.1415C574.286 22.3255 574.302 22.6407 574.118 22.8449C573.934 23.0491 573.619 23.0655 573.415 22.8814ZM574.843 21.2964C574.639 21.1123 574.622 20.7972 574.807 20.593C574.991 20.3887 575.306 20.3724 575.51 20.5564C575.714 20.7405 575.731 21.0556 575.546 21.2598C575.362 21.4641 575.047 21.4804 574.843 21.2964ZM573.53 25.1039C573.326 24.9199 573.309 24.6048 573.493 24.4005C573.677 24.1963 573.993 24.18 574.197 24.364C574.401 24.5481 574.417 24.8632 574.233 25.0674C574.049 25.2716 573.734 25.288 573.53 25.1039ZM577.065 21.181C576.861 20.997 576.845 20.6819 577.029 20.4776C577.213 20.2734 577.528 20.2571 577.732 20.4411C577.936 20.6251 577.953 20.9403 577.769 21.1445C577.585 21.3487 577.27 21.3651 577.065 21.181ZM576.11 23.8746C575.906 23.6906 575.89 23.3755 576.074 23.1712C576.258 22.967 576.573 22.9507 576.777 23.1347C576.981 23.3187 576.998 23.6339 576.814 23.8381C576.63 24.0423 576.314 24.0586 576.11 23.8746Z" fill="black"/>
<path d="M1067.39 13.6624C1065.15 11.643 1061.68 11.823 1059.66 14.0637C1057.64 16.3044 1057.82 19.7702 1060.06 21.7896C1062.3 23.8091 1065.77 23.6291 1067.79 21.3884C1069.81 19.1477 1069.63 15.6818 1067.39 13.6624ZM1060.62 15.596C1060.41 15.412 1060.4 15.0968 1060.58 14.8926C1060.77 14.6884 1061.08 14.672 1061.29 14.8561C1061.49 15.0401 1061.51 15.3552 1061.32 15.5595C1061.14 15.7637 1060.82 15.78 1060.62 15.596ZM1059.66 18.2898C1059.46 18.1057 1059.44 17.7906 1059.63 17.5864C1059.81 17.3822 1060.13 17.3658 1060.33 17.5499C1060.53 17.7339 1060.55 18.049 1060.37 18.2532C1060.18 18.4575 1059.87 18.4738 1059.66 18.2898ZM1063.2 14.3669C1062.99 14.1828 1062.98 13.8677 1063.16 13.6635C1063.35 13.4593 1063.66 13.4429 1063.87 13.6269C1064.07 13.811 1064.09 14.1261 1063.9 14.3303C1063.72 14.5346 1063.4 14.5509 1063.2 14.3669ZM1061.89 18.1743C1061.68 17.9902 1061.67 17.6751 1061.85 17.4709C1062.03 17.2666 1062.35 17.2503 1062.55 17.4343C1062.76 17.6184 1062.77 17.9335 1062.59 18.1377C1062.41 18.3419 1062.09 18.3583 1061.89 18.1743ZM1063.31 16.5892C1063.11 16.4051 1063.09 16.09 1063.28 15.8858C1063.46 15.6816 1063.78 15.6652 1063.98 15.8493C1064.19 16.0333 1064.2 16.3484 1064.02 16.5526C1063.83 16.7569 1063.52 16.7732 1063.31 16.5892ZM1060.89 20.8699C1060.69 20.6859 1060.67 20.3707 1060.86 20.1665C1061.04 19.9623 1061.36 19.946 1061.56 20.13C1061.76 20.314 1061.78 20.6292 1061.6 20.8334C1061.41 21.0376 1061.1 21.0539 1060.89 20.8699ZM1065.89 15.3221C1065.69 15.138 1065.67 14.8229 1065.86 14.6187C1066.04 14.4145 1066.36 14.3981 1066.56 14.5822C1066.76 14.7662 1066.78 15.0813 1066.6 15.2855C1066.41 15.4898 1066.1 15.5061 1065.89 15.3221ZM1063.47 19.6028C1063.27 19.4188 1063.25 19.1036 1063.43 18.8994C1063.62 18.6952 1063.93 18.6789 1064.14 18.8629C1064.34 19.0469 1064.36 19.3621 1064.17 19.5663C1063.99 19.7705 1063.68 19.7868 1063.47 19.6028ZM1064.9 18.0177C1064.7 17.8337 1064.68 17.5186 1064.86 17.3143C1065.05 17.1101 1065.36 17.0938 1065.57 17.2778C1065.77 17.4618 1065.79 17.777 1065.6 17.9812C1065.42 18.1854 1065.1 18.2018 1064.9 18.0177ZM1063.59 21.8253C1063.38 21.6413 1063.37 21.3261 1063.55 21.1219C1063.73 20.9177 1064.05 20.9014 1064.25 21.0854C1064.46 21.2694 1064.47 21.5846 1064.29 21.7888C1064.11 21.993 1063.79 22.0093 1063.59 21.8253ZM1067.12 17.9024C1066.92 17.7184 1066.9 17.4032 1067.09 17.199C1067.27 16.9948 1067.58 16.9785 1067.79 17.1625C1067.99 17.3465 1068.01 17.6617 1067.83 17.8659C1067.64 18.0701 1067.33 18.0864 1067.12 17.9024ZM1066.17 20.596C1065.96 20.412 1065.95 20.0968 1066.13 19.8926C1066.31 19.6884 1066.63 19.672 1066.83 19.8561C1067.04 20.0401 1067.05 20.3553 1066.87 20.5595C1066.69 20.7637 1066.37 20.78 1066.17 20.596Z" fill="black"/>
<path d="M576.658 13.9518L576.698 13.972L576.156 15.0351C576.46 15.1614 576.757 15.3121 577.043 15.4874L577.585 14.4247L577.625 14.4449C577.87 14.5699 578.17 14.4726 578.295 14.2276C578.42 13.9826 578.323 13.6826 578.078 13.5576L577.111 13.0645C576.866 12.9395 576.566 13.0368 576.441 13.2818C576.321 13.5169 576.404 13.8219 576.658 13.9518Z" fill="black"/>
<path d="M572.732 13.4024L572.776 13.4001L572.838 14.595C573.168 14.5524 573.501 14.5351 573.833 14.5433L573.771 13.3484L573.815 13.3461C574.09 13.3319 574.301 13.0976 574.287 12.8229C574.273 12.5482 574.038 12.3371 573.764 12.3514L572.68 12.4077C572.405 12.4219 572.194 12.6562 572.208 12.9309C572.223 13.2056 572.457 13.4167 572.732 13.4024Z" fill="black"/>
<path d="M568.368 14.743C568.512 14.9656 568.818 15.0446 569.056 14.8897L569.094 14.8655L569.743 15.8664C570.01 15.6623 570.289 15.4817 570.579 15.3245L569.929 14.3233L569.967 14.2991C570.197 14.1494 570.263 13.841 570.114 13.6102C569.964 13.3793 569.655 13.3137 569.425 13.4634L568.514 14.0541C568.284 14.2038 568.218 14.5122 568.368 14.743Z" fill="black"/>
<path d="M566.637 17.9763L567.7 18.5186C567.827 18.2144 567.977 17.9176 568.153 17.6311L567.09 17.089L567.11 17.0493C567.239 16.7958 567.129 16.4999 566.893 16.3794C566.648 16.2544 566.348 16.3517 566.223 16.5967L565.73 17.5634C565.605 17.8084 565.702 18.1083 565.947 18.2333C566.192 18.3583 566.492 18.261 566.617 18.016L566.637 17.9763Z" fill="black"/>
<path d="M567.209 20.8415L566.014 20.9036L566.011 20.8591C565.997 20.5845 565.763 20.3732 565.488 20.3875C565.214 20.4018 565.002 20.636 565.017 20.9107L565.073 21.9944C565.087 22.2691 565.321 22.4803 565.596 22.466C565.871 22.4517 566.082 22.2175 566.068 21.9428L566.065 21.8983L567.26 21.8362C567.218 21.5065 567.2 21.1739 567.209 20.8415Z" fill="black"/>
<path d="M567.555 25.6181L567.531 25.5808L568.532 24.9314C568.328 24.6647 568.147 24.3851 567.99 24.0956L566.989 24.7451L566.965 24.7077C566.809 24.468 566.497 24.4173 566.276 24.561C566.045 24.7107 565.979 25.0191 566.129 25.2498L566.72 26.1602C566.869 26.391 567.178 26.4567 567.408 26.307C567.639 26.1573 567.705 25.8489 567.555 25.6181Z" fill="black"/>
<path d="M570.681 28.0573L570.641 28.037L571.184 26.974C570.88 26.8476 570.583 26.6969 570.296 26.5216L569.754 27.5844L569.714 27.5641C569.469 27.4392 569.17 27.5365 569.045 27.7815C568.92 28.0265 569.017 28.3265 569.262 28.4515L570.229 28.9446C570.474 29.0696 570.773 28.9722 570.898 28.7272C571.018 28.4921 570.936 28.1871 570.681 28.0573Z" fill="black"/>
<path d="M574.608 28.6067L574.564 28.6091L574.501 27.4142C574.172 27.4567 573.839 27.474 573.507 27.4658L573.569 28.6607L573.524 28.663C573.25 28.6773 573.039 28.9115 573.053 29.1862C573.067 29.4609 573.301 29.672 573.576 29.6577L574.66 29.6015C574.934 29.5872 575.145 29.353 575.131 29.0783C575.117 28.8035 574.883 28.5925 574.608 28.6067Z" fill="black"/>
<path d="M578.972 27.2661C578.828 27.0434 578.522 26.9644 578.283 27.1193L578.246 27.1436L577.597 26.1427C577.33 26.3467 577.05 26.5273 576.761 26.6845L577.41 27.6857L577.373 27.7099C577.142 27.8596 577.077 28.168 577.226 28.3988C577.376 28.6297 577.684 28.6953 577.915 28.5456L578.825 27.955C579.056 27.8053 579.122 27.4969 578.972 27.2661Z" fill="black"/>
<path d="M580.702 24.0328L579.639 23.4905C579.513 23.7947 579.362 24.0915 579.187 24.378L580.25 24.9201L580.23 24.9598C580.1 25.2134 580.211 25.5092 580.447 25.6297C580.692 25.7547 580.992 25.6574 581.117 25.4124L581.61 24.4457C581.735 24.2007 581.638 23.9008 581.393 23.7758C581.148 23.6508 580.848 23.7481 580.723 23.9931L580.702 24.0328Z" fill="black"/>
<path d="M580.131 21.1677L581.326 21.1056L581.328 21.1501C581.343 21.4247 581.577 21.6359 581.852 21.6217C582.126 21.6074 582.337 21.3731 582.323 21.0984L582.267 20.0147C582.253 19.7401 582.018 19.5289 581.744 19.5432C581.469 19.5575 581.258 19.7917 581.272 20.0664L581.274 20.1109L580.08 20.1729C580.122 20.5027 580.139 20.8353 580.131 21.1677Z" fill="black"/>
<path d="M579.784 16.3909L579.809 16.4283L578.808 17.0776C579.012 17.3443 579.192 17.6239 579.35 17.9134L580.351 17.2639L580.375 17.3013C580.53 17.5411 580.842 17.5917 581.064 17.4481C581.295 17.2984 581.36 16.99 581.211 16.7592L580.62 15.8488C580.47 15.618 580.162 15.5524 579.931 15.7021C579.7 15.8517 579.635 16.1602 579.784 16.3909Z" fill="black"/>
</g>
<g opacity="0.2">
<path d="M664.667 131.941C662.426 129.922 658.96 130.102 656.941 132.342C654.921 134.583 655.101 138.049 657.342 140.068C659.583 142.088 663.049 141.908 665.068 139.667C667.087 137.426 666.907 133.96 664.667 131.941ZM657.897 133.875C657.693 133.691 657.676 133.375 657.861 133.171C658.045 132.967 658.36 132.951 658.564 133.135C658.768 133.319 658.785 133.634 658.6 133.838C658.416 134.042 658.101 134.059 657.897 133.875ZM656.942 136.568C656.737 136.384 656.721 136.069 656.905 135.865C657.089 135.661 657.404 135.644 657.609 135.828C657.813 136.013 657.829 136.328 657.645 136.532C657.461 136.736 657.146 136.752 656.942 136.568ZM660.477 132.645C660.273 132.461 660.257 132.146 660.441 131.942C660.625 131.738 660.94 131.722 661.144 131.906C661.348 132.09 661.365 132.405 661.181 132.609C660.997 132.813 660.681 132.83 660.477 132.645ZM659.164 136.453C658.96 136.269 658.944 135.954 659.128 135.749C659.312 135.545 659.627 135.529 659.831 135.713C660.035 135.897 660.052 136.212 659.868 136.416C659.684 136.621 659.368 136.637 659.164 136.453ZM660.593 134.868C660.389 134.684 660.372 134.369 660.556 134.164C660.74 133.96 661.055 133.944 661.26 134.128C661.464 134.312 661.48 134.627 661.296 134.831C661.112 135.035 660.797 135.052 660.593 134.868ZM658.171 139.149C657.967 138.965 657.95 138.649 658.134 138.445C658.318 138.241 658.634 138.225 658.838 138.409C659.042 138.593 659.058 138.908 658.874 139.112C658.69 139.316 658.375 139.333 658.171 139.149ZM663.171 133.601C662.967 133.417 662.95 133.102 663.134 132.897C663.319 132.693 663.634 132.677 663.838 132.861C664.042 133.045 664.058 133.36 663.874 133.564C663.69 133.768 663.375 133.785 663.171 133.601ZM660.749 137.881C660.545 137.697 660.529 137.382 660.713 137.178C660.897 136.974 661.212 136.957 661.416 137.142C661.62 137.326 661.637 137.641 661.453 137.845C661.269 138.049 660.953 138.065 660.749 137.881ZM662.178 136.296C661.974 136.112 661.957 135.797 662.141 135.593C662.325 135.389 662.64 135.372 662.845 135.556C663.049 135.74 663.065 136.056 662.881 136.26C662.697 136.464 662.382 136.48 662.178 136.296ZM660.865 140.104C660.66 139.92 660.644 139.605 660.828 139.401C661.012 139.196 661.327 139.18 661.531 139.364C661.736 139.548 661.752 139.863 661.568 140.067C661.384 140.272 661.069 140.288 660.865 140.104ZM664.4 136.181C664.196 135.997 664.18 135.682 664.364 135.478C664.548 135.273 664.863 135.257 665.067 135.441C665.271 135.625 665.288 135.94 665.104 136.145C664.919 136.349 664.604 136.365 664.4 136.181ZM663.445 138.875C663.241 138.691 663.224 138.375 663.408 138.171C663.592 137.967 663.908 137.951 664.112 138.135C664.316 138.319 664.332 138.634 664.148 138.838C663.964 139.042 663.649 139.059 663.445 138.875Z" fill="black"/>
<path d="M663.993 128.952L664.033 128.972L663.491 130.035C663.795 130.161 664.092 130.312 664.378 130.487L664.92 129.425L664.96 129.445C665.205 129.57 665.505 129.473 665.63 129.228C665.755 128.983 665.657 128.683 665.412 128.558L664.446 128.064C664.201 127.939 663.901 128.037 663.776 128.282C663.656 128.517 663.739 128.822 663.993 128.952Z" fill="black"/>
<path d="M660.066 128.402L660.111 128.4L660.173 129.595C660.503 129.552 660.835 129.535 661.168 129.543L661.106 128.348L661.15 128.346C661.425 128.332 661.636 128.098 661.622 127.823C661.607 127.548 661.373 127.337 661.098 127.351L660.015 127.408C659.74 127.422 659.529 127.656 659.543 127.931C659.557 128.206 659.792 128.417 660.066 128.402Z" fill="black"/>
<path d="M655.702 129.743C655.847 129.966 656.152 130.045 656.391 129.89L656.428 129.865L657.078 130.866C657.344 130.662 657.624 130.482 657.914 130.325L657.264 129.323L657.301 129.299C657.532 129.149 657.598 128.841 657.448 128.61C657.298 128.379 656.99 128.314 656.759 128.463L655.849 129.054C655.618 129.204 655.552 129.512 655.702 129.743Z" fill="black"/>
<path d="M653.972 132.976L655.035 133.519C655.161 133.214 655.312 132.918 655.487 132.631L654.425 132.089L654.445 132.049C654.574 131.796 654.464 131.5 654.228 131.379C653.983 131.254 653.683 131.352 653.558 131.597L653.064 132.563C652.939 132.808 653.037 133.108 653.282 133.233C653.527 133.358 653.827 133.261 653.952 133.016L653.972 132.976Z" fill="black"/>
<path d="M654.543 135.842L653.348 135.904L653.346 135.859C653.332 135.584 653.098 135.373 652.823 135.388C652.548 135.402 652.337 135.636 652.351 135.911L652.408 136.994C652.422 137.269 652.656 137.48 652.931 137.466C653.206 137.452 653.417 137.217 653.402 136.943L653.4 136.898L654.595 136.836C654.552 136.506 654.535 136.174 654.543 135.842Z" fill="black"/>
<path d="M654.89 140.618L654.866 140.581L655.867 139.931C655.663 139.665 655.482 139.385 655.325 139.096L654.324 139.745L654.299 139.708C654.144 139.468 653.832 139.417 653.61 139.561C653.38 139.711 653.314 140.019 653.464 140.25L654.054 141.16C654.204 141.391 654.512 141.457 654.743 141.307C654.974 141.157 655.04 140.849 654.89 140.618Z" fill="black"/>
<path d="M658.016 143.057L657.976 143.037L658.518 141.974C658.214 141.848 657.917 141.697 657.631 141.522L657.089 142.584L657.049 142.564C656.804 142.439 656.504 142.536 656.379 142.781C656.254 143.026 656.352 143.326 656.597 143.451L657.563 143.945C657.808 144.07 658.108 143.972 658.233 143.727C658.353 143.492 658.27 143.187 658.016 143.057Z" fill="black"/>
<path d="M661.943 143.607L661.898 143.609L661.836 142.414C661.506 142.457 661.174 142.474 660.841 142.466L660.903 143.661L660.859 143.663C660.584 143.677 660.373 143.911 660.387 144.186C660.402 144.461 660.636 144.672 660.911 144.658L661.994 144.601C662.269 144.587 662.48 144.353 662.466 144.078C662.452 143.803 662.217 143.592 661.943 143.607Z" fill="black"/>
<path d="M666.307 142.266C666.163 142.043 665.857 141.964 665.618 142.119L665.581 142.144L664.931 141.143C664.665 141.347 664.385 141.527 664.096 141.685L664.745 142.686L664.708 142.71C664.477 142.86 664.411 143.168 664.561 143.399C664.711 143.63 665.019 143.695 665.25 143.546L666.16 142.955C666.391 142.805 666.457 142.497 666.307 142.266Z" fill="black"/>
<path d="M668.037 139.033L666.974 138.491C666.848 138.795 666.697 139.092 666.522 139.378L667.585 139.92L667.564 139.96C667.435 140.213 667.545 140.509 667.782 140.63C668.027 140.755 668.327 140.657 668.452 140.412L668.945 139.446C669.07 139.201 668.973 138.901 668.727 138.776C668.482 138.651 668.182 138.748 668.057 138.993L668.037 139.033Z" fill="black"/>
<path d="M667.466 136.168L668.661 136.106L668.663 136.15C668.677 136.425 668.911 136.636 669.186 136.622C669.461 136.607 669.672 136.373 669.658 136.098L669.601 135.015C669.587 134.74 669.353 134.529 669.078 134.543C668.804 134.557 668.592 134.792 668.607 135.066L668.609 135.111L667.414 135.173C667.457 135.503 667.474 135.835 667.466 136.168Z" fill="black"/>
<path d="M667.119 131.391L667.143 131.428L666.142 132.078C666.346 132.344 666.527 132.624 666.684 132.913L667.685 132.264L667.71 132.301C667.865 132.541 668.177 132.592 668.399 132.448C668.629 132.298 668.695 131.99 668.545 131.759L667.955 130.849C667.805 130.618 667.497 130.552 667.266 130.702C667.035 130.852 666.969 131.16 667.119 131.391Z" fill="black"/>
</g>
<g opacity="0.2">
<path d="M805.365 128.249C794.214 126.103 783.396 133.428 781.249 144.579C779.102 155.73 786.427 166.549 797.579 168.696C808.73 170.843 819.548 163.517 821.695 152.366C823.842 141.215 816.516 130.396 805.365 128.249ZM787.313 147.656C786.296 147.461 785.63 146.477 785.826 145.461C786.022 144.444 787.005 143.778 788.022 143.974C789.038 144.169 789.704 145.153 789.508 146.169C789.313 147.186 788.329 147.852 787.313 147.656ZM789.477 158.197C788.46 158.001 787.794 157.017 787.99 156.001C788.186 154.985 789.169 154.319 790.186 154.514C791.202 154.71 791.868 155.694 791.672 156.71C791.477 157.726 790.493 158.392 789.477 158.197ZM793.235 138.674C792.219 138.478 791.553 137.494 791.748 136.478C791.944 135.462 792.928 134.796 793.944 134.991C794.96 135.187 795.627 136.171 795.431 137.187C795.235 138.203 794.251 138.869 793.235 138.674ZM796.414 153.499C795.398 153.303 794.732 152.319 794.927 151.303C795.123 150.287 796.107 149.621 797.123 149.816C798.139 150.012 798.805 150.996 798.61 152.012C798.414 153.028 797.43 153.694 796.414 153.499ZM797.933 145.61C796.916 145.415 796.25 144.431 796.446 143.415C796.642 142.398 797.625 141.732 798.642 141.928C799.658 142.124 800.324 143.107 800.128 144.124C799.933 145.14 798.949 145.806 797.933 145.61ZM798.46 164.119C797.444 163.923 796.777 162.939 796.973 161.923C797.169 160.907 798.152 160.241 799.169 160.436C800.185 160.632 800.851 161.616 800.655 162.632C800.46 163.648 799.476 164.314 798.46 164.119ZM803.775 136.509C802.759 136.313 802.093 135.33 802.288 134.313C802.484 133.297 803.468 132.631 804.484 132.827C805.5 133.022 806.167 134.006 805.971 135.022C805.775 136.039 804.791 136.705 803.775 136.509ZM804.302 155.017C803.286 154.822 802.62 153.838 802.816 152.822C803.011 151.805 803.995 151.139 805.011 151.335C806.027 151.531 806.694 152.514 806.498 153.531C806.302 154.547 805.319 155.213 804.302 155.017ZM805.821 147.129C804.805 146.933 804.139 145.95 804.334 144.933C804.53 143.917 805.514 143.251 806.53 143.447C807.546 143.642 808.212 144.626 808.017 145.642C807.821 146.659 806.837 147.325 805.821 147.129ZM809 161.955C807.983 161.76 807.317 160.776 807.513 159.76C807.709 158.743 808.692 158.077 809.709 158.273C810.725 158.468 811.391 159.452 811.195 160.468C811 161.485 810.016 162.151 809 161.955ZM812.758 142.432C811.742 142.237 811.076 141.253 811.271 140.237C811.467 139.22 812.451 138.554 813.467 138.75C814.483 138.945 815.15 139.929 814.954 140.945C814.758 141.962 813.774 142.628 812.758 142.432ZM814.922 152.972C813.906 152.776 813.24 151.792 813.436 150.776C813.631 149.76 814.615 149.094 815.631 149.289C816.648 149.485 817.314 150.469 817.118 151.485C816.922 152.501 815.938 153.167 814.922 152.972Z" fill="black"/>
<path d="M797.377 119.928L797.544 119.916L797.866 124.397C799.092 124.212 800.342 124.12 801.606 124.127L801.285 119.647L801.452 119.635C802.485 119.561 803.262 118.664 803.188 117.631C803.114 116.598 802.216 115.821 801.184 115.895L797.109 116.187C796.076 116.261 795.299 117.159 795.373 118.191C795.444 119.183 796.304 120.005 797.377 119.928Z" fill="black"/>
<path d="M783.653 125.8L783.792 125.706L786.318 129.436C787.297 128.657 788.336 127.954 789.423 127.333L786.897 123.603L787.036 123.509C787.893 122.929 788.118 121.763 787.537 120.905C786.957 120.048 785.791 119.824 784.933 120.404L781.551 122.695C780.693 123.275 780.469 124.441 781.049 125.299C781.63 126.156 782.796 126.38 783.653 125.8Z" fill="black"/>
<path d="M772.198 138.614C773.097 139.05 774.236 138.71 774.704 137.746L774.777 137.595L778.818 139.557C779.28 138.38 779.83 137.254 780.457 136.184L776.415 134.222L776.488 134.071C776.941 133.139 776.552 132.018 775.621 131.565C774.689 131.113 773.567 131.502 773.115 132.433L771.331 136.108C770.878 137.04 771.267 138.162 772.198 138.614Z" fill="black"/>
<path d="M772.915 152.401L777.396 152.079C777.212 150.853 777.12 149.603 777.127 148.339L772.647 148.661L772.635 148.493C772.558 147.424 771.627 146.686 770.631 146.757C769.598 146.831 768.821 147.729 768.895 148.762L769.187 152.836C769.261 153.869 770.158 154.647 771.191 154.572C772.224 154.498 773.001 153.601 772.927 152.568L772.915 152.401Z" fill="black"/>
<path d="M830.029 144.544L825.548 144.865C825.733 146.092 825.825 147.341 825.818 148.606L830.298 148.284L830.31 148.452C830.386 149.521 831.318 150.259 832.314 150.188C833.347 150.114 834.124 149.216 834.05 148.183L833.758 144.108C833.683 143.076 832.787 142.298 831.753 142.372C830.72 142.447 829.943 143.344 830.017 144.377L830.029 144.544Z" fill="black"/>
<path d="M822.612 136.423L826.342 133.897L826.436 134.036C827.016 134.894 828.182 135.118 829.039 134.538C829.897 133.957 830.121 132.791 829.541 131.934L827.25 128.551C826.67 127.694 825.504 127.469 824.646 128.05C823.789 128.63 823.564 129.796 824.145 130.654L824.239 130.793L820.509 133.318C821.288 134.298 821.991 135.336 822.612 136.423Z" fill="black"/>
<path d="M812.198 121.704L812.349 121.777L810.387 125.818C811.564 126.28 812.69 126.83 813.76 127.457L815.722 123.415L815.873 123.488C816.841 123.958 817.945 123.514 818.379 122.621C818.831 121.689 818.442 120.567 817.511 120.115L813.836 118.331C812.904 117.878 811.782 118.267 811.33 119.198C810.878 120.13 811.266 121.252 812.198 121.704Z" fill="black"/>
</g>
<g opacity="0.2">
<path d="M124.788 -15.4263C110.768 -17.6461 97.5556 -8.04565 95.3358 5.97457C93.116 19.9948 102.716 33.2071 116.737 35.4269C130.757 37.6467 143.969 28.0463 146.189 14.026C148.409 0.00582395 138.808 -13.2065 124.788 -15.4263ZM103.039 9.56716C101.761 9.36487 100.888 8.16356 101.091 6.88573C101.293 5.60789 102.494 4.73503 103.772 4.93733C105.05 5.13959 105.923 6.34092 105.721 7.61876C105.518 8.89659 104.317 9.76945 103.039 9.56716ZM106.18 22.6457C104.902 22.4435 104.029 21.2421 104.231 19.9643C104.433 18.6865 105.635 17.8136 106.913 18.0159C108.19 18.2182 109.063 19.4195 108.861 20.6973C108.659 21.9752 107.457 22.848 106.18 22.6457ZM110.066 -1.90041C108.788 -2.1027 107.915 -3.304 108.118 -4.58184C108.32 -5.85967 109.521 -6.73253 110.799 -6.53024C112.077 -6.32795 112.95 -5.12664 112.747 -3.84881C112.545 -2.57097 111.344 -1.69811 110.066 -1.90041ZM114.652 16.4891C113.374 16.2868 112.501 15.0855 112.703 13.8077C112.906 12.5298 114.107 11.657 115.385 11.8593C116.662 12.0615 117.535 13.2629 117.333 14.5407C117.131 15.8185 115.929 16.6914 114.652 16.4891ZM116.222 6.57106C114.944 6.36877 114.071 5.16746 114.274 3.88962C114.476 2.61179 115.677 1.73893 116.955 1.94122C118.233 2.14352 119.106 3.34482 118.903 4.62266C118.701 5.90049 117.5 6.77333 116.222 6.57106ZM117.648 29.672C116.37 29.4697 115.497 28.2684 115.699 26.9906C115.902 25.7127 117.103 24.8399 118.381 25.0422C119.658 25.2444 120.532 26.4458 120.329 27.7236C120.127 29.0014 118.925 29.8743 117.648 29.672ZM123.144 -5.04156C121.866 -5.24386 120.993 -6.44516 121.196 -7.723C121.398 -9.00083 122.599 -9.87369 123.877 -9.6714C125.155 -9.46913 126.028 -8.2678 125.825 -6.98997C125.623 -5.71213 124.422 -4.8393 123.144 -5.04156ZM124.57 18.0594C123.292 17.8571 122.419 16.6558 122.621 15.378C122.824 14.1001 124.025 13.2273 125.303 13.4296C126.58 13.6318 127.454 14.8332 127.251 16.111C127.049 17.3888 125.847 18.2617 124.57 18.0594ZM126.14 8.14136C124.862 7.93907 123.989 6.73776 124.192 5.45993C124.394 4.18209 125.595 3.30923 126.873 3.51152C128.151 3.71382 129.024 4.91512 128.822 6.19296C128.619 7.47079 127.418 8.34365 126.14 8.14136ZM130.726 26.5321C129.448 26.3298 128.575 25.1285 128.777 23.8507C128.98 22.5728 130.181 21.7 131.459 21.9023C132.736 22.1045 133.609 23.3059 133.407 24.5837C133.205 25.8615 132.003 26.7344 130.726 26.5321ZM134.612 1.98594C133.334 1.78364 132.461 0.582336 132.664 -0.695498C132.866 -1.97333 134.067 -2.84619 135.345 -2.6439C136.623 -2.44161 137.496 -1.2403 137.293 0.0375347C137.091 1.31537 135.89 2.1882 134.612 1.98594ZM137.753 15.0633C136.475 14.861 135.602 13.6597 135.804 12.3819C136.007 11.104 137.208 10.2312 138.486 10.4335C139.763 10.6357 140.636 11.8371 140.434 13.1149C140.232 14.3927 139.03 15.2656 137.753 15.0633Z" fill="black"/>
<path d="M83.782 -1.1029C84.9228 -0.594811 86.3315 -1.0672 86.8763 -2.29082L86.9615 -2.48235L92.0907 -0.19903C92.6197 -1.68821 93.2595 -3.11795 93.9984 -4.48073L88.8678 -6.76475L88.953 -6.95628C89.4794 -8.13883 88.9476 -9.52419 87.7651 -10.0506C86.5819 -10.5774 85.1972 -10.0452 84.6707 -8.86267L82.5941 -4.19721C82.0676 -3.01466 82.5994 -1.62931 83.782 -1.1029Z" fill="black"/>
<path d="M85.2492 16.0915L90.8341 15.5042C90.5523 13.9798 90.3855 12.4224 90.3425 10.8426L84.7589 11.4298L84.737 11.2213C84.5969 9.8891 83.4028 9.00477 82.161 9.13562C80.8737 9.27098 79.9399 10.4243 80.0753 11.7116L80.6094 16.7903C80.7449 18.0776 81.8974 19.0115 83.1854 18.876C84.4727 18.7406 85.4064 17.5873 85.2711 16.3L85.2492 16.0915Z" fill="black"/>
<path d="M94.8525 25.9304L90.2974 29.2402L90.1741 29.0705C89.4135 28.0235 87.9476 27.7911 86.9004 28.5522C85.8532 29.3131 85.6211 30.7788 86.3821 31.826L89.3839 35.9571C90.1447 37.0043 91.6105 37.2364 92.6577 36.4755C93.7048 35.7146 93.9369 34.2489 93.176 33.2017L93.0527 33.0321L97.6077 29.7224C96.5942 28.5305 95.6728 27.2625 94.8525 25.9304Z" fill="black"/>
<path d="M108.473 43.8867L108.281 43.8015L110.565 38.6723C109.075 38.1434 107.646 37.5037 106.283 36.7647L103.999 41.8951L103.808 41.8099C102.579 41.2629 101.218 41.8631 100.713 42.9978C100.187 44.1803 100.719 45.5657 101.901 46.0921L106.567 48.1689C107.749 48.6955 109.135 48.1634 109.661 46.981C110.187 45.7985 109.655 44.4131 108.473 43.8867Z" fill="black"/>
<path d="M127.062 45.4917L126.854 45.5136L126.266 39.9287C124.742 40.2105 123.185 40.3773 121.605 40.4203L122.192 46.0039L121.984 46.0258C120.696 46.1612 119.762 47.3145 119.898 48.6018C120.033 49.889 121.186 50.823 122.474 50.6875L127.552 50.1534C128.84 50.0181 129.774 48.8647 129.638 47.5774C129.508 46.3422 128.4 45.351 127.062 45.4917Z" fill="black"/>
<path d="M143.964 37.587L143.795 37.7103L140.485 33.1552C139.293 34.1688 138.025 35.0903 136.693 35.9107L140.003 40.4655L139.833 40.5888C138.786 41.3497 138.554 42.8154 139.315 43.8626C140.075 44.9097 141.541 45.1418 142.588 44.3809L146.72 41.3791C147.767 40.6181 147.999 39.1525 147.238 38.1053C146.477 37.0578 145.011 36.8262 143.964 37.587Z" fill="black"/>
<path d="M157.744 21.1025C156.603 20.5944 155.195 21.0668 154.65 22.2904L154.565 22.482L149.435 20.1987C148.907 21.6879 148.267 23.1176 147.528 24.4804L152.658 26.7642L152.573 26.9557C152.047 28.1383 152.578 29.5236 153.761 30.05C154.944 30.5768 156.329 30.0447 156.855 28.8621L158.932 24.1968C159.459 23.0143 158.927 21.6289 157.744 21.1025Z" fill="black"/>
<path d="M156.277 3.9082L150.691 4.49559C150.973 6.01998 151.14 7.57741 151.183 9.1572L156.767 8.57002L156.789 8.7785C156.929 10.1107 158.123 10.995 159.365 10.8642C160.652 10.7288 161.586 9.57553 161.45 8.28818L160.916 3.20952C160.781 1.92218 159.628 0.988267 158.34 1.12383C157.053 1.25919 156.119 2.41252 156.255 3.69984L156.277 3.9082Z" fill="black"/>
</g>
<g opacity="0.2">
<path d="M36.8408 123.264C26.5333 121.632 16.8197 128.69 15.1878 138.998C13.5558 149.305 20.6139 159.019 30.9214 160.651C41.2289 162.283 50.9425 155.225 52.5745 144.917C54.2064 134.61 47.1483 124.896 36.8408 123.264ZM20.8512 141.639C19.9118 141.49 19.27 140.607 19.4187 139.668C19.5675 138.728 20.4507 138.087 21.3901 138.235C22.3293 138.384 22.9713 139.267 22.8225 140.207C22.6738 141.146 21.7905 141.788 20.8512 141.639ZM23.16 151.254C22.2206 151.106 21.5788 150.222 21.7275 149.283C21.8763 148.344 22.7596 147.702 23.6989 147.851C24.6382 147.999 25.2801 148.882 25.1313 149.822C24.9826 150.761 24.0993 151.403 23.16 151.254ZM26.0172 133.208C25.0778 133.06 24.436 132.176 24.5847 131.237C24.7335 130.298 25.6167 129.656 26.5561 129.805C27.4954 129.953 28.1373 130.836 27.9885 131.776C27.8398 132.715 26.9565 133.357 26.0172 133.208ZM29.3886 146.728C28.4493 146.579 27.8074 145.696 27.9562 144.757C28.1049 143.817 28.9882 143.176 29.9275 143.324C30.8669 143.473 31.5087 144.356 31.36 145.296C31.2112 146.235 30.3278 146.877 29.3886 146.728ZM30.5431 139.436C29.6038 139.288 28.9619 138.405 29.1106 137.465C29.2594 136.526 30.1427 135.884 31.082 136.033C32.0213 136.181 32.6632 137.065 32.5144 138.004C32.3657 138.943 31.4823 139.585 30.5431 139.436ZM31.5913 156.42C30.652 156.271 30.0101 155.388 30.1589 154.449C30.3076 153.509 31.1909 152.867 32.1302 153.016C33.0695 153.165 33.7114 154.048 33.5627 154.988C33.4139 155.927 32.5305 156.569 31.5913 156.42ZM35.632 130.899C34.6927 130.75 34.0508 129.867 34.1996 128.928C34.3483 127.988 35.2316 127.346 36.1709 127.495C37.1101 127.644 37.7521 128.527 37.6034 129.467C37.4546 130.406 36.5712 131.048 35.632 130.899ZM36.6802 147.883C35.7409 147.734 35.0991 146.851 35.2478 145.911C35.3965 144.972 36.2798 144.33 37.2192 144.479C38.1585 144.627 38.8003 145.511 38.6516 146.45C38.5029 147.39 37.6196 148.031 36.6802 147.883ZM37.8347 140.591C36.8954 140.442 36.2535 139.559 36.4023 138.62C36.551 137.68 37.4343 137.038 38.3736 137.187C39.313 137.336 39.9548 138.219 39.8061 139.158C39.6573 140.098 38.774 140.74 37.8347 140.591ZM41.206 154.112C40.2667 153.963 39.6248 153.08 39.7736 152.14C39.9223 151.201 40.8056 150.559 41.7449 150.708C42.6843 150.856 43.3261 151.74 43.1774 152.679C43.0286 153.619 42.1452 154.26 41.206 154.112ZM44.0632 136.066C43.1239 135.917 42.482 135.034 42.6308 134.094C42.7795 133.155 43.6628 132.513 44.6021 132.662C45.5415 132.81 46.1833 133.694 46.0346 134.633C45.8858 135.573 45.0024 136.214 44.0632 136.066ZM46.3722 145.68C45.4328 145.531 44.791 144.648 44.9397 143.708C45.0885 142.769 45.9718 142.127 46.9111 142.276C47.8504 142.425 48.4923 143.308 48.3435 144.247C48.1948 145.187 47.3114 145.829 46.3722 145.68Z" fill="black"/>
<path d="M29.2501 115.864L29.4034 115.848L29.8351 119.954C30.9559 119.747 32.1009 119.624 33.2623 119.593L32.8306 115.488L32.9839 115.472C33.9303 115.372 34.6168 114.524 34.5172 113.578C34.4178 112.631 33.57 111.945 32.6235 112.044L28.8897 112.437C27.9433 112.536 27.2569 113.384 27.3564 114.331C27.4517 115.239 28.2668 115.968 29.2501 115.864Z" fill="black"/>
<path d="M16.8238 121.676L16.9485 121.585L19.3818 124.934C20.258 124.189 21.1902 123.512 22.1697 122.908L19.7364 119.56L19.8611 119.469C20.631 118.91 20.8016 117.832 20.2422 117.062C19.6828 116.292 18.6052 116.122 17.8353 116.681L14.7981 118.888C14.0282 119.448 13.8576 120.525 14.4171 121.295C14.9763 122.065 16.0541 122.235 16.8238 121.676Z" fill="black"/>
<path d="M6.69354 133.795C7.53226 134.168 8.56793 133.821 8.96844 132.921L9.03109 132.781L12.802 134.459C13.191 133.364 13.6613 132.313 14.2045 131.311L10.4325 129.632L10.4952 129.491C10.8822 128.622 10.4913 127.603 9.62186 127.216C8.75205 126.829 7.73396 127.22 7.34696 128.09L5.82019 131.52C5.43319 132.389 5.82414 133.408 6.69354 133.795Z" fill="black"/>
<path d="M7.7722 146.436L11.8782 146.004C11.671 144.883 11.5484 143.738 11.5168 142.577L7.41173 143.008L7.39564 142.855C7.29263 141.876 6.41477 141.226 5.50179 141.322C4.55536 141.421 3.8689 142.269 3.96841 143.216L4.36107 146.949C4.4607 147.896 5.30801 148.582 6.25492 148.483C7.20134 148.383 7.8878 147.535 7.78829 146.589L7.7722 146.436Z" fill="black"/>
<path d="M14.8324 153.669L11.4836 156.103L11.393 155.978C10.8338 155.208 9.75604 155.037 8.98614 155.597C8.21626 156.156 8.04566 157.234 8.60507 158.004L10.812 161.041C11.3713 161.811 12.4489 161.981 13.2188 161.422C13.9887 160.862 14.1593 159.785 13.5999 159.015L13.5093 158.89L16.8581 156.457C16.1129 155.581 15.4355 154.649 14.8324 153.669Z" fill="black"/>
<path d="M61.0698 150.12C60.231 149.746 59.1954 150.094 58.7949 150.993L58.7322 151.134L54.9613 149.455C54.5725 150.55 54.1021 151.601 53.5589 152.603L57.3307 154.282L57.268 154.423C56.881 155.292 57.272 156.311 58.1414 156.698C59.0112 157.085 60.0292 156.694 60.4163 155.825L61.9431 152.395C62.3301 151.525 61.9392 150.507 61.0698 150.12Z" fill="black"/>
<path d="M59.9909 137.479L55.8847 137.911C56.0918 139.031 56.2144 140.176 56.2462 141.338L60.3512 140.906L60.3673 141.059C60.4703 142.039 61.3482 142.689 62.2612 142.593C63.2076 142.493 63.8942 141.645 63.7945 140.699L63.4019 136.965C63.3022 136.019 62.4549 135.332 61.508 135.432C60.5616 135.531 59.8751 136.379 59.9747 137.326L59.9909 137.479Z" fill="black"/>
<path d="M52.9302 130.246L56.2791 127.813L56.3697 127.937C56.9289 128.707 58.0066 128.878 58.7765 128.318C59.5464 127.759 59.717 126.681 59.1576 125.912L56.9507 122.874C56.3914 122.104 55.3137 121.934 54.5438 122.493C53.774 123.053 53.6033 124.13 54.1628 124.9L54.2534 125.025L50.9046 127.458C51.6498 128.334 52.3271 129.267 52.9302 130.246Z" fill="black"/>
<path d="M42.9168 117.044L43.0576 117.107L41.379 120.878C42.4738 121.267 43.5249 121.737 44.5268 122.28L46.2059 118.508L46.3467 118.571C47.25 118.973 48.2503 118.532 48.6216 117.698C49.0086 116.828 48.6176 115.81 47.7483 115.423L44.3184 113.896C43.4489 113.509 42.4304 113.9 42.0435 114.769C41.6564 115.639 42.0474 116.657 42.9168 117.044Z" fill="black"/>
</g>
<g opacity="0.2">
<path d="M1125.3 81.0214C1097.75 83.6101 1077.43 108.137 1080.02 135.696C1082.61 163.255 1107.14 183.569 1134.69 180.981C1162.25 178.392 1182.57 153.865 1179.98 126.306C1177.39 98.7473 1152.86 78.4326 1125.3 81.0214ZM1096.31 138.756C1093.8 138.992 1091.57 137.145 1091.33 134.633C1091.1 132.121 1092.94 129.891 1095.45 129.656C1097.97 129.42 1100.2 131.267 1100.43 133.778C1100.67 136.29 1098.82 138.52 1096.31 138.756ZM1108.57 161.943C1106.06 162.179 1103.83 160.332 1103.59 157.82C1103.35 155.309 1105.2 153.078 1107.71 152.843C1110.23 152.607 1112.46 154.454 1112.69 156.965C1112.93 159.477 1111.08 161.707 1108.57 161.943ZM1104.04 113.694C1101.52 113.93 1099.29 112.083 1099.06 109.571C1098.82 107.06 1100.67 104.829 1103.18 104.594C1105.69 104.358 1107.92 106.205 1108.16 108.716C1108.4 111.228 1106.55 113.458 1104.04 113.694ZM1121.59 146.215C1119.08 146.451 1116.85 144.603 1116.62 142.092C1116.38 139.58 1118.23 137.35 1120.74 137.114C1123.25 136.878 1125.48 138.725 1125.72 141.237C1125.95 143.749 1124.11 145.979 1121.59 146.215ZM1119.76 126.719C1117.25 126.955 1115.02 125.108 1114.79 122.596C1114.55 120.085 1116.4 117.855 1118.91 117.619C1121.42 117.383 1123.65 119.23 1123.89 121.742C1124.12 124.253 1122.27 126.483 1119.76 126.719ZM1133.63 169.669C1131.12 169.904 1128.89 168.057 1128.65 165.546C1128.42 163.034 1130.27 160.804 1132.78 160.568C1135.29 160.332 1137.52 162.179 1137.75 164.691C1137.99 167.203 1136.14 169.433 1133.63 169.669ZM1127.22 101.434C1124.71 101.67 1122.48 99.8229 1122.24 97.3112C1122.01 94.7994 1123.86 92.5693 1126.37 92.3334C1128.88 92.0975 1131.11 93.9445 1131.34 96.4563C1131.58 98.968 1129.73 101.198 1127.22 101.434ZM1141.09 144.383C1138.58 144.619 1136.35 142.772 1136.11 140.26C1135.88 137.749 1137.72 135.519 1140.24 135.283C1142.75 135.047 1144.98 136.894 1145.21 139.406C1145.45 141.917 1143.6 144.147 1141.09 144.383ZM1139.26 124.888C1136.75 125.124 1134.52 123.277 1134.28 120.765C1134.05 118.253 1135.89 116.023 1138.4 115.787C1140.92 115.551 1143.15 117.398 1143.38 119.91C1143.62 122.422 1141.77 124.652 1139.26 124.888ZM1156.82 157.411C1154.31 157.647 1152.08 155.8 1151.84 153.288C1151.6 150.776 1153.45 148.546 1155.96 148.31C1158.47 148.074 1160.7 149.921 1160.94 152.433C1161.18 154.945 1159.33 157.175 1156.82 157.411ZM1152.29 109.162C1149.77 109.398 1147.54 107.551 1147.31 105.039C1147.07 102.527 1148.92 100.297 1151.43 100.061C1153.94 99.8253 1156.17 101.672 1156.41 104.184C1156.64 106.696 1154.8 108.926 1152.29 109.162ZM1164.54 132.346C1162.03 132.582 1159.8 130.735 1159.57 128.224C1159.33 125.712 1161.18 123.482 1163.69 123.246C1166.2 123.01 1168.43 124.857 1168.67 127.369C1168.9 129.88 1167.06 132.111 1164.54 132.346Z" fill="black"/>
<path d="M1100.93 67.0019L1101.31 66.8597L1105.13 77.1258C1107.87 75.8561 1110.73 74.7876 1113.69 73.9422L1109.88 63.6784L1110.27 63.5362C1112.63 62.6578 1113.84 60.0274 1112.96 57.6611C1112.08 55.2947 1109.45 54.0882 1107.09 54.9669L1097.75 58.4325C1095.38 59.3109 1094.18 61.9413 1095.06 64.3077C1095.9 66.5785 1098.47 67.9146 1100.93 67.0019Z" fill="black"/>
<path d="M1072.83 90.111L1073.09 89.7961L1081.54 96.7998C1083.3 94.3085 1085.25 91.9544 1087.37 89.7602L1078.92 82.7569L1079.18 82.442C1080.79 80.498 1080.52 77.6171 1078.57 76.0069C1076.63 74.3968 1073.75 74.6675 1072.14 76.6114L1065.79 84.2805C1064.18 86.2244 1064.45 89.1054 1066.39 90.7155C1068.34 92.3262 1071.22 92.0547 1072.83 90.111Z" fill="black"/>
<path d="M1054.77 127.915C1057.17 128.323 1059.6 126.749 1060.04 124.174L1060.11 123.771L1070.9 125.603C1071.18 122.534 1071.7 119.524 1072.44 116.592L1061.64 114.759L1061.71 114.356C1062.13 111.868 1060.45 109.508 1057.97 109.086C1055.48 108.663 1053.12 110.338 1052.7 112.827L1051.03 122.644C1050.61 125.133 1052.28 127.493 1054.77 127.915Z" fill="black"/>
<path d="M1065.86 159.687L1076.13 155.876C1074.86 153.132 1073.79 150.271 1072.94 147.308L1062.68 151.118L1062.54 150.735C1061.63 148.286 1058.94 147.193 1056.66 148.041C1054.29 148.919 1053.09 151.549 1053.97 153.916L1057.43 163.251C1058.31 165.618 1060.94 166.824 1063.31 165.945C1065.67 165.067 1066.88 162.436 1066 160.07L1065.86 159.687Z" fill="black"/>
<path d="M1205.23 134.085C1202.83 133.677 1200.4 135.25 1199.96 137.825L1199.89 138.228L1189.1 136.396C1188.82 139.465 1188.3 142.476 1187.57 145.407L1198.36 147.24L1198.29 147.643C1197.87 150.132 1199.55 152.491 1202.03 152.914C1204.52 153.337 1206.88 151.661 1207.3 149.173L1208.97 139.355C1209.39 136.867 1207.72 134.507 1205.23 134.085Z" fill="black"/>
<path d="M1194.14 102.313L1183.87 106.125C1185.14 108.868 1186.21 111.73 1187.06 114.693L1197.32 110.883L1197.46 111.266C1198.37 113.715 1201.06 114.808 1203.34 113.96C1205.71 113.081 1206.91 110.451 1206.03 108.085L1202.57 98.7492C1201.69 96.3829 1199.06 95.1762 1196.69 96.0554C1194.33 96.9338 1193.12 99.5642 1194 101.93L1194.14 102.313Z" fill="black"/>
<path d="M1171.24 88.374L1178.24 79.9181L1178.56 80.179C1180.5 81.7888 1183.38 81.5188 1184.99 79.5745C1186.6 77.6305 1186.33 74.7496 1184.39 73.1394L1176.72 66.7875C1174.78 65.1773 1171.9 65.448 1170.28 67.392C1168.67 69.3359 1168.95 72.2169 1170.89 73.827L1171.2 74.0878L1164.2 82.5434C1166.69 84.3047 1169.05 86.2542 1171.24 88.374Z" fill="black"/>
<path d="M1136.82 61.0412L1137.23 61.1095L1135.39 71.9033C1138.46 72.1821 1141.47 72.699 1144.41 73.4356L1146.24 62.6393L1146.64 62.7077C1149.23 63.1466 1151.51 61.3546 1151.91 58.9668C1152.33 56.4783 1150.66 54.1185 1148.17 53.6961L1138.35 52.0296C1135.86 51.607 1133.51 53.2823 1133.08 55.7705C1132.66 58.2591 1134.34 60.6188 1136.82 61.0412Z" fill="black"/>
</g>
</svg>
