<svg width="1280" height="697" viewBox="0 0 1280 697" fill="none" xmlns="http://www.w3.org/2000/svg">
<path d="M0 1C427.501 187.029 611.293 916.309 1280 629.776" stroke="#0076FF" stroke-width="2"/>
<path d="M0 130.757C461.167 300.097 675.246 801.01 1280 441.906" stroke="#FFC045" stroke-width="3" stroke-linejoin="round" stroke-dasharray="15 15"/>
<circle cx="136" cy="644.404" r="8" fill="#FFC045"/>
<circle cx="598" cy="113.404" r="6" fill="#0076FF"/>
<circle cx="1008.5" cy="628.904" r="7.5" stroke="#F45B53" stroke-width="4"/>
<path d="M1048 143.765C1073.6 143.765 1094.36 123.009 1094.36 97.4042" stroke="#FFC045" stroke-width="4"/>
<path d="M408.227 510.404C414.18 518.257 399.139 527.676 402.748 534.616C406.137 541.133 421.544 536.858 425.064 545.292C427.781 551.805 417.541 556.835 420.243 562.82C423.342 569.687 438.439 565.402 441.749 574.133C444.374 581.057 434.171 586.326 437.061 593.724C439.288 599.426 457.144 594.501 456.72 604.412" stroke="#41CE7F" stroke-width="4"/>
</svg>
