<svg width="1920" height="802" viewBox="0 0 1920 802" fill="none" xmlns="http://www.w3.org/2000/svg">
<path d="M0 1C675.283 168.525 886.978 1065.04 1920 537" stroke="#0076FF" stroke-width="2"/>
<path d="M1 113C722.153 303.964 993.773 972.397 1920 367" stroke="#FFC045" stroke-width="3" stroke-linejoin="round" stroke-dasharray="15 15"/>
<circle cx="272" cy="794" r="8" fill="#FFC045"/>
<circle cx="818" cy="161" r="6" fill="#0076FF"/>
<circle cx="1488.5" cy="633.5" r="7.5" stroke="#F45B53" stroke-width="4"/>
<path d="M1432 122.361C1457.6 122.361 1478.36 101.604 1478.36 75.9999" stroke="#FFC045" stroke-width="4"/>
<path d="M595.227 594C601.18 601.853 586.139 611.271 589.748 618.212C593.137 624.729 608.544 620.454 612.064 628.888C614.781 635.401 604.541 640.431 607.243 646.416C610.342 653.283 625.439 648.998 628.749 657.728C631.374 664.653 621.171 669.922 624.061 677.32C626.288 683.021 644.144 678.097 643.72 688.008" stroke="#41CE7F" stroke-width="4"/>
</svg>
