<svg width="1024" height="545" viewBox="0 0 1024 545" fill="none" xmlns="http://www.w3.org/2000/svg">
<path d="M0 1C342.001 149.891 489.034 653.579 1024 424.249" stroke="#0076FF" stroke-width="2"/>
<path d="M0 95C368.934 230.361 540.197 570.762 1024 283.715" stroke="#FFC045" stroke-width="3" stroke-linejoin="round" stroke-dasharray="15 15"/>
<circle cx="152" cy="537" r="8" fill="#FFC045"/>
<circle cx="424" cy="127" r="6" fill="#0076FF"/>
<circle cx="824.5" cy="433.5" r="7.5" stroke="#F45B53" stroke-width="4"/>
<path d="M858 137.361C883.604 137.361 904.361 116.604 904.361 90.9999" stroke="#FFC045" stroke-width="4"/>
<path d="M328.227 377C332.765 382.986 321.299 390.166 324.051 395.457C326.634 400.425 338.379 397.166 341.062 403.596C343.134 408.56 335.328 412.395 337.387 416.957C339.75 422.192 351.258 418.926 353.781 425.581C355.783 430.86 348.004 434.876 350.208 440.516C351.906 444.862 365.517 441.108 365.194 448.663" stroke="#41CE7F" stroke-width="4"/>
</svg>
