<svg width="2866" height="726" viewBox="0 0 2866 726" fill="none" xmlns="http://www.w3.org/2000/svg">
<path d="M2865 292C1583 1150 1249 53.0005 615 53.0005C427 53.0005 211.5 141.5 1 292" stroke="#0076FF" stroke-width="2"/>
<path d="M2862.5 137.999C1515 1214 633 -377.999 5 138" stroke="#FFC045" stroke-width="3" stroke-linejoin="round" stroke-dasharray="15 15"/>
<circle cx="973" cy="718" r="8" fill="#FFC045"/>
<circle cx="1519" cy="85.0005" r="6" fill="#0076FF"/>
<circle cx="2189.5" cy="557.5" r="7.5" stroke="#F45B53" stroke-width="4"/>
<path d="M2133 46.3608C2158.6 46.3608 2179.36 25.6045 2179.36 0.000166923" stroke="#FFC045" stroke-width="4"/>
<path d="M1296.23 518C1302.18 525.853 1287.14 535.272 1290.75 542.212C1294.14 548.729 1309.54 544.454 1313.06 552.888C1315.78 559.401 1305.54 564.431 1308.24 570.416C1311.34 577.283 1326.44 572.998 1329.75 581.729C1332.37 588.653 1322.17 593.922 1325.06 601.32C1327.29 607.022 1345.14 602.097 1344.72 612.008" stroke="#41CE7F" stroke-width="4"/>
</svg>
