<svg width="1282" height="650" viewBox="0 0 1282 650" fill="none" xmlns="http://www.w3.org/2000/svg">
<path d="M1 1C428.501 187.029 612.293 836.309 1281 549.776" stroke="#0076FF" stroke-width="2"/>
<path d="M1 120.757C462.167 290.097 676.246 741.01 1281 381.906" stroke="#FFC045" stroke-width="3" stroke-linejoin="round" stroke-dasharray="15 15"/>
<circle cx="281" cy="642" r="8" fill="#FFC045"/>
<circle cx="553" cy="232" r="6" fill="#0076FF"/>
<circle cx="953.5" cy="538.5" r="7.5" stroke="#F45B53" stroke-width="4"/>
<path d="M987 242.36C1012.6 242.36 1033.36 221.604 1033.36 196" stroke="#FFC045" stroke-width="4"/>
<path d="M457.227 482C461.765 487.986 450.299 495.166 453.051 500.457C455.634 505.425 467.379 502.166 470.062 508.596C472.134 513.56 464.328 517.394 466.387 521.957C468.75 527.192 480.258 523.925 482.781 530.581C484.783 535.86 477.004 539.876 479.208 545.516C480.906 549.862 494.517 546.108 494.194 553.663" stroke="#41CE7F" stroke-width="4"/>
</svg>
