<svg width="1922" height="745" viewBox="0 0 1922 745" fill="none" xmlns="http://www.w3.org/2000/svg">
<path d="M1 1C676.283 168.525 887.978 1065.04 1921 537" stroke="#0076FF" stroke-width="2"/>
<path d="M1 113C722.529 303.964 994.291 972.397 1921 367" stroke="#FFC045" stroke-width="3" stroke-linejoin="round" stroke-dasharray="15 15"/>
<circle cx="417" cy="737" r="8" fill="#FFC045"/>
<circle cx="879" cy="206" r="6" fill="#0076FF"/>
<circle cx="1289.5" cy="721.5" r="7.5" stroke="#F45B53" stroke-width="4"/>
<path d="M1329 236.361C1354.6 236.361 1375.36 215.604 1375.36 190" stroke="#FFC045" stroke-width="4"/>
<path d="M689.227 603C695.18 610.852 680.139 620.271 683.748 627.212C687.137 633.729 702.544 629.454 706.064 637.888C708.781 644.4 698.541 649.43 701.243 655.415C704.342 662.283 719.439 657.997 722.749 666.728C725.374 673.653 715.171 678.922 718.061 686.32C720.288 692.021 738.144 687.097 737.72 697.007" stroke="#41CE7F" stroke-width="4"/>
</svg>
