<svg width="1362" height="717" viewBox="0 0 1362 717" fill="none" xmlns="http://www.w3.org/2000/svg">
<path d="M1361 636.908C642.298 968.637 472.89 149.191 1 1.1416" stroke="#0076FF" stroke-width="2"/>
<path d="M1361 444.432C712.009 850.199 506.264 283.812 1 133.049" stroke="#FFC045" stroke-width="3" stroke-linejoin="round" stroke-dasharray="15 15"/>
<circle cx="177" cy="694.404" r="8" fill="#FFC045"/>
<circle cx="639" cy="163.404" r="6" fill="#0076FF"/>
<circle cx="1049.5" cy="678.904" r="7.5" stroke="#F45B53" stroke-width="4"/>
<path d="M1089 193.765C1114.6 193.765 1135.36 173.009 1135.36 147.404" stroke="#FFC045" stroke-width="4"/>
<path d="M449.227 560.404C455.18 568.257 440.139 577.676 443.748 584.617C447.137 591.133 462.544 586.858 466.064 595.293C468.781 601.805 458.541 606.835 461.243 612.82C464.342 619.688 479.439 615.402 482.749 624.133C485.374 631.058 475.171 636.326 478.061 643.724C480.288 649.426 498.144 644.501 497.72 654.412" stroke="#41CE7F" stroke-width="4"/>
</svg>
