<svg width="1360" height="717" viewBox="0 0 1360 717" fill="none" xmlns="http://www.w3.org/2000/svg">
<path d="M1360 636.908C641.298 968.637 471.89 149.191 0 1.14136" stroke="#0076FF" stroke-width="2"/>
<path d="M1360 444.432C711.009 850.198 505.264 283.812 0 133.048" stroke="#FFC045" stroke-width="3" stroke-linejoin="round" stroke-dasharray="15 15"/>
<circle cx="136" cy="664" r="8" fill="#FFC045"/>
<circle cx="598" cy="133" r="6" fill="#0076FF"/>
<circle cx="1008.5" cy="648.5" r="7.5" stroke="#F45B53" stroke-width="4"/>
<path d="M1048 163.361C1073.6 163.361 1094.36 142.604 1094.36 117" stroke="#FFC045" stroke-width="4"/>
<path d="M408.227 530C414.18 537.853 399.139 547.271 402.748 554.212C406.137 560.729 421.544 556.454 425.064 564.888C427.781 571.401 417.541 576.431 420.243 582.416C423.342 589.283 438.439 584.998 441.749 593.728C444.374 600.653 434.171 605.922 437.061 613.32C439.288 619.021 457.144 614.097 456.72 624.008" stroke="#41CE7F" stroke-width="4"/>
</svg>
