<svg width="24" height="19" viewBox="0 0 24 19" fill="none" xmlns="http://www.w3.org/2000/svg">
  <mask id="path-1-inside-1" fill="white">
    <path d="M2 0L12 11L22 0"/>
  </mask>

  <path d="M3.47988 -1.34535C2.73687 -2.16266 1.47197 -2.22289 0.654655 -1.47988C-0.162661 -0.736866 -0.222894 0.52803 0.52012 1.34535L3.47988 -1.34535ZM12 11L10.5201 12.3453L12 13.9732L13.4799 12.3453L12 11ZM23.4799 1.34535C24.2229 0.52803 24.1627 -0.736866 23.3453 -1.47988C22.528 -2.22289 21.2631 -2.16266 20.5201 -1.34535L23.4799 1.34535ZM0.52012 1.34535L10.5201 12.3453L13.4799 9.65465L3.47988 -1.34535L0.52012 1.34535ZM13.4799 12.3453L23.4799 1.34535L20.5201 -1.34535L10.5201 9.65465L13.4799 12.3453Z" fill="white" mask="url(#path-1-inside-1)"/>

  <mask id="path-3-inside-2" fill="white">
    <path d="M22 19L12 8L2 19"/>
  </mask>

  <path d="M20.5201 20.3453C21.2631 21.1627 22.528 21.2229 23.3453 20.4799C24.1627 19.7369 24.2229 18.472 23.4799 17.6547L20.5201 20.3453ZM12 8L13.4799 6.65465L12 5.02678L10.5201 6.65465L12 8ZM0.520121 17.6547C-0.222893 18.472 -0.162661 19.7369 0.654655 20.4799C1.47197 21.2229 2.73687 21.1627 3.47988 20.3453L0.520121 17.6547ZM23.4799 17.6547L13.4799 6.65465L10.5201 9.34534L20.5201 20.3453L23.4799 17.6547ZM10.5201 6.65465L0.520121 17.6547L3.47988 20.3453L13.4799 9.34534L10.5201 6.65465Z" fill="white" mask="url(#path-3-inside-2)"/>
</svg>
