<svg width="20" height="20" viewBox="0 0 20 20" fill="none" xmlns="http://www.w3.org/2000/svg">
<path fill-rule="evenodd" clip-rule="evenodd" d="M19.2796 2.13582C19.6702 1.74529 19.6702 1.11213 19.2796 0.721604C18.8891 0.33108 18.256 0.33108 17.8654 0.721604L10.0011 8.58593L2.13679 0.721604C1.74627 0.33108 1.1131 0.33108 0.722581 0.721604C0.332056 1.11213 0.332056 1.74529 0.722581 2.13582L8.5869 10.0001L0.722581 17.8645C0.332056 18.255 0.332056 18.8881 0.722581 19.2787C1.1131 19.6692 1.74627 19.6692 2.13679 19.2787L10.0011 11.4144L17.8654 19.2787C18.256 19.6692 18.8891 19.6692 19.2796 19.2787C19.6702 18.8881 19.6702 18.255 19.2796 17.8645L11.4153 10.0001L19.2796 2.13582Z" fill="white"/>
</svg>
