<svg width="24" height="24" viewBox="0 0 24 24" fill="none" xmlns="http://www.w3.org/2000/svg">
<path fill-rule="evenodd" clip-rule="evenodd" d="M0 24.001V0.000976562H24V24.001H0ZM5.1761 18.2009H8.13645V9.29457H5.1761V18.2009ZM6.65629 8.07894H6.63673C5.64368 8.07894 5 7.39478 5 6.53965C5 5.66575 5.66249 5.00098 6.67567 5.00098C7.68907 5.00098 8.31183 5.66575 8.33121 6.53965C8.33121 7.39478 7.68907 8.07894 6.65629 8.07894ZM15.8525 18.2009H18.8136V13.0936C18.8136 10.3581 17.353 9.0855 15.4043 9.0855C13.8313 9.0855 13.129 9.95116 12.7356 10.5566V9.2946H9.77385C9.81353 10.1301 9.77385 18.201 9.77385 18.201H12.7356V13.2269C12.7356 12.96 12.7559 12.6954 12.8338 12.5051C13.048 11.9723 13.5344 11.4223 14.3529 11.4223C15.4246 11.4223 15.8525 12.2392 15.8525 13.436V18.2009Z" fill="white"/>
</svg>
