<svg width="18" height="21" viewBox="0 0 18 21" fill="none" xmlns="http://www.w3.org/2000/svg">
<path fill-rule="evenodd" clip-rule="evenodd" d="M7.82572 19.4809C7.48553 19.1425 7.33807 18.5035 7.11527 16.9519C6.74973 14.4087 6.67011 12.8345 6.88156 12.3358C7.16235 11.6749 7.92425 11.2998 8.99006 11.2956C9.72998 11.2926 10.3286 11.477 10.7181 11.8164C10.7358 11.8283 10.753 11.8403 10.7698 11.8524C10.9582 11.9897 11.0951 12.1322 11.1808 12.3055C11.2664 12.4789 11.3092 12.6849 11.3348 13.0222C11.352 13.3604 11.352 13.8291 11.2749 14.7046C11.1979 15.5775 11.0438 16.8572 10.9239 17.6769C10.8041 18.5009 10.7185 18.8614 10.6072 19.1275C10.4959 19.4022 10.3504 19.5824 10.1877 19.7112C10.0251 19.8399 9.83673 19.9172 9.65695 19.9601C9.47718 20.003 9.31452 20.003 9.16043 20.003C9.00634 20.003 8.86081 20.003 8.66391 19.9601C8.46702 19.9172 8.2102 19.8399 8.02186 19.6854C7.94748 19.6271 7.88287 19.5589 7.82572 19.4809ZM5.08724 17.1785C2.44199 15.8739 0.746968 13.6662 0.130599 10.7291C-0.0234938 9.97116 -0.0491757 8.16267 0.0963561 7.46742C0.481587 5.60057 1.21781 4.14056 2.44199 2.84964C4.20549 0.985357 6.47407 0 8.99947 0C11.4992 0 13.7592 0.967332 15.4799 2.77582C16.7897 4.14056 17.5259 5.58512 17.9026 7.48802C18.031 8.12147 18.031 9.84842 17.9112 10.5608C17.5174 12.8131 16.2675 14.8645 14.4441 16.2429C13.7935 16.7356 12.2012 17.5957 11.9444 17.5957C11.8502 17.5957 11.8416 17.4978 11.8844 17.1021C11.9615 16.467 12.0385 16.3348 12.3981 16.1837C12.9716 15.9434 13.9476 15.2464 14.5468 14.6439C15.5826 13.6139 16.3445 12.2663 16.6955 10.8501C16.9181 9.96601 16.8924 8.00044 16.6442 7.09062C15.8652 4.19807 13.511 1.94926 10.626 1.34843C9.78706 1.17676 8.26326 1.17676 7.41575 1.34843C4.49655 1.94926 2.08244 4.30965 1.34622 7.27945C1.14932 8.08628 1.14932 10.0518 1.34622 10.8587C1.83418 12.8242 3.10116 14.6267 4.76193 15.6996C5.08724 15.9142 5.48103 16.1374 5.64368 16.206C6.00323 16.3605 6.08028 16.4893 6.14877 17.1244C6.19157 17.5107 6.18301 17.6223 6.08884 17.6223C6.02891 17.6223 5.59232 17.4334 5.13004 17.2103L5.08724 17.1785ZM5.12148 13.6868C4.23117 12.9744 3.44359 11.711 3.11828 10.4716C2.92138 9.7231 2.92138 8.3 3.12684 7.55326C3.66616 5.53791 5.14716 3.97576 7.20173 3.24189C7.90371 2.99298 9.46175 2.93719 10.3264 3.12859C13.3055 3.7938 15.42 6.78506 15.0091 9.75229C14.8464 10.9479 14.4355 11.9299 13.7079 12.8423C13.3483 13.3032 12.4751 14.0765 12.321 14.0765C12.2953 14.0765 12.2697 13.7847 12.2697 13.4293V12.7805L12.7148 12.2483C14.3927 10.2329 14.2729 7.41764 12.4409 5.57053C11.7303 4.85125 10.9085 4.42896 9.84698 4.23412C9.16213 4.10708 9.0166 4.10708 8.2975 4.22553C7.20601 4.40406 6.36021 4.82808 5.60944 5.5731C3.76889 7.40133 3.64904 10.2312 5.32694 12.2483L5.76867 12.7805V13.4328C5.76867 13.7933 5.74042 14.0851 5.70532 14.0851C5.67108 14.0851 5.42282 13.9134 5.15744 13.6989L5.12148 13.6868ZM6.91067 8.28283C6.91742 8.9725 7.17484 9.53543 7.65766 9.91677C8.04118 10.2853 8.56161 10.5118 9.13479 10.5118C10.3139 10.5118 11.2698 9.55338 11.2698 8.37113C11.2698 7.21981 10.3633 6.28078 9.22689 6.23242C8.82616 6.1972 8.3943 6.25709 8.1006 6.41169C7.34726 6.81252 6.91067 7.49747 6.91067 8.28283Z" fill="white"/>
</svg>
