<svg width="28" height="15" viewBox="0 0 28 15" fill="none" xmlns="http://www.w3.org/2000/svg">
<path d="M0.533267 5.06169C0.393526 5.06169 0.277978 5.17571 0.271291 5.32058L0 11.0274L0.271291 14.7155C0.278363 14.8596 0.393526 14.9733 0.533267 14.9733C0.672274 14.9733 0.787436 14.8592 0.795629 14.7148V14.7159L1.10232 11.0274L0.795629 5.32058C0.787401 5.17571 0.672239 5.06169 0.533267 5.06169ZM3.35657 14.9729C3.52986 14.9729 3.67072 14.8336 3.67779 14.6553L3.9439 11.0293L3.67818 3.43138C3.67111 3.25308 3.53021 3.11379 3.35696 3.11379C3.18217 3.11379 3.04095 3.25346 3.03532 3.43177L2.79943 11.0289L3.03532 14.6564C3.04092 14.8332 3.18213 14.9729 3.35657 14.9729ZM9.13655 14.99C9.37507 14.99 9.57185 14.7943 9.5763 14.5536L9.76191 11.0315L9.57626 2.25652C9.57216 2.0162 9.37504 1.82009 9.13652 1.82009C8.89765 1.82009 8.70052 2.01585 8.69677 2.2569L8.53095 11.0285C8.53095 11.0341 8.69677 14.5558 8.69677 14.5558C8.70055 14.7942 8.89804 14.99 9.13655 14.99ZM6.22456 14.9763C6.43216 14.9763 6.59945 14.8102 6.60506 14.5985V14.6011L6.83086 11.03L6.60467 3.37718C6.59907 3.16545 6.43177 2.99981 6.22417 2.99981C6.0151 2.99981 5.8478 3.16548 5.84332 3.37718L5.64248 11.0304L5.84371 14.6007C5.84819 14.8102 6.01549 14.9763 6.22456 14.9763ZM7.67499 3.24976C7.44953 3.24976 7.26875 3.42845 7.26431 3.65725L7.08097 11.0308L7.26431 14.5788C7.26879 14.8046 7.44914 14.9833 7.67499 14.9833C7.90006 14.9833 8.07972 14.805 8.0849 14.5762V14.5792L8.29061 11.0312L8.0849 3.65649C8.07968 3.42845 7.90002 3.24976 7.67499 3.24976ZM1.93968 14.9804C2.09546 14.9804 2.22404 14.8537 2.23149 14.6921L2.5177 11.0285L2.23149 4.01641C2.22365 3.85444 2.09546 3.72817 1.93968 3.72817C1.78244 3.72817 1.65425 3.85482 1.64753 4.01641L1.39413 11.0285L1.64791 14.6936C1.65421 14.8537 1.7824 14.9804 1.93968 14.9804ZM5.13565 14.6345V14.6326L5.38159 11.0297L5.13565 3.17585C5.12966 2.98086 4.97539 2.82783 4.78494 2.82783C4.59338 2.82783 4.43911 2.98048 4.43393 3.17585L4.21554 11.0293L4.43428 14.6341C4.43949 14.8273 4.5938 14.9799 4.78498 14.9799C4.97577 14.9799 5.12931 14.8273 5.13568 14.633L5.13565 14.6345ZM23.7382 6.50249C23.1542 6.50249 22.5971 6.62025 22.0895 6.83233C21.7504 3.00351 18.5291 0 14.5998 0C13.6383 0 12.701 0.188703 11.8734 0.507757C11.5518 0.631826 11.4661 0.759594 11.4631 1.00735V14.4907C11.4664 14.7507 11.6688 14.9673 11.9233 14.9929C11.9342 14.9941 23.6618 15 23.7379 15C26.0916 15 28 13.0978 28 10.7514C28 8.40502 26.0919 6.50249 23.7382 6.50249ZM10.5918 0.995482C10.3358 0.995482 10.1256 1.20499 10.1219 1.46237L9.92956 11.0326L10.1222 14.506C10.1256 14.7597 10.3358 14.9688 10.5918 14.9688C10.847 14.9688 11.0572 14.7597 11.0609 14.5023V14.5064L11.27 11.0326L11.0609 1.46164C11.0572 1.20499 10.847 0.995482 10.5918 0.995482Z" fill="white"/>
</svg>
