<svg width="18" height="18" viewBox="0 0 18 18" fill="none" xmlns="http://www.w3.org/2000/svg">
<path d="M2.25 8.38672V9.61402C2.25 10.2353 1.74632 10.739 1.125 10.739C0.503684 10.739 0 10.2353 0 9.61402V8.38672C0 7.7654 0.503684 7.26172 1.125 7.26172C1.74632 7.26172 2.25 7.7654 2.25 8.38672Z" fill="white"/>
<path d="M15.7505 8.41871C15.7502 8.40805 15.75 8.39738 15.75 8.38672C15.75 7.7654 16.2537 7.26172 16.875 7.26172C17.4963 7.26172 18 7.7654 18 8.38672C18 8.39741 17.9999 8.40809 17.9995 8.41871H18V9.64598H17.9995C17.9827 10.2525 17.4856 10.739 16.875 10.739C16.2644 10.739 15.7674 10.2525 15.7505 9.64598H15.75V8.41868H15.7505V8.41871Z" fill="white"/>
<path d="M6.13672 12.0678V13.295C6.13672 13.9163 5.63307 14.42 5.01172 14.42C4.39037 14.42 3.88672 13.9163 3.88672 13.295V12.0677C3.88672 11.4464 4.3904 10.9427 5.01172 10.9427C5.63304 10.9427 6.13672 11.4464 6.13672 12.0677V12.0678ZM6.13672 4.7041V8.71831H6.13644C6.12287 9.32782 5.62449 9.81776 5.01172 9.81776C4.39895 9.81776 3.90061 9.32782 3.88704 8.71831H3.88672V4.7041C3.88672 4.08278 4.3904 3.5791 5.01172 3.5791C5.63304 3.5791 6.13672 4.08278 6.13672 4.7041Z" fill="white"/>
<path d="M11.8633 5.93137C11.8633 6.55269 12.3669 7.05637 12.9883 7.05637C13.6096 7.05637 14.1133 6.55269 14.1133 5.93137V4.7041C14.1133 4.08278 13.6096 3.5791 12.9883 3.5791C12.367 3.5791 11.8633 4.08278 11.8633 4.7041V5.93137Z" fill="white"/>
<path d="M7.875 2.3523C7.875 2.97359 8.37868 3.4773 9 3.4773C9.62132 3.4773 10.125 2.97359 10.125 2.3523V1.125C10.125 0.503684 9.62132 0 9 0C8.37868 0 7.875 0.503684 7.875 1.125V2.3523ZM7.875 15.6477C7.875 15.0264 8.37868 14.5227 9 14.5227C9.62132 14.5227 10.125 15.0264 10.125 15.6477V16.875C10.125 17.4963 9.62132 18 9 18C8.37868 18 7.875 17.4963 7.875 16.875V15.6477Z" fill="white"/>
<path d="M11.8633 9.30664C11.8633 8.68532 12.3669 8.18164 12.9883 8.18164C13.6096 8.18164 14.1133 8.68532 14.1133 9.30664V13.2953C14.1133 13.9166 13.6096 14.4203 12.9883 14.4203C12.367 14.4203 11.8633 13.9166 11.8633 13.2953V9.30664Z" fill="white"/>
<path d="M10.125 5.72754V12.2729C10.125 12.8943 9.62132 13.3979 9 13.3979C8.37868 13.3979 7.875 12.8943 7.875 12.2729V5.72754C7.875 5.10619 8.37868 4.60254 9 4.60254C9.62132 4.60254 10.125 5.10619 10.125 5.72754Z" fill="white"/>
</svg>
