<svg width="24" height="24" viewBox="0 0 24 24" fill="none" xmlns="http://www.w3.org/2000/svg">
<path fill-rule="evenodd" clip-rule="evenodd" d="M0 0.000488281V24.0005H24V0.000488281H0ZM3.94692 14.6035C3.94138 14.6416 3.91411 14.6681 3.88046 14.6681C3.8458 14.6681 3.81843 14.6414 3.81384 14.6031L3.69231 13.6962L3.81378 12.7734C3.81837 12.7352 3.84575 12.7084 3.8804 12.7084C3.91411 12.7084 3.94143 12.735 3.94687 12.7731L4.09076 13.6962L3.94692 14.6035ZM4.49475 15.2227C4.52978 15.2227 4.5581 15.1951 4.56369 15.1557L4.74963 13.6962L4.56375 12.204C4.5581 12.1644 4.52978 12.1369 4.49475 12.1369C4.45946 12.1369 4.4304 12.1652 4.42565 12.2041L4.26229 13.6962L4.42565 15.1553C4.4304 15.1944 4.45946 15.2227 4.49475 15.2227ZM5.23063 15.4024C5.22551 15.4495 5.19054 15.4838 5.1475 15.4838C5.10361 15.4838 5.06859 15.4495 5.06416 15.4021L4.90913 13.6964L5.06416 11.926C5.06854 11.8787 5.10356 11.8444 5.1475 11.8444C5.19059 11.8444 5.22551 11.8786 5.23073 11.9259L5.40686 13.6964L5.23063 15.4024ZM5.80563 15.5521C5.85642 15.5521 5.8983 15.5109 5.90295 15.4565L6.06947 13.6967L5.90295 11.8773C5.89836 11.8229 5.85647 11.7818 5.80563 11.7818C5.75409 11.7818 5.71216 11.823 5.70804 11.8776L5.56146 13.6967L5.70804 15.4565C5.71216 15.5109 5.75415 15.5521 5.80563 15.5521ZM6.58059 15.4711C6.57621 15.5337 6.52826 15.5811 6.46898 15.5811C6.40911 15.5811 6.36111 15.5337 6.35742 15.4712L6.21906 13.6969L6.35742 12.0095C6.36116 11.9467 6.40911 11.8993 6.46898 11.8993C6.52832 11.8993 6.57632 11.9466 6.58059 12.0088L6.73735 13.6969L6.58059 15.4711ZM7.13781 15.5957C7.20438 15.5957 7.2596 15.5409 7.26356 15.4713C7.26356 15.4718 7.41051 13.6975 7.41051 13.6975L7.26356 10.952C7.2596 10.8822 7.20438 10.8276 7.13781 10.8276C7.07072 10.8276 7.01538 10.8824 7.01201 10.9521L6.88209 13.6975L7.01201 15.4717C7.01538 15.5409 7.07072 15.5957 7.13781 15.5957ZM7.94152 15.4696C7.93793 15.5474 7.87643 15.6083 7.80164 15.6083C7.72626 15.6083 7.66481 15.5474 7.66164 15.4703L7.54006 13.7071L7.66149 10.3339C7.66476 10.256 7.72626 10.1952 7.80164 10.1952C7.87648 10.1952 7.93793 10.2561 7.94152 10.3339L8.07887 13.7071C8.07887 13.7071 7.94142 15.4706 7.94152 15.4696ZM8.49136 15.5954C8.57444 15.5954 8.64211 15.5284 8.64554 15.4425C8.64549 15.4436 8.77313 13.6983 8.77313 13.6982L8.64554 10.0434C8.64211 9.95753 8.57444 9.89033 8.49136 9.89033C8.40781 9.89033 8.34013 9.95764 8.33713 10.0435L8.22404 13.6982L8.33718 15.4432C8.34008 15.5282 8.40781 15.5954 8.49136 15.5954ZM9.34449 15.4319C9.34143 15.5255 9.26764 15.5989 9.17623 15.5989C9.0845 15.5989 9.01055 15.5255 9.00791 15.4326L8.9031 13.6985L9.00781 9.92066C9.0105 9.82677 9.08445 9.75324 9.17618 9.75324C9.26764 9.75324 9.34149 9.82672 9.34449 9.92056L9.46249 13.6986L9.34449 15.4319ZM9.86643 15.5972C9.96607 15.5972 10.0461 15.5173 10.0489 15.4155C10.0489 15.4167 10.1572 13.6988 10.1572 13.6988L10.0489 10.0171C10.0461 9.91539 9.96607 9.83574 9.86643 9.83574C9.76637 9.83574 9.68614 9.91549 9.68382 10.0173L9.5875 13.6988L9.68392 15.4163C9.68619 15.5172 9.76637 15.5972 9.86643 15.5972ZM10.7586 15.4045C10.7563 15.5144 10.6699 15.6003 10.562 15.6003C10.4538 15.6003 10.3674 15.5144 10.3654 15.4057L10.2774 13.6989L10.3653 10.1519C10.3674 10.042 10.4539 9.95595 10.5621 9.95595C10.6699 9.95595 10.7563 10.042 10.7587 10.1515L10.8572 13.6992C10.8572 13.6991 10.8372 14.0462 10.8151 14.4272C10.7884 14.8911 10.7586 15.4053 10.7586 15.4045ZM11.4737 15.3939L11.4825 15.2262L11.5625 13.6994L11.4737 9.47817C11.4724 9.4058 11.435 9.34187 11.3793 9.3041C11.3457 9.28137 11.3056 9.26813 11.2628 9.26813C11.2211 9.26813 11.1821 9.28079 11.1492 9.30231C11.0918 9.33986 11.0531 9.40469 11.0519 9.47832L11.0512 9.51815L10.9723 13.6981C10.9723 13.7006 11.0519 15.3949 11.0519 15.3949L11.0521 15.3985L11.0524 15.4021C11.0548 15.4495 11.0728 15.4931 11.1015 15.5275C11.1403 15.574 11.1985 15.6038 11.2628 15.6038C11.32 15.6038 11.3722 15.5802 11.4104 15.5422C11.4485 15.5042 11.4726 15.4517 11.4737 15.3939ZM12.1856 15.3689C12.1839 15.4926 12.083 15.5933 11.9608 15.5933C11.8381 15.5933 11.7372 15.4926 11.7356 15.3707L11.6901 14.5467L11.6433 13.6999L11.7351 9.11922L11.7355 9.09607C11.7365 9.02649 11.7688 8.96415 11.8187 8.92295C11.8576 8.89088 11.9071 8.87157 11.9607 8.87157C12.0024 8.87157 12.0415 8.8835 12.0752 8.90391C12.1401 8.9432 12.1844 9.01441 12.1856 9.0957L12.2857 13.6999C12.2858 13.6998 12.1856 15.3708 12.1856 15.3689ZM12.5992 15.598C12.6044 15.5985 18.2642 15.598 18.2642 15.598C19.3928 15.598 20.3077 14.6932 20.3077 13.5643C20.3077 12.4355 19.3928 11.5205 18.2642 11.5205C17.9842 11.5205 17.717 11.5773 17.4737 11.6792C17.3111 9.83748 15.7666 8.39263 13.8825 8.39263C13.4215 8.39263 12.9721 8.4833 12.5752 8.63685C12.4209 8.69666 12.3799 8.7579 12.3785 8.87716V15.3635C12.3801 15.4886 12.4771 15.5858 12.5992 15.598Z" fill="white"/>
</svg>
