<svg width="24" height="24" viewBox="0 0 24 24" fill="none" xmlns="http://www.w3.org/2000/svg">
<path d="M0 0.000488281V24.0005H24V0.000488281H0Z" fill="white"/>
<path fill-rule="evenodd" clip-rule="evenodd" d="M16.2176 17.7924L18.5936 6.36396C18.6547 6.06925 18.3652 5.82338 18.0845 5.93191L4.84512 11.0393C4.51836 11.1652 4.52116 11.6278 4.84886 11.7506L8.07481 12.9545L9.32344 16.9702C9.40336 17.2272 9.71785 17.3223 9.92652 17.1517L11.7248 15.6858C11.9133 15.5321 12.1817 15.5245 12.3786 15.6675L15.622 18.0222C15.8453 18.1845 16.1617 18.0622 16.2176 17.7924ZM9.20738 12.5307L15.5121 8.64765C15.6253 8.57809 15.7419 8.73129 15.6445 8.82152L10.4414 13.6581C10.2585 13.8283 10.1405 14.0563 10.1071 14.3035L9.92992 15.617C9.90632 15.7924 9.66009 15.8097 9.6116 15.64L8.92995 13.2448C8.85199 12.9716 8.96573 12.6798 9.20738 12.5307Z" fill="#18191B"/>
</svg>
