<svg width="24" height="24" viewBox="0 0 24 24" fill="none" xmlns="http://www.w3.org/2000/svg">
<path fill-rule="evenodd" clip-rule="evenodd" d="M0 24.0005V0.000488281H24V24.0005H0ZM18.0751 9.41849C18.0751 9.28582 18.0723 9.15368 18.0668 9.02224C18.6281 8.59045 19.115 8.05092 19.5 7.43669C18.9849 7.68032 18.4314 7.84502 17.8503 7.91911C18.4434 7.53992 18.8988 6.93977 19.1132 6.22444C18.5582 6.57542 17.9435 6.83047 17.2893 6.96769C16.7654 6.37242 16.0189 6.00049 15.1927 6.00049C13.6066 6.00049 12.3204 7.37195 12.3204 9.06348C12.3204 9.3035 12.3459 9.53732 12.395 9.7616C10.0078 9.63372 7.89139 8.41432 6.4748 6.56102C6.22751 7.01352 6.08587 7.53964 6.08587 8.10107C6.08587 9.16368 6.5928 10.1013 7.36356 10.6506C6.89267 10.6347 6.44983 10.4968 6.06262 10.2674C6.06236 10.2802 6.06236 10.2931 6.06236 10.306C6.06236 11.7901 7.05249 13.028 8.36641 13.3095C8.12539 13.3794 7.87161 13.417 7.60965 13.417C7.42458 13.417 7.24463 13.3978 7.06916 13.3619C7.43472 14.5789 8.49552 15.4645 9.75241 15.4891C8.76934 16.3109 7.5309 16.8005 6.1852 16.8005C5.95329 16.8005 5.72471 16.786 5.5 16.7575C6.77107 17.6268 8.28085 18.1338 9.9029 18.1338C15.1861 18.1338 18.0751 13.4664 18.0751 9.41849Z" fill="white"/>
</svg>
