<svg width="24" height="24" viewBox="0 0 24 24" fill="none" xmlns="http://www.w3.org/2000/svg">
<path fill-rule="evenodd" clip-rule="evenodd" d="M0 24.0005V0.000488281H24V24.0005H0ZM17.8067 13.4785C17.6736 13.3525 17.5405 13.2266 17.4094 13.0987C16.961 12.661 16.9327 12.407 17.2928 11.9018C17.5018 11.6092 17.7189 11.3229 17.9359 11.0366C18.1281 10.783 18.3202 10.5295 18.5068 10.2717C18.5209 10.2522 18.535 10.2326 18.5492 10.2131C18.906 9.71988 19.2649 9.22376 19.4516 8.63401C19.5758 8.24268 19.4658 8.07015 19.066 8.00101C18.9969 7.98963 18.9248 7.98963 18.8547 7.98963L16.4778 7.98673C16.1849 7.98211 16.0238 8.10996 15.9205 8.36958C15.7802 8.72044 15.6361 9.07101 15.4692 9.40848C15.0922 10.1761 14.6703 10.9181 14.079 11.5455C14.0708 11.5542 14.0625 11.563 14.0541 11.572C13.9297 11.7049 13.7894 11.8547 13.5853 11.7871C13.3133 11.6877 13.2328 11.2386 13.2374 11.087L13.2354 8.3432C13.1825 7.95182 13.0952 7.77644 12.7058 7.70049H10.2369C9.90815 7.70049 9.7422 7.82863 9.56582 8.03411C9.46535 8.15373 9.43406 8.23039 9.64273 8.2702C10.0521 8.34782 10.2842 8.61325 10.3449 9.02377C10.4426 9.68053 10.4358 10.34 10.3791 10.9987C10.3631 11.1911 10.3298 11.3825 10.2539 11.5625C10.1345 11.8459 9.94115 11.9029 9.68811 11.7285C9.45982 11.5712 9.29873 11.3495 9.1403 11.1268C8.54801 10.2898 8.07616 9.38768 7.6904 8.43977C7.57949 8.16587 7.38711 8.00015 7.09716 7.9953C6.38435 7.98387 5.67083 7.98215 4.95702 7.99625C4.52883 8.00377 4.40069 8.21244 4.57612 8.60182C5.35226 10.3295 6.21669 12.0089 7.34535 13.5386C7.92449 14.3232 8.58973 15.0171 9.44934 15.5079C10.4227 16.0643 11.4708 16.2322 12.576 16.181C13.0925 16.1562 13.2478 16.0216 13.2715 15.507C13.2875 15.1544 13.3283 14.8029 13.5018 14.4863C13.6723 14.1755 13.9312 14.1168 14.2296 14.3101C14.3784 14.4077 14.5036 14.5299 14.622 14.6607C14.7181 14.7656 14.8132 14.8718 14.9083 14.978C15.1011 15.1932 15.2941 15.4085 15.4959 15.6142C15.8748 15.9999 16.3241 16.2273 16.888 16.1809L19.0725 16.1819C19.424 16.1581 19.607 15.727 19.4051 15.3335C19.2629 15.0588 19.0764 14.8143 18.8791 14.5772C18.5504 14.1822 18.1785 13.8303 17.8067 13.4785Z" fill="white"/>
</svg>
