<svg width="24" height="24" viewBox="0 0 24 24" fill="none" xmlns="http://www.w3.org/2000/svg">
<path d="M0 0.000976562V24.001H24V0.000976562H0Z" fill="white"/>
<path fill-rule="evenodd" clip-rule="evenodd" d="M17.2416 16.5653C17.9747 16.4835 18.5836 15.9338 18.7552 15.1893C18.9993 14.1295 19 12.9715 19 11.8799V11.8512C19 10.768 19 9.6216 18.758 8.57101C18.5865 7.82586 17.9776 7.27688 17.2443 7.19506C15.5085 7.00106 13.7514 7.00034 12.0022 7.00106C10.2528 7.0003 8.49511 7.00106 6.75911 7.19506C6.0268 7.27688 5.41764 7.82586 5.24693 8.57101C5.00289 9.63088 5 10.7883 5 11.8799C5 12.9715 5 14.1295 5.24427 15.1893C5.41498 15.9338 6.02391 16.4835 6.75716 16.5653C8.49298 16.7588 10.2499 16.7601 11.9993 16.7588C13.7494 16.7601 15.5063 16.7588 17.2416 16.5653ZM11.8713 13.4384C11.3536 13.761 10.8356 14.0838 10.3159 14.4077V9.35217C11.0386 9.8054 11.759 10.2569 12.481 10.7094C13.1054 11.1007 13.731 11.4928 14.3603 11.8873C13.5275 12.4061 12.6998 12.922 11.8713 13.4384Z" fill="#18191B"/>
</svg>
