<svg width="568" height="350" viewBox="0 0 568 350" fill="none" xmlns="http://www.w3.org/2000/svg">
<path d="M244.18 167.617L241.906 167.969L232.25 193.891C231.609 195.594 230.688 197.078 229.484 198.344C228.281 199.609 226.664 200.242 224.633 200.242C224.273 200.242 223.805 200.195 223.227 200.102C222.648 200.023 222.203 199.945 221.891 199.867L222.359 196.234C222.266 196.219 222.539 196.234 223.18 196.281C223.836 196.328 224.25 196.352 224.422 196.352C225.406 196.352 226.203 195.922 226.812 195.062C227.422 194.219 227.953 193.242 228.406 192.133L229.508 189.508L221.141 167.992L218.82 167.617V164.641H229.062V167.617L226.203 168.086L230.586 180.602L231.43 183.836H231.57L236.844 168.086L233.961 167.617V164.641H244.18V167.617Z" fill="white"/>
<path d="M258.57 190.492C255.039 190.492 252.227 189.32 250.133 186.977C248.055 184.617 247.016 181.562 247.016 177.812V176.781C247.016 173.172 248.086 170.172 250.227 167.781C252.383 165.375 254.93 164.172 257.867 164.172C261.273 164.172 263.852 165.203 265.602 167.266C267.367 169.328 268.25 172.078 268.25 175.516V178.398H251.797L251.727 178.516C251.773 180.953 252.391 182.961 253.578 184.539C254.766 186.102 256.43 186.883 258.57 186.883C260.133 186.883 261.5 186.664 262.672 186.227C263.859 185.773 264.883 185.156 265.742 184.375L267.547 187.375C266.641 188.25 265.438 188.992 263.938 189.602C262.453 190.195 260.664 190.492 258.57 190.492ZM257.867 167.805C256.32 167.805 255 168.461 253.906 169.773C252.812 171.07 252.141 172.703 251.891 174.672L251.938 174.789H263.633V174.18C263.633 172.367 263.148 170.852 262.18 169.633C261.211 168.414 259.773 167.805 257.867 167.805Z" fill="white"/>
<path d="M289.367 190C289.227 189.312 289.117 188.695 289.039 188.148C288.961 187.602 288.906 187.055 288.875 186.508C287.984 187.648 286.867 188.602 285.523 189.367C284.195 190.117 282.773 190.492 281.258 190.492C278.617 190.492 276.609 189.852 275.234 188.57C273.859 187.273 273.172 185.453 273.172 183.109C273.172 180.703 274.141 178.852 276.078 177.555C278.031 176.242 280.703 175.586 284.094 175.586H288.852V172.633C288.852 171.148 288.383 169.977 287.445 169.117C286.508 168.242 285.203 167.805 283.531 167.805C282.375 167.805 281.352 167.953 280.461 168.25C279.586 168.547 278.875 168.953 278.328 169.469L277.836 172.141H274.273V167.219C275.43 166.297 276.828 165.562 278.469 165.016C280.109 164.453 281.891 164.172 283.812 164.172C286.688 164.172 289.016 164.906 290.797 166.375C292.578 167.844 293.469 169.945 293.469 172.68V184.891C293.469 185.219 293.469 185.539 293.469 185.852C293.484 186.164 293.508 186.477 293.539 186.789L295.414 187.047V190H289.367ZM281.938 186.625C283.469 186.625 284.867 186.258 286.133 185.523C287.398 184.789 288.305 183.906 288.852 182.875V178.703H283.93C282.039 178.703 280.539 179.141 279.43 180.016C278.336 180.891 277.789 181.953 277.789 183.203C277.789 184.312 278.133 185.164 278.82 185.758C279.508 186.336 280.547 186.625 281.938 186.625Z" fill="white"/>
<path d="M299.258 167.617V164.641H307.203L307.648 168.32C308.367 167.023 309.25 166.008 310.297 165.273C311.359 164.539 312.57 164.172 313.93 164.172C314.289 164.172 314.656 164.203 315.031 164.266C315.422 164.312 315.719 164.367 315.922 164.43L315.312 168.719L312.688 168.578C311.469 168.578 310.445 168.867 309.617 169.445C308.789 170.008 308.148 170.805 307.695 171.836V186.391L311.516 187.047V190H299.258V187.047L303.078 186.391V168.273L299.258 167.617Z" fill="white"/>
<path d="M338.539 172.609H335.07L334.32 169.562C333.758 169.031 333.047 168.609 332.188 168.297C331.344 167.969 330.383 167.805 329.305 167.805C327.664 167.805 326.445 168.164 325.648 168.883C324.852 169.602 324.453 170.469 324.453 171.484C324.453 172.484 324.805 173.273 325.508 173.852C326.211 174.43 327.641 174.945 329.797 175.398C333 176.086 335.383 177.023 336.945 178.211C338.508 179.383 339.289 180.961 339.289 182.945C339.289 185.195 338.375 187.016 336.547 188.406C334.734 189.797 332.359 190.492 329.422 190.492C327.5 190.492 325.773 190.273 324.242 189.836C322.711 189.383 321.344 188.734 320.141 187.891L320.117 182.102H323.586L324.453 185.5C324.984 185.984 325.703 186.336 326.609 186.555C327.531 186.773 328.469 186.883 329.422 186.883C331.062 186.883 332.344 186.555 333.266 185.898C334.203 185.227 334.672 184.352 334.672 183.273C334.672 182.258 334.281 181.422 333.5 180.766C332.734 180.109 331.273 179.539 329.117 179.055C326.039 178.383 323.719 177.469 322.156 176.312C320.594 175.156 319.812 173.594 319.812 171.625C319.812 169.562 320.688 167.805 322.438 166.352C324.203 164.898 326.492 164.172 329.305 164.172C331.227 164.172 332.953 164.422 334.484 164.922C336.016 165.422 337.289 166.117 338.305 167.008L338.539 172.609Z" fill="white"/>
<path d="M355.578 177.086C355.578 173.336 356.594 170.25 358.625 167.828C360.656 165.391 363.414 164.172 366.898 164.172C370.398 164.172 373.164 165.383 375.195 167.805C377.242 170.227 378.266 173.32 378.266 177.086V177.602C378.266 181.383 377.25 184.477 375.219 186.883C373.188 189.289 370.43 190.492 366.945 190.492C363.43 190.492 360.656 189.289 358.625 186.883C356.594 184.461 355.578 181.367 355.578 177.602V177.086ZM360.195 177.602C360.195 180.289 360.758 182.508 361.883 184.258C363.023 186.008 364.711 186.883 366.945 186.883C369.133 186.883 370.797 186.008 371.938 184.258C373.078 182.508 373.648 180.289 373.648 177.602V177.086C373.648 174.43 373.078 172.219 371.938 170.453C370.797 168.688 369.117 167.805 366.898 167.805C364.68 167.805 363.008 168.688 361.883 170.453C360.758 172.219 360.195 174.43 360.195 177.086V177.602Z" fill="white"/>
<path d="M382.062 168.062V164.641H386.023V161.43C386.023 158.727 386.727 156.641 388.133 155.172C389.555 153.688 391.531 152.945 394.062 152.945C394.594 152.945 395.125 152.992 395.656 153.086C396.203 153.164 396.805 153.281 397.461 153.438L396.898 156.953C396.617 156.891 396.273 156.836 395.867 156.789C395.477 156.742 395.07 156.719 394.648 156.719C393.289 156.719 392.281 157.125 391.625 157.938C390.969 158.734 390.641 159.898 390.641 161.43V164.641H395.938V168.062H390.641V186.391L394.461 187.047V190H382.203V187.047L386.023 186.391V168.062H382.062Z" fill="white"/>
<path d="M411.523 167.617V164.641H419.469L419.914 168.32C420.633 167.023 421.516 166.008 422.562 165.273C423.625 164.539 424.836 164.172 426.195 164.172C426.555 164.172 426.922 164.203 427.297 164.266C427.688 164.312 427.984 164.367 428.188 164.43L427.578 168.719L424.953 168.578C423.734 168.578 422.711 168.867 421.883 169.445C421.055 170.008 420.414 170.805 419.961 171.836V186.391L423.781 187.047V190H411.523V187.047L415.344 186.391V168.273L411.523 167.617Z" fill="white"/>
<path d="M442.508 190.492C438.977 190.492 436.164 189.32 434.07 186.977C431.992 184.617 430.953 181.562 430.953 177.812V176.781C430.953 173.172 432.023 170.172 434.164 167.781C436.32 165.375 438.867 164.172 441.805 164.172C445.211 164.172 447.789 165.203 449.539 167.266C451.305 169.328 452.188 172.078 452.188 175.516V178.398H435.734L435.664 178.516C435.711 180.953 436.328 182.961 437.516 184.539C438.703 186.102 440.367 186.883 442.508 186.883C444.07 186.883 445.438 186.664 446.609 186.227C447.797 185.773 448.82 185.156 449.68 184.375L451.484 187.375C450.578 188.25 449.375 188.992 447.875 189.602C446.391 190.195 444.602 190.492 442.508 190.492ZM441.805 167.805C440.258 167.805 438.938 168.461 437.844 169.773C436.75 171.07 436.078 172.703 435.828 174.672L435.875 174.789H447.57V174.18C447.57 172.367 447.086 170.852 446.117 169.633C445.148 168.414 443.711 167.805 441.805 167.805Z" fill="white"/>
<path d="M455.844 187.047L459.664 186.391V168.273L455.844 167.617V164.641H463.812L464.117 167.945C464.93 166.742 465.977 165.812 467.258 165.156C468.539 164.5 470.023 164.172 471.711 164.172C473.398 164.172 474.844 164.562 476.047 165.344C477.266 166.125 478.18 167.297 478.789 168.859C479.586 167.422 480.641 166.281 481.953 165.438C483.266 164.594 484.797 164.172 486.547 164.172C489.141 164.172 491.188 165.062 492.688 166.844C494.188 168.609 494.938 171.273 494.938 174.836V186.391L498.758 187.047V190H486.477V187.047L490.297 186.391V174.789C490.297 172.289 489.867 170.523 489.008 169.492C488.148 168.445 486.875 167.922 485.188 167.922C483.578 167.922 482.281 168.492 481.297 169.633C480.328 170.758 479.766 172.18 479.609 173.898V186.391L483.43 187.047V190H471.172V187.047L474.992 186.391V174.789C474.992 172.414 474.547 170.68 473.656 169.586C472.781 168.477 471.508 167.922 469.836 167.922C468.43 167.922 467.273 168.211 466.367 168.789C465.461 169.367 464.766 170.18 464.281 171.227V186.391L468.102 187.047V190H455.844V187.047Z" fill="white"/>
<path d="M501.922 177.086C501.922 173.336 502.938 170.25 504.969 167.828C507 165.391 509.758 164.172 513.242 164.172C516.742 164.172 519.508 165.383 521.539 167.805C523.586 170.227 524.609 173.32 524.609 177.086V177.602C524.609 181.383 523.594 184.477 521.562 186.883C519.531 189.289 516.773 190.492 513.289 190.492C509.773 190.492 507 189.289 504.969 186.883C502.938 184.461 501.922 181.367 501.922 177.602V177.086ZM506.539 177.602C506.539 180.289 507.102 182.508 508.227 184.258C509.367 186.008 511.055 186.883 513.289 186.883C515.477 186.883 517.141 186.008 518.281 184.258C519.422 182.508 519.992 180.289 519.992 177.602V177.086C519.992 174.43 519.422 172.219 518.281 170.453C517.141 168.688 515.461 167.805 513.242 167.805C511.023 167.805 509.352 168.688 508.227 170.453C507.102 172.219 506.539 174.43 506.539 177.086V177.602Z" fill="white"/>
<path d="M536.914 158.523V164.641H541.719V168.062H536.914V183.461C536.914 184.648 537.156 185.484 537.641 185.969C538.141 186.453 538.797 186.695 539.609 186.695C540.016 186.695 540.469 186.664 540.969 186.602C541.484 186.523 541.914 186.445 542.258 186.367L542.891 189.531C542.453 189.812 541.812 190.039 540.969 190.211C540.125 190.398 539.281 190.492 538.438 190.492C536.562 190.492 535.07 189.93 533.961 188.805C532.852 187.664 532.297 185.883 532.297 183.461V168.062H528.289V164.641H532.297V158.523H536.914Z" fill="white"/>
<path d="M558.008 190.492C554.477 190.492 551.664 189.32 549.57 186.977C547.492 184.617 546.453 181.562 546.453 177.812V176.781C546.453 173.172 547.523 170.172 549.664 167.781C551.82 165.375 554.367 164.172 557.305 164.172C560.711 164.172 563.289 165.203 565.039 167.266C566.805 169.328 567.688 172.078 567.688 175.516V178.398H551.234L551.164 178.516C551.211 180.953 551.828 182.961 553.016 184.539C554.203 186.102 555.867 186.883 558.008 186.883C559.57 186.883 560.938 186.664 562.109 186.227C563.297 185.773 564.32 185.156 565.18 184.375L566.984 187.375C566.078 188.25 564.875 188.992 563.375 189.602C561.891 190.195 560.102 190.492 558.008 190.492ZM557.305 167.805C555.758 167.805 554.438 168.461 553.344 169.773C552.25 171.07 551.578 172.703 551.328 174.672L551.375 174.789H563.07V174.18C563.07 172.367 562.586 170.852 561.617 169.633C560.648 168.414 559.211 167.805 557.305 167.805Z" fill="white"/>
<path d="M231.555 254.055C228.023 254.055 225.211 252.883 223.117 250.539C221.039 248.18 220 245.125 220 241.375V240.344C220 236.734 221.07 233.734 223.211 231.344C225.367 228.938 227.914 227.734 230.852 227.734C234.258 227.734 236.836 228.766 238.586 230.828C240.352 232.891 241.234 235.641 241.234 239.078V241.961H224.781L224.711 242.078C224.758 244.516 225.375 246.523 226.562 248.102C227.75 249.664 229.414 250.445 231.555 250.445C233.117 250.445 234.484 250.227 235.656 249.789C236.844 249.336 237.867 248.719 238.727 247.938L240.531 250.938C239.625 251.812 238.422 252.555 236.922 253.164C235.438 253.758 233.648 254.055 231.555 254.055ZM230.852 231.367C229.305 231.367 227.984 232.023 226.891 233.336C225.797 234.633 225.125 236.266 224.875 238.234L224.922 238.352H236.617V237.742C236.617 235.93 236.133 234.414 235.164 233.195C234.195 231.977 232.758 231.367 230.852 231.367Z" fill="white"/>
<path d="M245.172 250.609L247.891 250.07L255.367 240.742L248.125 231.719L245.406 231.18V228.203H255.344V231.18L253.047 231.461L257.781 237.555L262.539 231.438L260.266 231.18V228.203H270.273V231.18L267.555 231.719L260.312 240.742L267.766 250.07L270.508 250.609V253.562H260.57V250.609L262.82 250.352L257.852 243.977L252.883 250.352L255.156 250.609V253.562H245.172V250.609Z" fill="white"/>
<path d="M273.18 260.336L277 259.68V231.836L273.18 231.18V228.203H280.961L281.383 231.297C282.227 230.141 283.25 229.258 284.453 228.648C285.672 228.039 287.078 227.734 288.672 227.734C291.812 227.734 294.25 228.984 295.984 231.484C297.734 233.969 298.609 237.258 298.609 241.352V241.844C298.609 245.5 297.734 248.453 295.984 250.703C294.234 252.938 291.82 254.055 288.742 254.055C287.18 254.055 285.805 253.797 284.617 253.281C283.445 252.75 282.445 251.969 281.617 250.938V259.68L285.438 260.336V263.312H273.18V260.336ZM293.969 241.352C293.969 238.461 293.406 236.094 292.281 234.25C291.156 232.406 289.484 231.484 287.266 231.484C285.953 231.484 284.828 231.781 283.891 232.375C282.953 232.969 282.195 233.781 281.617 234.812V247.164C282.195 248.211 282.945 249.023 283.867 249.602C284.805 250.164 285.953 250.445 287.312 250.445C289.5 250.445 291.156 249.648 292.281 248.055C293.406 246.461 293.969 244.391 293.969 241.844V241.352Z" fill="white"/>
<path d="M314.383 254.055C310.852 254.055 308.039 252.883 305.945 250.539C303.867 248.18 302.828 245.125 302.828 241.375V240.344C302.828 236.734 303.898 233.734 306.039 231.344C308.195 228.938 310.742 227.734 313.68 227.734C317.086 227.734 319.664 228.766 321.414 230.828C323.18 232.891 324.062 235.641 324.062 239.078V241.961H307.609L307.539 242.078C307.586 244.516 308.203 246.523 309.391 248.102C310.578 249.664 312.242 250.445 314.383 250.445C315.945 250.445 317.312 250.227 318.484 249.789C319.672 249.336 320.695 248.719 321.555 247.938L323.359 250.938C322.453 251.812 321.25 252.555 319.75 253.164C318.266 253.758 316.477 254.055 314.383 254.055ZM313.68 231.367C312.133 231.367 310.812 232.023 309.719 233.336C308.625 234.633 307.953 236.266 307.703 238.234L307.75 238.352H319.445V237.742C319.445 235.93 318.961 234.414 317.992 233.195C317.023 231.977 315.586 231.367 313.68 231.367Z" fill="white"/>
<path d="M328.633 231.18V228.203H336.578L337.023 231.883C337.742 230.586 338.625 229.57 339.672 228.836C340.734 228.102 341.945 227.734 343.305 227.734C343.664 227.734 344.031 227.766 344.406 227.828C344.797 227.875 345.094 227.93 345.297 227.992L344.688 232.281L342.062 232.141C340.844 232.141 339.82 232.43 338.992 233.008C338.164 233.57 337.523 234.367 337.07 235.398V249.953L340.891 250.609V253.562H328.633V250.609L332.453 249.953V231.836L328.633 231.18Z" fill="white"/>
<path d="M348.508 250.609L352.328 249.953V231.836L348.508 231.18V228.203H356.945V249.953L360.766 250.609V253.562H348.508V250.609ZM356.945 221.711H352.328V217H356.945V221.711Z" fill="white"/>
<path d="M375.883 254.055C372.352 254.055 369.539 252.883 367.445 250.539C365.367 248.18 364.328 245.125 364.328 241.375V240.344C364.328 236.734 365.398 233.734 367.539 231.344C369.695 228.938 372.242 227.734 375.18 227.734C378.586 227.734 381.164 228.766 382.914 230.828C384.68 232.891 385.562 235.641 385.562 239.078V241.961H369.109L369.039 242.078C369.086 244.516 369.703 246.523 370.891 248.102C372.078 249.664 373.742 250.445 375.883 250.445C377.445 250.445 378.812 250.227 379.984 249.789C381.172 249.336 382.195 248.719 383.055 247.938L384.859 250.938C383.953 251.812 382.75 252.555 381.25 253.164C379.766 253.758 377.977 254.055 375.883 254.055ZM375.18 231.367C373.633 231.367 372.312 232.023 371.219 233.336C370.125 234.633 369.453 236.266 369.203 238.234L369.25 238.352H380.945V237.742C380.945 235.93 380.461 234.414 379.492 233.195C378.523 231.977 377.086 231.367 375.18 231.367Z" fill="white"/>
<path d="M389.453 250.609L393.273 249.953V231.836L389.453 231.18V228.203H397.398L397.727 231.977C398.57 230.633 399.625 229.594 400.891 228.859C402.172 228.109 403.625 227.734 405.25 227.734C407.984 227.734 410.102 228.539 411.602 230.148C413.102 231.742 413.852 234.211 413.852 237.555V249.953L417.672 250.609V253.562H405.414V250.609L409.234 249.953V237.648C409.234 235.414 408.789 233.828 407.898 232.891C407.023 231.953 405.68 231.484 403.867 231.484C402.539 231.484 401.359 231.805 400.328 232.445C399.312 233.086 398.5 233.961 397.891 235.07V249.953L401.711 250.609V253.562H389.453V250.609Z" fill="white"/>
<path d="M432.18 250.445C433.711 250.445 435.055 249.977 436.211 249.039C437.383 248.086 437.969 246.922 437.969 245.547H442.117L442.164 245.688C442.242 247.875 441.266 249.82 439.234 251.523C437.219 253.211 434.867 254.055 432.18 254.055C428.492 254.055 425.672 252.852 423.719 250.445C421.781 248.039 420.812 245.016 420.812 241.375V240.391C420.812 236.781 421.789 233.773 423.742 231.367C425.695 228.945 428.508 227.734 432.18 227.734C434.211 227.734 436.031 228.07 437.641 228.742C439.266 229.414 440.609 230.336 441.672 231.508L441.883 237.133H438.203L437.195 233.148C436.648 232.617 435.945 232.188 435.086 231.859C434.227 231.531 433.258 231.367 432.18 231.367C429.758 231.367 428.023 232.242 426.977 233.992C425.945 235.727 425.43 237.859 425.43 240.391V241.375C425.43 243.969 425.945 246.133 426.977 247.867C428.008 249.586 429.742 250.445 432.18 250.445Z" fill="white"/>
<path d="M458.242 254.055C454.711 254.055 451.898 252.883 449.805 250.539C447.727 248.18 446.688 245.125 446.688 241.375V240.344C446.688 236.734 447.758 233.734 449.898 231.344C452.055 228.938 454.602 227.734 457.539 227.734C460.945 227.734 463.523 228.766 465.273 230.828C467.039 232.891 467.922 235.641 467.922 239.078V241.961H451.469L451.398 242.078C451.445 244.516 452.062 246.523 453.25 248.102C454.438 249.664 456.102 250.445 458.242 250.445C459.805 250.445 461.172 250.227 462.344 249.789C463.531 249.336 464.555 248.719 465.414 247.938L467.219 250.938C466.312 251.812 465.109 252.555 463.609 253.164C462.125 253.758 460.336 254.055 458.242 254.055ZM457.539 231.367C455.992 231.367 454.672 232.023 453.578 233.336C452.484 234.633 451.812 236.266 451.562 238.234L451.609 238.352H463.305V237.742C463.305 235.93 462.82 234.414 461.852 233.195C460.883 231.977 459.445 231.367 457.539 231.367Z" fill="white"/>
<path d="M506 348C482.25 348 479.75 318 456 318C432.25 318 429.75 348 406 348" stroke="#FFD576" stroke-width="3"/>
<path d="M406 348C382.25 348 379.75 318 356 318C332.25 318 329.75 348 306 348" stroke="#FFD576" stroke-width="3"/>
<path d="M306 348C282.25 348 279.75 318 256 318C232.25 318 229.75 348 206 348" stroke="#FFD576" stroke-width="3"/>
<path d="M206 348C182.25 348 179.75 318 156 318C132.25 318 129.75 348 106 348" stroke="#FFD576" stroke-width="3"/>
<path d="M106 348C82.25 348 79.75 318 56 318C32.25 318 29.75 348 6 348" stroke="#FFD576" stroke-width="3"/>
<path d="M169.566 75.1502C169.566 89.2036 165.601 101.531 157.672 112.133C149.742 122.611 139.025 130.439 125.52 135.617C141.131 141.041 153.583 149.547 162.875 161.135C172.292 172.723 177 186.098 177 201.261C177 226.163 168.823 245.209 152.468 258.399C136.237 271.466 115.112 278 89.0929 278C62.5783 278 41.2675 271.466 25.1605 258.399C9.0535 245.209 1 226.163 1 201.261C1 186.098 5.5843 172.723 14.7529 161.135C23.9215 149.547 36.3115 141.041 51.9229 135.617C38.4178 130.439 27.8244 122.611 20.1426 112.133C12.4608 101.531 8.61985 89.2036 8.61985 75.1502C8.61985 51.4813 15.93 33.2365 30.5502 20.4159C45.2943 7.47196 64.6846 1 88.7212 1C112.51 1 131.9 7.47196 146.892 20.4159C162.008 33.2365 169.566 51.4813 169.566 75.1502ZM140.573 200.521C140.573 185.728 135.679 173.586 125.891 164.093C116.103 154.601 103.713 149.855 88.7212 149.855C73.6054 149.855 61.2774 154.601 51.7371 164.093C42.3207 173.462 37.6125 185.605 37.6125 200.521C37.6125 215.808 42.2587 227.827 51.5512 236.579C60.9676 245.209 73.4815 249.523 89.0929 249.523C104.333 249.523 116.723 245.147 126.263 236.395C135.803 227.642 140.573 215.684 140.573 200.521ZM132.954 75.8899C132.954 62.5761 128.741 51.5429 120.316 42.7904C112.014 34.0378 101.483 29.6615 88.7212 29.6615C75.7117 29.6615 65.1802 33.9146 57.1267 42.4206C49.1971 50.8033 45.2323 61.9597 45.2323 75.8899C45.2323 89.5734 49.2591 100.545 57.3126 108.804C65.3661 117.064 75.9595 121.194 89.0929 121.194C101.979 121.194 112.51 117.064 120.687 108.804C128.865 100.545 132.954 89.5734 132.954 75.8899Z" stroke="white" stroke-width="2"/>
</svg>
