<svg width="568" height="350" fill="none" xmlns="http://www.w3.org/2000/svg"><path d="M244.18 167.617l-2.274.352-9.656 25.922c-.641 1.703-1.562 3.187-2.766 4.453-1.203 1.265-2.82 1.898-4.851 1.898-.36 0-.828-.047-1.406-.14a13.271 13.271 0 0 1-1.336-.235l.468-3.633c-.093-.015.18 0 .821.047.656.047 1.07.071 1.242.071.984 0 1.781-.43 2.39-1.29.61-.843 1.141-1.82 1.594-2.929l1.102-2.625-8.367-21.516-2.321-.375v-2.976h10.242v2.976l-2.859.469 4.383 12.516.844 3.234h.14l5.274-15.75-2.883-.469v-2.976h10.219v2.976zm14.39 22.875c-3.531 0-6.343-1.172-8.437-3.515-2.078-2.36-3.117-5.415-3.117-9.165v-1.031c0-3.609 1.07-6.609 3.211-9 2.156-2.406 4.703-3.609 7.64-3.609 3.406 0 5.985 1.031 7.735 3.094 1.765 2.062 2.648 4.812 2.648 8.25v2.882h-16.453l-.07.118c.046 2.437.664 4.445 1.851 6.023 1.188 1.563 2.852 2.344 4.992 2.344 1.563 0 2.93-.219 4.102-.656 1.187-.454 2.211-1.071 3.07-1.852l1.805 3c-.906.875-2.109 1.617-3.609 2.227-1.485.593-3.274.89-5.368.89zm-.703-22.687c-1.547 0-2.867.656-3.961 1.968-1.094 1.297-1.765 2.93-2.015 4.899l.047.117h11.695v-.609c0-1.813-.485-3.328-1.453-4.547-.969-1.219-2.407-1.828-4.313-1.828zm31.5 22.195c-.14-.688-.25-1.305-.328-1.852a19.33 19.33 0 0 1-.164-1.64c-.891 1.14-2.008 2.094-3.352 2.859a8.536 8.536 0 0 1-4.265 1.125c-2.641 0-4.649-.64-6.024-1.922-1.375-1.297-2.062-3.117-2.062-5.461 0-2.406.969-4.257 2.906-5.554 1.953-1.313 4.625-1.969 8.016-1.969h4.758v-2.953c0-1.485-.469-2.656-1.407-3.516-.937-.875-2.242-1.312-3.914-1.312-1.156 0-2.179.148-3.07.445-.875.297-1.586.703-2.133 1.219l-.492 2.672h-3.563v-4.922c1.157-.922 2.555-1.657 4.196-2.203 1.64-.563 3.422-.844 5.343-.844 2.876 0 5.204.734 6.985 2.203 1.781 1.469 2.672 3.57 2.672 6.305v13.172c.015.312.039.625.07.937l1.875.258V190h-6.047zm-7.429-3.375c1.531 0 2.929-.367 4.195-1.102 1.265-.734 2.172-1.617 2.719-2.648v-4.172h-4.922c-1.891 0-3.391.438-4.5 1.313-1.094.875-1.641 1.937-1.641 3.187 0 1.109.344 1.961 1.031 2.555.688.578 1.727.867 3.118.867zm17.32-19.008v-2.976h7.945l.445 3.679c.719-1.297 1.602-2.312 2.649-3.047 1.062-.734 2.273-1.101 3.633-1.101.359 0 .726.031 1.101.094.391.046.688.101.891.164l-.61 4.289-2.624-.141c-1.219 0-2.243.289-3.071.867-.828.563-1.469 1.36-1.922 2.391v14.555l3.821.656V190h-12.258v-2.953l3.82-.656v-18.118l-3.82-.656zm39.281 4.992h-3.469l-.75-3.047c-.562-.531-1.273-.953-2.132-1.265-.844-.328-1.805-.492-2.883-.492-1.641 0-2.86.359-3.657 1.078-.796.719-1.195 1.586-1.195 2.601 0 1 .352 1.789 1.055 2.368.703.578 2.133 1.093 4.289 1.546 3.203.688 5.586 1.625 7.148 2.813 1.563 1.172 2.344 2.75 2.344 4.734 0 2.25-.914 4.071-2.742 5.461-1.813 1.391-4.188 2.086-7.125 2.086-1.922 0-3.649-.219-5.18-.656-1.531-.453-2.898-1.102-4.101-1.945l-.024-5.789h3.469l.867 3.398c.531.484 1.25.836 2.156 1.055.922.218 1.86.328 2.813.328 1.64 0 2.922-.328 3.844-.985.937-.671 1.406-1.546 1.406-2.625 0-1.015-.391-1.851-1.172-2.507-.766-.657-2.227-1.227-4.383-1.711-3.078-.672-5.398-1.586-6.961-2.743-1.562-1.156-2.344-2.718-2.344-4.687 0-2.063.876-3.82 2.626-5.273 1.765-1.454 4.054-2.18 6.867-2.18 1.922 0 3.648.25 5.179.75 1.532.5 2.805 1.195 3.821 2.086l.234 5.601zm17.039 4.477c0-3.75 1.016-6.836 3.047-9.258 2.031-2.437 4.789-3.656 8.273-3.656 3.5 0 6.266 1.211 8.297 3.633 2.047 2.422 3.071 5.515 3.071 9.281v.516c0 3.781-1.016 6.875-3.047 9.281-2.031 2.406-4.789 3.609-8.274 3.609-3.515 0-6.289-1.203-8.32-3.609-2.031-2.422-3.047-5.516-3.047-9.281v-.516zm4.617.516c0 2.687.563 4.906 1.688 6.656 1.14 1.75 2.828 2.625 5.062 2.625 2.188 0 3.852-.875 4.993-2.625 1.14-1.75 1.71-3.969 1.71-6.656v-.516c0-2.656-.57-4.867-1.71-6.633-1.141-1.765-2.821-2.648-5.04-2.648-2.218 0-3.89.883-5.015 2.648-1.125 1.766-1.688 3.977-1.688 6.633v.516zm21.867-9.54v-3.421h3.961v-3.211c0-2.703.704-4.789 2.11-6.258 1.422-1.484 3.398-2.227 5.929-2.227.532 0 1.063.047 1.594.141.547.078 1.149.195 1.805.352l-.563 3.515a10.472 10.472 0 0 0-1.031-.164c-.39-.047-.797-.07-1.219-.07-1.359 0-2.367.406-3.023 1.219-.656.796-.984 1.96-.984 3.492v3.211h5.297v3.421h-5.297v18.329l3.82.656V190h-12.258v-2.953l3.82-.656v-18.329h-3.961zm29.461-.445v-2.976h7.946l.445 3.679c.719-1.297 1.602-2.312 2.648-3.047 1.063-.734 2.274-1.101 3.633-1.101.36 0 .727.031 1.102.094.391.046.687.101.891.164l-.61 4.289-2.625-.141c-1.219 0-2.242.289-3.07.867-.828.563-1.469 1.36-1.922 2.391v14.555l3.82.656V190h-12.258v-2.953l3.821-.656v-18.118l-3.821-.656zm30.985 22.875c-3.531 0-6.344-1.172-8.438-3.515-2.078-2.36-3.117-5.415-3.117-9.165v-1.031c0-3.609 1.07-6.609 3.211-9 2.156-2.406 4.703-3.609 7.641-3.609 3.406 0 5.984 1.031 7.734 3.094 1.766 2.062 2.649 4.812 2.649 8.25v2.882h-16.454l-.07.118c.047 2.437.664 4.445 1.852 6.023 1.187 1.563 2.851 2.344 4.992 2.344 1.562 0 2.93-.219 4.101-.656 1.188-.454 2.211-1.071 3.071-1.852l1.804 3c-.906.875-2.109 1.617-3.609 2.227-1.484.593-3.273.89-5.367.89zm-.703-22.687c-1.547 0-2.867.656-3.961 1.968-1.094 1.297-1.766 2.93-2.016 4.899l.047.117h11.695v-.609c0-1.813-.484-3.328-1.453-4.547-.969-1.219-2.406-1.828-4.312-1.828zm14.039 19.242l3.82-.656v-18.118l-3.82-.656v-2.976h7.968l.305 3.304a8.306 8.306 0 0 1 3.141-2.789c1.281-.656 2.765-.984 4.453-.984 1.687 0 3.133.39 4.336 1.172 1.219.781 2.133 1.953 2.742 3.515.797-1.437 1.852-2.578 3.164-3.421 1.313-.844 2.844-1.266 4.594-1.266 2.594 0 4.641.89 6.141 2.672 1.5 1.765 2.25 4.429 2.25 7.992v11.555l3.82.656V190h-12.281v-2.953l3.82-.656v-11.602c0-2.5-.43-4.266-1.289-5.297-.86-1.047-2.133-1.57-3.82-1.57-1.61 0-2.907.57-3.891 1.711-.969 1.125-1.531 2.547-1.688 4.265v12.493l3.821.656V190h-12.258v-2.953l3.82-.656v-11.602c0-2.375-.445-4.109-1.336-5.203-.875-1.109-2.148-1.664-3.82-1.664-1.406 0-2.563.289-3.469.867-.906.578-1.601 1.391-2.086 2.438v15.164l3.821.656V190h-12.258v-2.953zm46.078-9.961c0-3.75 1.016-6.836 3.047-9.258 2.031-2.437 4.789-3.656 8.273-3.656 3.5 0 6.266 1.211 8.297 3.633 2.047 2.422 3.07 5.515 3.07 9.281v.516c0 3.781-1.015 6.875-3.047 9.281-2.031 2.406-4.789 3.609-8.273 3.609-3.516 0-6.289-1.203-8.32-3.609-2.031-2.422-3.047-5.516-3.047-9.281v-.516zm4.617.516c0 2.687.563 4.906 1.688 6.656 1.14 1.75 2.828 2.625 5.062 2.625 2.188 0 3.852-.875 4.992-2.625 1.141-1.75 1.711-3.969 1.711-6.656v-.516c0-2.656-.57-4.867-1.711-6.633-1.14-1.765-2.82-2.648-5.039-2.648s-3.89.883-5.015 2.648c-1.125 1.766-1.688 3.977-1.688 6.633v.516zm30.375-19.079v6.118h4.805v3.421h-4.805v15.399c0 1.187.242 2.023.727 2.508.5.484 1.156.726 1.968.726.407 0 .86-.031 1.36-.093.515-.079.945-.157 1.289-.235l.633 3.164c-.438.281-1.079.508-1.922.68-.844.187-1.688.281-2.531.281-1.876 0-3.368-.562-4.477-1.687-1.109-1.141-1.664-2.922-1.664-5.344v-15.399h-4.008v-3.421h4.008v-6.118h4.617zm21.094 31.969c-3.531 0-6.344-1.172-8.438-3.515-2.078-2.36-3.117-5.415-3.117-9.165v-1.031c0-3.609 1.07-6.609 3.211-9 2.156-2.406 4.703-3.609 7.641-3.609 3.406 0 5.984 1.031 7.734 3.094 1.766 2.062 2.649 4.812 2.649 8.25v2.882h-16.454l-.07.118c.047 2.437.664 4.445 1.852 6.023 1.187 1.563 2.851 2.344 4.992 2.344 1.562 0 2.93-.219 4.101-.656 1.188-.454 2.211-1.071 3.071-1.852l1.804 3c-.906.875-2.109 1.617-3.609 2.227-1.484.593-3.273.89-5.367.89zm-.703-22.687c-1.547 0-2.867.656-3.961 1.968-1.094 1.297-1.766 2.93-2.016 4.899l.047.117h11.695v-.609c0-1.813-.484-3.328-1.453-4.547-.969-1.219-2.406-1.828-4.312-1.828zm-325.75 86.25c-3.532 0-6.344-1.172-8.438-3.516-2.078-2.359-3.117-5.414-3.117-9.164v-1.031c0-3.61 1.07-6.61 3.211-9 2.156-2.406 4.703-3.61 7.641-3.61 3.406 0 5.984 1.032 7.734 3.094 1.766 2.063 2.648 4.813 2.648 8.25v2.883h-16.453l-.07.117c.047 2.438.664 4.445 1.851 6.024 1.188 1.562 2.852 2.343 4.993 2.343 1.562 0 2.929-.218 4.101-.656 1.188-.453 2.211-1.07 3.071-1.851l1.804 3c-.906.874-2.109 1.617-3.609 2.226-1.484.594-3.274.891-5.367.891zm-.703-22.688c-1.547 0-2.868.656-3.961 1.969-1.094 1.297-1.766 2.93-2.016 4.898l.047.118h11.695v-.61c0-1.812-.484-3.328-1.453-4.547-.969-1.218-2.406-1.828-4.312-1.828zm14.32 19.242l2.719-.539 7.476-9.328-7.242-9.023-2.719-.539v-2.977h9.938v2.977l-2.297.281 4.734 6.094 4.758-6.117-2.273-.258v-2.977h10.007v2.977l-2.718.539-7.243 9.023 7.454 9.328 2.742.539v2.953h-9.938v-2.953l2.25-.257-4.968-6.375-4.969 6.375 2.273.257v2.953h-9.984v-2.953zm28.008 9.727l3.82-.656v-27.844l-3.82-.656v-2.977h7.781l.422 3.094c.844-1.156 1.867-2.039 3.07-2.649 1.219-.609 2.625-.914 4.219-.914 3.14 0 5.578 1.25 7.312 3.75 1.75 2.485 2.625 5.774 2.625 9.868v.492c0 3.656-.875 6.609-2.625 8.859-1.75 2.235-4.164 3.352-7.242 3.352-1.562 0-2.937-.258-4.125-.774a8.086 8.086 0 0 1-3-2.343v8.742l3.821.656v2.976H273.18v-2.976zm20.789-18.984c0-2.891-.563-5.258-1.688-7.102-1.125-1.844-2.797-2.766-5.015-2.766-1.313 0-2.438.297-3.375.891-.938.594-1.696 1.406-2.274 2.437v12.352c.578 1.047 1.328 1.859 2.25 2.438.938.562 2.086.843 3.445.843 2.188 0 3.844-.797 4.969-2.39 1.125-1.594 1.688-3.664 1.688-6.211v-.492zm20.414 12.703c-3.531 0-6.344-1.172-8.438-3.516-2.078-2.359-3.117-5.414-3.117-9.164v-1.031c0-3.61 1.07-6.61 3.211-9 2.156-2.406 4.703-3.61 7.641-3.61 3.406 0 5.984 1.032 7.734 3.094 1.766 2.063 2.648 4.813 2.648 8.25v2.883h-16.453l-.07.117c.047 2.438.664 4.445 1.852 6.024 1.187 1.562 2.851 2.343 4.992 2.343 1.562 0 2.929-.218 4.101-.656 1.188-.453 2.211-1.07 3.071-1.851l1.804 3c-.906.874-2.109 1.617-3.609 2.226-1.484.594-3.273.891-5.367.891zm-.703-22.688c-1.547 0-2.868.656-3.961 1.969-1.094 1.297-1.766 2.93-2.016 4.898l.047.118h11.695v-.61c0-1.812-.484-3.328-1.453-4.547-.969-1.218-2.406-1.828-4.312-1.828zm14.953-.187v-2.977h7.945l.445 3.68c.719-1.297 1.602-2.313 2.649-3.047 1.062-.734 2.273-1.102 3.633-1.102.359 0 .726.032 1.101.094.391.047.688.102.891.164l-.609 4.289-2.626-.14c-1.218 0-2.242.289-3.07.867-.828.562-1.469 1.359-1.922 2.39v14.555l3.821.656v2.953h-12.258v-2.953l3.82-.656v-18.117l-3.82-.656zm19.875 19.429l3.82-.656v-18.117l-3.82-.656v-2.977h8.437v21.75l3.821.656v2.953h-12.258v-2.953zm8.437-28.898h-4.617V217h4.617v4.711zm18.938 32.344c-3.531 0-6.344-1.172-8.438-3.516-2.078-2.359-3.117-5.414-3.117-9.164v-1.031c0-3.61 1.07-6.61 3.211-9 2.156-2.406 4.703-3.61 7.641-3.61 3.406 0 5.984 1.032 7.734 3.094 1.766 2.063 2.648 4.813 2.648 8.25v2.883h-16.453l-.07.117c.047 2.438.664 4.445 1.852 6.024 1.187 1.562 2.851 2.343 4.992 2.343 1.562 0 2.929-.218 4.101-.656 1.188-.453 2.211-1.07 3.071-1.851l1.804 3c-.906.874-2.109 1.617-3.609 2.226-1.484.594-3.273.891-5.367.891zm-.703-22.688c-1.547 0-2.868.656-3.961 1.969-1.094 1.297-1.766 2.93-2.016 4.898l.047.118h11.695v-.61c0-1.812-.484-3.328-1.453-4.547-.969-1.218-2.406-1.828-4.312-1.828zm14.273 19.242l3.82-.656v-18.117l-3.82-.656v-2.977h7.945l.329 3.774c.843-1.344 1.898-2.383 3.164-3.118 1.281-.75 2.734-1.125 4.359-1.125 2.734 0 4.852.805 6.352 2.414 1.5 1.594 2.25 4.063 2.25 7.407v12.398l3.82.656v2.953h-12.258v-2.953l3.82-.656v-12.305c0-2.234-.445-3.82-1.336-4.757-.875-.938-2.218-1.407-4.031-1.407-1.328 0-2.508.321-3.539.961-1.016.641-1.828 1.516-2.437 2.625v14.883l3.82.656v2.953h-12.258v-2.953zm42.727-.164c1.531 0 2.875-.468 4.031-1.406 1.172-.953 1.758-2.117 1.758-3.492h4.148l.047.141c.078 2.187-.898 4.132-2.93 5.835-2.015 1.688-4.367 2.532-7.054 2.532-3.688 0-6.508-1.203-8.461-3.61-1.938-2.406-2.907-5.429-2.907-9.07v-.984c0-3.61.977-6.618 2.93-9.024 1.953-2.422 4.766-3.633 8.438-3.633 2.031 0 3.851.336 5.461 1.008 1.625.672 2.968 1.594 4.031 2.766l.211 5.625h-3.68l-1.008-3.985c-.547-.531-1.25-.96-2.109-1.289-.859-.328-1.828-.492-2.906-.492-2.422 0-4.157.875-5.203 2.625-1.032 1.735-1.547 3.867-1.547 6.399v.984c0 2.594.515 4.758 1.547 6.492 1.031 1.719 2.765 2.578 5.203 2.578zm26.062 3.61c-3.531 0-6.344-1.172-8.437-3.516-2.078-2.359-3.117-5.414-3.117-9.164v-1.031c0-3.61 1.07-6.61 3.21-9 2.157-2.406 4.704-3.61 7.641-3.61 3.406 0 5.984 1.032 7.734 3.094 1.766 2.063 2.649 4.813 2.649 8.25v2.883h-16.453l-.071.117c.047 2.438.664 4.445 1.852 6.024 1.188 1.562 2.852 2.343 4.992 2.343 1.563 0 2.93-.218 4.102-.656 1.187-.453 2.211-1.07 3.07-1.851l1.805 3c-.907.874-2.11 1.617-3.61 2.226-1.484.594-3.273.891-5.367.891zm-.703-22.688c-1.547 0-2.867.656-3.961 1.969-1.094 1.297-1.766 2.93-2.016 4.898l.047.118h11.696v-.61c0-1.812-.485-3.328-1.453-4.547-.969-1.218-2.407-1.828-4.313-1.828z" fill="#fff"/><path d="M506 348c-23.75 0-26.25-30-50-30s-26.25 30-50 30m0 0c-23.75 0-26.25-30-50-30s-26.25 30-50 30m0 0c-23.75 0-26.25-30-50-30s-26.25 30-50 30m0 0c-23.75 0-26.25-30-50-30s-26.25 30-50 30m0 0c-23.75 0-26.25-30-50-30s-26.25 30-50 30" stroke="#FFD576" stroke-width="3"/><path d="M169.566 75.15c0 14.054-3.965 26.381-11.894 36.983-7.93 10.478-18.647 18.306-32.152 23.484 15.611 5.424 28.063 13.93 37.355 25.518C172.292 172.723 177 186.098 177 201.261c0 24.902-8.177 43.948-24.532 57.138C136.237 271.466 115.112 278 89.093 278c-26.515 0-47.826-6.534-63.933-19.601C9.053 245.209 1 226.163 1 201.261c0-15.163 4.584-28.538 13.753-40.126 9.169-11.588 21.559-20.094 37.17-25.518-13.505-5.178-24.099-13.006-31.78-23.484C12.46 101.531 8.62 89.203 8.62 75.15c0-23.669 7.31-41.914 21.93-54.734C45.294 7.472 64.685 1 88.721 1c23.789 0 43.179 6.472 58.171 19.416 15.116 12.82 22.674 31.065 22.674 54.734zm-28.993 125.371c0-14.793-4.894-26.935-14.682-36.428-9.788-9.492-22.178-14.238-37.17-14.238-15.116 0-27.444 4.746-36.984 14.238-9.416 9.369-14.125 21.512-14.125 36.428 0 15.287 4.647 27.306 13.94 36.058 9.416 8.63 21.93 12.944 37.54 12.944 15.241 0 27.631-4.376 37.171-13.128 9.54-8.753 14.31-20.711 14.31-35.874zM132.954 75.89c0-13.314-4.213-24.347-12.638-33.1-8.302-8.752-18.833-13.128-31.595-13.128-13.01 0-23.54 4.253-31.594 12.759-7.93 8.382-11.895 19.539-11.895 33.469 0 13.683 4.027 24.655 12.08 32.914 8.054 8.26 18.648 12.39 31.78 12.39 12.887 0 23.418-4.13 31.595-12.39 8.178-8.259 12.267-19.23 12.267-32.914z" stroke="#fff" stroke-width="2"/></svg>