<svg fill="none" height="512" width="512" xmlns="http://www.w3.org/2000/svg"><path d="m256 91.243c-90.847 0-164.757 73.91-164.757 164.757s73.91 164.757 164.757 164.757 164.757-73.91 164.757-164.757-73.91-164.757-164.757-164.757zm-112.467 179.757c-8.279 0-15-6.72-15-15s6.721-15 15-15c8.278 0 15 6.72 15 15s-6.721 15-15 15zm32.941 79.53c-8.279 0-15-6.72-15-15s6.721-15 15-15 15 6.72 15 15-6.721 15-15 15zm0-159.052c-8.279 0-15-6.72-15-15s6.721-15 15-15 15 6.72 15 15-6.721 15-15 15zm47.393 111.655c-8.279 0-15-6.72-15-15s6.721-15 15-15 15 6.72 15 15-6.722 15-15 15zm0-64.266c-8.279 0-15-6.72-15-15s6.721-15 15-15 15 6.72 15 15-6.722 15-15 15zm32.133 144.6c-8.279 0-15-6.72-15-15s6.721-15 15-15c8.278 0 15 6.72 15 15s-6.722 15-15 15zm0-224.934c-8.279 0-15-6.72-15-15s6.721-15 15-15c8.278 0 15 6.72 15 15s-6.722 15-15 15zm32.133 144.6c-8.279 0-15-6.72-15-15s6.721-15 15-15 15 6.72 15 15-6.721 15-15 15zm0-64.266c-8.279 0-15-6.72-15-15s6.721-15 15-15 15 6.72 15 15-6.721 15-15 15zm47.393 111.663c-8.279 0-15-6.72-15-15s6.721-15 15-15 15 6.72 15 15-6.722 15-15 15zm0-159.052c-8.279 0-15-6.72-15-15s6.721-15 15-15 15 6.72 15 15-6.722 15-15 15zm32.941 79.522c-8.279 0-15-6.72-15-15s6.721-15 15-15 15 6.72 15 15-6.722 15-15 15zm-187.808-233.048 1.296-.347 9.302 34.716a192.965 192.965 0 0 1 28.975-7.773l-9.3-34.708 1.296-.347c8.002-2.144 12.75-10.369 10.606-18.371-2.143-8.002-10.368-12.752-18.37-10.607l-31.569 8.459c-8.002 2.144-12.75 10.369-10.606 18.371 2.056 7.679 10.056 12.835 18.37 10.607zm-98.932 66.885.949-.949 25.481 25.481a196.43 196.43 0 0 1 21.213-21.213l-25.481-25.48.949-.949c5.858-5.858 5.858-15.355 0-21.213-5.857-5.858-15.355-5.858-21.213 0l-23.11 23.11c-5.858 5.858-5.858 15.355 0 21.213 5.857 5.86 15.356 5.857 21.212 0zm-70.606 117.994c7.72 2.07 16.152-2.326 18.371-10.606l.347-1.296 34.708 9.3a193.087 193.087 0 0 1 7.774-28.975l-34.718-9.303.347-1.296c2.144-8.002-2.604-16.227-10.606-18.371-8.006-2.146-16.227 2.604-18.371 10.606l-8.458 31.57c-2.144 8.002 2.604 16.227 10.606 18.371zm26.483 107.214 34.716-9.302a192.965 192.965 0 0 1 -7.773-28.975l-34.708 9.3-.347-1.296c-2.219-8.281-10.652-12.676-18.371-10.606-8.002 2.144-12.75 10.369-10.606 18.371l8.459 31.569c2.145 8.002 10.365 12.752 18.371 10.606 8.002-2.144 12.75-10.369 10.606-18.371zm70.552 52.586-25.481 25.481-.949-.949c-5.856-5.857-15.355-5.859-21.213 0-5.858 5.858-5.858 15.355 0 21.213l23.11 23.11c5.857 5.858 15.355 5.858 21.213 0s5.858-15.355 0-21.213l-.949-.949 25.481-25.48a196.601 196.601 0 0 1 -21.212-21.213zm104.072 99.876-1.296-.347 9.3-34.708a192.965 192.965 0 0 1 -28.975-7.773l-9.302 34.716-1.296-.347c-8.314-2.228-16.314 2.928-18.371 10.606-2.144 8.002 2.604 16.227 10.606 18.371l31.569 8.459c8.003 2.145 16.228-2.605 18.371-10.606 2.145-8.002-2.604-16.227-10.606-18.371zm119.113-8.459-1.296.347-9.302-34.716a192.965 192.965 0 0 1 -28.975 7.773l9.3 34.708-1.296.347c-8.002 2.144-12.75 10.369-10.606 18.371 2.144 8.001 10.368 12.751 18.371 10.606l31.569-8.459c8.002-2.144 12.75-10.369 10.606-18.371-2.057-7.678-10.057-12.834-18.371-10.606zm98.932-66.885-.949.949-25.481-25.481a196.43 196.43 0 0 1 -21.213 21.213l25.481 25.48-.949.949c-5.858 5.858-5.858 15.355 0 21.213 5.857 5.858 15.355 5.858 21.213 0l23.11-23.11c5.858-5.858 5.858-15.355 0-21.213-5.857-5.86-15.356-5.857-21.212 0zm70.606-117.998c-7.72-2.07-16.152 2.326-18.371 10.606l-.347 1.296-34.708-9.3a192.965 192.965 0 0 1 -7.773 28.975l34.716 9.302-.347 1.296c-2.144 8.002 2.604 16.227 10.606 18.371 8.006 2.146 16.227-2.604 18.371-10.606l8.459-31.569c2.144-8.002-2.604-16.227-10.606-18.371zm-26.483-107.214-34.718 9.303a193.087 193.087 0 0 1 7.774 28.975l34.708-9.3.347 1.296c2.219 8.281 10.652 12.676 18.371 10.606 8.002-2.144 12.751-10.369 10.606-18.371l-8.459-31.569c-2.145-8.002-10.365-12.752-18.371-10.606-8.002 2.144-12.75 10.369-10.606 18.371zm-70.552-52.582 25.481-25.481.949.949c5.856 5.857 15.355 5.859 21.213 0 5.858-5.858 5.858-15.355 0-21.213l-23.11-23.11c-5.857-5.858-15.355-5.858-21.213 0s-5.858 15.355 0 21.213l.949.949-25.481 25.48a196.601 196.601 0 0 1 21.212 21.213zm-104.072-99.876 1.296.347-9.3 34.708a192.965 192.965 0 0 1 28.975 7.773l9.302-34.716 1.296.347c8.314 2.228 16.314-2.928 18.371-10.606 2.144-8.002-2.604-16.227-10.606-18.371l-31.569-8.459c-8.003-2.145-16.228 2.605-18.371 10.606-2.145 8.002 2.604 16.227 10.606 18.371z" fill="#fff"/></svg>