<svg width="64" height="64" viewBox="0 0 64 64" fill="none" xmlns="http://www.w3.org/2000/svg">
<path fill-rule="evenodd" clip-rule="evenodd" d="M32 19C24.8203 19 19 24.8203 19 32C19 39.1797 24.8203 45 32 45C39.1797 45 45 39.1797 45 32H49C49 41.3888 41.3888 49 32 49C22.6112 49 15 41.3888 15 32C15 22.6112 22.6112 15 32 15C37.5623 15 42.5008 17.6735 45.599 21.7972L42.401 24.1999C40.0258 21.0385 36.2513 19 32 19Z" fill="#0254D8"/>
<path fill-rule="evenodd" clip-rule="evenodd" d="M32 9C19.2975 9 9 19.2975 9 32C9 44.7025 19.2975 55 32 55C41.0682 55 48.9146 49.7522 52.6608 42.1189L56.2516 43.8811C51.859 52.8316 42.6517 59 32 59C17.0883 59 5 46.9117 5 32C5 17.0883 17.0883 5 32 5C46.9117 5 59 17.0883 59 32V34H32.3484L35.5185 37.6984L32.4815 40.3016L25.3658 32L32.4815 23.6984L35.5185 26.3016L32.3484 30H54.9142C53.9007 18.2339 44.0287 9 32 9Z" fill="black"/>
</svg>
