<svg viewBox="0 0 983 851" fill="none" xmlns="http://www.w3.org/2000/svg" xmlns:xlink="http://www.w3.org/1999/xlink">
  <path
    id="blue"
    d="M278.73 524.246
    C280.12 521.241 281.701 518.164 283.466 515.027L283.902 515.272
    C285.53 512.378 287.315 509.432 289.251 506.443L288.831 506.171
    C290.654 503.357 292.61 500.506 294.694 497.626L295.099 497.919
    C297.073 495.191 299.162 492.436 301.362 489.661L300.971 489.35
    C303.069 486.704 305.268 484.039 307.564 481.362L307.943 481.688
    C310.149 479.115 312.446 476.531 314.828 473.94L314.46 473.602
    C316.758 471.102 319.137 468.597 321.593 466.089L321.95 466.439
    C324.334 464.006 326.79 461.571 329.317 459.139L328.97 458.779
    C331.426 456.415 333.947 454.053 336.533 451.698L336.87 452.067
    C339.392 449.77 341.975 447.478 344.616 445.195L344.289 444.817
    C346.88 442.578 349.527 440.348 352.229 438.13L352.546 438.516
    C355.19 436.346 357.885 434.187 360.631 432.042L360.323 431.648
    C363.024 429.539 365.772 427.444 368.567 425.366L368.866 425.767
    C370.249 424.739 371.644 423.714 373.05 422.694
    C374.456 421.675 375.863 420.667 377.271 419.671L376.982 419.263
    C379.825 417.251 382.67 415.289 385.514 413.377L385.793 413.792
    C388.684 411.848 391.573 409.956 394.457 408.118L394.189 407.696
    C397.136 405.817 400.077 403.993 403.01 402.226L403.268 402.654
    C406.259 400.852 409.239 399.109 412.206 397.425L411.96 396.99
    C415.002 395.264 418.03 393.6 421.039 392L421.274 392.441
    C424.371 390.795 427.448 389.216 430.501 387.706L430.279 387.258
    C433.425 385.702 436.546 384.219 439.635 382.811L439.843 383.266
    C443.046 381.805 446.215 380.425 449.346 379.127L449.154 378.665
    C452.412 377.314 455.628 376.052 458.795 374.879L458.968 375.348
    C462.29 374.118 465.557 372.988 468.763 371.959L468.61 371.483
    C471.995 370.396 475.313 369.422 478.553 368.563L478.681 369.047
    C482.124 368.134 485.479 367.352 488.735 366.704L488.638 366.213
    C492.167 365.51 495.583 364.963 498.872 364.575L498.931 365.071
    C502.527 364.647 505.967 364.414 509.235 364.377L509.229 363.877
    C512.903 363.835 516.363 364.039 519.584 364.496L519.514 364.991
    C523.142 365.506 526.457 366.342 529.424 367.507L529.607 367.041
    C533.01 368.377 535.973 370.142 538.445 372.351L538.111 372.724
    C539.38 373.857 540.515 375.109 541.511 376.482
    C542.506 377.855 543.344 379.323 544.027 380.88L544.485 380.679
    C545.817 383.715 546.575 387.08 546.788 390.729L546.289 390.758
    C546.474 393.941 546.24 397.351 545.602 400.959L546.095 401.046
    C545.528 404.251 544.648 407.603 543.468 411.082L542.994 410.921
    C541.944 414.016 540.654 417.214 539.134 420.5L539.588 420.71
    C538.198 423.716 536.616 426.793 534.852 429.93L534.416 429.685
    C532.788 432.579 531.003 435.525 529.067 438.514L529.486 438.786
    C527.664 441.599 525.708 444.45 523.624 447.33L523.219 447.037
    C521.245 449.765 519.156 452.52 516.955 455.295L517.347 455.606
    C515.249 458.252 513.05 460.917 510.754 463.594L510.374 463.269
    C508.168 465.841 505.872 468.425 503.489 471.016L503.857 471.355
    C501.559 473.854 499.18 476.36 496.724 478.867L496.367 478.517
    C493.984 480.95 491.528 483.385 489.001 485.818L489.348 486.178
    C486.892 488.542 484.37 490.903 481.784 493.259L481.448 492.889
    C478.926 495.187 476.343 497.479 473.701 499.761L474.028 500.14
    C471.437 502.379 468.79 504.609 466.089 506.826L465.772 506.44
    C463.128 508.611 460.432 510.77 457.687 512.914L457.995 513.308
    C455.294 515.417 452.545 517.512 449.75 519.59L449.452 519.189
    C448.068 520.218 446.674 521.242 445.267 522.262
    C443.861 523.282 442.454 524.29 441.047 525.285L441.336 525.694
    C438.493 527.705 435.648 529.667 432.804 531.579L432.525 531.164
    C429.634 533.108 426.745 535 423.86 536.839L424.129 537.26
    C421.182 539.139 418.24 540.963 415.307 542.73L415.049 542.302
    C412.059 544.104 409.078 545.848 406.111 547.532L406.358 547.966
    C403.316 549.693 400.288 551.357 397.278 552.957L397.044 552.515
    C393.947 554.162 390.869 555.74 387.816 557.25L388.038 557.698
    C384.892 559.254 381.772 560.737 378.682 562.146L378.475 561.691
    C375.272 563.151 372.102 564.531 368.972 565.829L369.163 566.291
    C365.906 567.642 362.69 568.905 359.523 570.077L359.349 569.609
    C356.028 570.838 352.76 571.969 349.554 572.998L349.707 573.474
    C346.322 574.56 343.005 575.534 339.764 576.393L339.636 575.91
    C336.194 576.822 332.839 577.604 329.582 578.253L329.68 578.743
    C326.15 579.446 322.734 579.994 319.445 580.382L319.387 579.885
    C315.791 580.31 312.35 580.543 309.083 580.58L309.088 581.08
    C305.415 581.121 301.955 580.917 298.733 580.46L298.803 579.965
    C295.175 579.451 291.861 578.614 288.894 577.45L288.711 577.915
    C285.308 576.58 282.345 574.814 279.873 572.605L280.206 572.233
    C278.938 571.099 277.803 569.847 276.807 568.474
    C275.811 567.102 274.974 565.634 274.29 564.076L273.832 564.277
    C272.5 561.242 271.743 557.876 271.53 554.227L272.029 554.198
    C271.843 551.016 272.078 547.605 272.715 543.997L272.223 543.91
    C272.789 540.706 273.67 537.353 274.85 533.874L275.323 534.035
    C276.373 530.941 277.663 527.743 279.183 524.456L278.73 524.246
    Z"
    stroke="#0054D7"
    stroke-dasharray="10 10"/>

  <path
    id="red"
    d="
    M368.242 343.772
    C439.16 292.334 511.229 256.647 570.406 240.519
    C599.996 232.455 626.336 229.289 647.685 231.471
    C669.034 233.654 685.333 241.176 694.948 254.433
    C704.562 267.689 706.652 285.518 702.096 306.489
    C697.541 327.46 686.351 351.515 669.496 377.137
    C635.789 428.38 579.485 485.802 508.566 537.24
    C437.648 588.678 365.579 624.365 306.403 640.493
    C276.813 648.557 250.473 651.723 229.124 649.541
    C207.774 647.359 191.476 639.836 181.861 626.58
    C172.246 613.324 170.157 595.494 174.712 574.523
    C179.268 553.552 190.457 529.497 207.312 503.875
    C241.02 452.632 297.324 395.21 368.242 343.772
    Z"
    stroke="#F9555A"/>

  <path
    id="yellow"
    d="
    M293.17 725.48
    C248.767 737.581 209.225 742.338 177.16 739.06
    C145.095 735.782 120.567 724.478 106.089 704.516
    C91.6099 684.554 88.482 657.729 95.324 626.231
    C102.166 594.734 118.968 558.623 144.259 520.175
    C194.841 443.28 279.321 357.125 385.716 279.955
    C492.111 202.786 600.242 149.239 689.043 125.038
    C733.445 112.937 772.988 108.18 805.052 111.458
    C837.117 114.736 861.645 126.04 876.124 146.002
    C890.602 165.964 893.73 192.789 886.888 224.287
    C880.046 255.784 863.245 291.895 837.953 330.343
    C787.371 407.238 702.892 493.393 596.496 570.563
    C490.101 647.732 381.971 701.279 293.17 725.48
    Z
    " stroke="#FFD576"/>

  <image
    width="40"
    height="45"
    xlink:href="/static/images/express/planet-animation/yellowPlanet.png"
    transform="translate(-20 -22)">

    <animateMotion
      id='yellowPathAnimation'
      dur="30s"
      begin="0;yellowPathAnimation.end"
      calcMode="linear"
    >
      <mpath xlink:href="#yellow" />
    </animateMotion>
  </image>

   <image
      width="24"
      height="24"
      transform="translate(-12 -12)"
      xlink:href="/static/images/express/planet-animation/redPlanet.png"
    >
    <animateMotion
      id='redPathAnimation'
      dur="30s"
      begin="0;redPathAnimation.end"
      keyPoints="1;0"
      keyTimes="0;1"
      calcMode="linear"
    >
      <mpath xlink:href="#red" />
    </animateMotion>
  </image>

  <image
    width="87"
    height="98"
    transform="translate(-43 -49)"
    xlink:href="/static/images/express/planet-animation/satellite.png">
    <animateMotion
      id='bluePathAnimation'
      dur="30s"
      begin="0;bluePathAnimation.end"
      calcMode="linear"
    >
      <mpath xlink:href="#blue" />
    </animateMotion>
  </image>
</svg>
