<svg viewBox="0 0 391 339" fill="none" xmlns="http://www.w3.org/2000/svg" xmlns:xlink="http://www.w3.org/1999/xlink">

  <path
    id="blue"
    d="
    M112.861 204.342
    C114.292 201.849 116.009 199.264 117.99 196.624L118.39 196.924
    C120.142 194.589 122.101 192.21 124.253 189.81L123.88 189.476
    C125.867 187.26 128.016 185.028 130.314 182.801L130.662 183.16
    C132.81 181.076 135.09 178.996 137.489 176.936L137.164 176.557
    C139.457 174.588 141.859 172.637 144.362 170.718L144.666 171.115
    C145.879 170.185 147.116 169.263 148.375 168.349
    C149.634 167.436 150.895 166.547 152.156 165.683L151.873 165.27
    C154.474 163.488 157.074 161.81 159.658 160.241L159.917 160.669
    C162.621 159.027 165.306 157.507 167.954 156.111L167.72 155.669
    C170.552 154.177 173.34 152.827 176.064 151.627L176.265 152.085
    C179.215 150.785 182.085 149.661 184.848 148.721L184.687 148.248
    C187.813 147.185 190.803 146.355 193.617 145.769L193.719 146.259
    C197.031 145.57 200.086 145.225 202.814 145.238L202.817 144.738
    C206.389 144.755 209.432 145.376 211.794 146.642L211.558 147.083
    C212.917 147.811 214.03 148.756 214.877 149.924
    C215.723 151.092 216.276 152.443 216.546 153.961L217.039 153.873
    C217.509 156.512 217.155 159.597 216.061 162.998L215.585 162.845
    C214.75 165.443 213.474 168.239 211.79 171.174L212.223 171.423
    C210.793 173.916 209.076 176.501 207.094 179.141L206.694 178.841
    C204.943 181.175 202.983 183.555 200.832 185.955L201.204 186.289
    C199.218 188.505 197.069 190.737 194.771 192.964L194.423 192.605
    C192.275 194.689 189.995 196.769 187.595 198.829L187.921 199.208
    C185.628 201.177 183.225 203.128 180.723 205.047L180.419 204.65
    C179.206 205.58 177.969 206.502 176.71 207.416
    C175.451 208.329 174.19 209.218 172.929 210.082L173.212 210.495
    C170.611 212.277 168.011 213.955 165.427 215.524L165.167 215.096
    C162.464 216.737 159.779 218.258 157.131 219.654L157.364 220.096
    C154.533 221.588 151.744 222.937 149.021 224.138L148.819 223.68
    C145.87 224.98 142.999 226.104 140.237 227.044L140.398 227.517
    C137.272 228.58 134.282 229.41 131.468 229.996L131.366 229.506
    C128.053 230.195 124.999 230.54 122.27 230.527L122.268 231.027
    C118.695 231.01 115.653 230.389 113.29 229.122L113.527 228.682
    C112.168 227.954 111.055 227.009 110.208 225.841
    C109.361 224.673 108.809 223.322 108.538 221.804L108.046 221.892
    C107.576 219.253 107.93 216.168 109.024 212.767L109.5 212.92
    C110.335 210.322 111.611 207.526 113.295 204.591L112.861 204.342
    Z"
    stroke="#0054D7"
    stroke-dasharray="10 10"/>

  <path
    id="red"
    d="
    M146.465 136.996
    C174.616 116.578 203.214 102.42 226.679 96.025
    C238.413 92.827 248.838 91.5776 257.269 92.4395
    C265.7 93.3014 272.08 96.2662 275.831 101.438
    C279.582 106.61 280.42 113.595 278.62 121.877
    C276.821 130.159 272.396 139.68 265.712 149.842
    C252.346 170.16 230.008 192.947 201.856 213.366
    C173.705 233.784 145.108 247.942 121.642 254.337
    C109.908 257.535 99.4836 258.784 91.0524 257.922
    C82.6208 257.06 76.2414 254.096 72.49 248.924
    C68.7387 243.752 67.9016 236.767 69.7008 228.484
    C71.4998 220.202 75.9247 210.682 82.6087 200.52
    C95.9747 180.201 118.314 157.415 146.465 136.996
    Z"
    stroke="#F9555A"/>

  <path
  id="yellow"
  d="
  M116.385 288.1
  C98.7667 292.901 83.0973 294.782 70.4092 293.485
  C57.7206 292.188 48.0723 287.721 42.3887 279.885
  C36.7051 272.049 35.4554 261.491 38.1629 249.027
  C40.8703 236.563 47.5245 222.253 57.5603 206.996
  C77.6297 176.487 111.162 142.286 153.406 111.645
  C195.651 81.0042 238.575 59.7515 273.808 50.1491
  C291.427 45.3475 307.096 43.4664 319.785 44.7634
  C332.473 46.0605 342.121 50.5274 347.805 58.3635
  C353.489 66.1996 354.738 76.7581 352.031 89.2221
  C349.323 101.686 342.669 115.996 332.634 131.253
  C312.564 161.762 279.032 195.963 236.787 226.604
  C194.542 257.244 151.619 278.497 116.385 288.1
  Z"
  stroke="#FFD576"/>

  <image
    width="16"
    height="18"
    xlink:href="/static/images/express/planet-animation/yellowPlanet.png"
    transform="translate(-9 -8)">

    <animateMotion
      id='yellowPathAnimation'
      dur="30s"
      begin="0;yellowPathAnimation.end"
      calcMode="linear"
    >
      <mpath xlink:href="#yellow" />
    </animateMotion>
  </image>

   <image
      width="10"
      height="10"
      transform="translate(-5 -5)"
      xlink:href="/static/images/express/planet-animation/redPlanet.png"
    >
    <animateMotion
      id='redPathAnimation'
      dur="30s"
      begin="0;redPathAnimation.end"
      keyPoints="1;0"
      keyTimes="0;1"
      calcMode="linear"
    >
      <mpath xlink:href="#red" />
    </animateMotion>
  </image>

  <image
    width="28"
    height="34"
    transform="translate(-14 -17)"
    xlink:href="/static/images/express/planet-animation/satellite.png">
    <animateMotion
      id='bluePathAnimation'
      dur="30s"
      begin="0;bluePathAnimation.end"
      calcMode="linear"
    >
      <mpath xlink:href="#blue" />
    </animateMotion>
  </image>
</svg>
